<svg width="241" height="64" viewBox="0 0 241 64" fill="none" xmlns="http://www.w3.org/2000/svg">
<path d="M120.137 20V18.728H121.145C121.369 18.728 121.569 18.696 121.745 18.632C121.937 18.568 122.089 18.432 122.201 18.224C122.313 18.016 122.369 17.704 122.369 17.288V5.6C122.369 5.168 122.313 4.848 122.201 4.64C122.089 4.432 121.937 4.296 121.745 4.232C121.569 4.168 121.369 4.136 121.145 4.136H120.137V2.864H127.049L131.033 14.456L134.849 2.864H141.641V4.136H140.633C140.409 4.136 140.201 4.176 140.009 4.256C139.817 4.32 139.665 4.464 139.553 4.688C139.457 4.896 139.409 5.232 139.409 5.696V17.168C139.409 17.616 139.457 17.952 139.553 18.176C139.665 18.4 139.817 18.552 140.009 18.632C140.201 18.696 140.409 18.728 140.633 18.728H141.641V20H133.961V18.728H134.201C134.537 18.728 134.817 18.696 135.041 18.632C135.265 18.568 135.433 18.44 135.545 18.248C135.657 18.056 135.713 17.768 135.713 17.384V5.24L130.865 20H129.233L124.169 5.24V17.168C124.169 17.616 124.233 17.952 124.361 18.176C124.505 18.4 124.713 18.552 124.985 18.632C125.257 18.696 125.577 18.728 125.945 18.728H126.089V20H120.137ZM151.604 20.24C150.212 20.24 149.02 20.056 148.028 19.688C147.036 19.32 146.276 18.736 145.748 17.936C145.22 17.136 144.956 16.08 144.956 14.768V5.6C144.956 5.168 144.9 4.848 144.788 4.64C144.676 4.432 144.524 4.296 144.332 4.232C144.156 4.168 143.956 4.136 143.732 4.136H142.7V2.864H150.98V4.136H149.972C149.748 4.136 149.54 4.176 149.348 4.256C149.172 4.32 149.028 4.464 148.916 4.688C148.804 4.896 148.748 5.232 148.748 5.696V14.96C148.748 15.856 148.892 16.568 149.18 17.096C149.484 17.608 149.9 17.976 150.428 18.2C150.972 18.424 151.604 18.536 152.324 18.536C153.044 18.536 153.66 18.416 154.172 18.176C154.7 17.92 155.1 17.536 155.372 17.024C155.66 16.496 155.804 15.824 155.804 15.008V5.6C155.804 5.168 155.748 4.848 155.636 4.64C155.524 4.432 155.372 4.296 155.18 4.232C155.004 4.168 154.804 4.136 154.58 4.136H153.572V2.864H159.86V4.136H158.828C158.604 4.136 158.396 4.176 158.204 4.256C158.028 4.32 157.884 4.464 157.772 4.688C157.66 4.896 157.604 5.232 157.604 5.696V15.056C157.604 16.128 157.396 17.056 156.98 17.84C156.564 18.608 155.916 19.2 155.036 19.616C154.156 20.032 153.012 20.24 151.604 20.24ZM160.918 20V18.728H161.926C162.15 18.728 162.35 18.696 162.526 18.632C162.718 18.568 162.87 18.432 162.982 18.224C163.094 18.016 163.15 17.704 163.15 17.288V5.6C163.15 5.168 163.094 4.848 162.982 4.64C162.87 4.432 162.718 4.296 162.526 4.232C162.35 4.168 162.15 4.136 161.926 4.136H160.918V2.864H168.646C170.166 2.864 171.406 3.032 172.366 3.368C173.342 3.704 174.062 4.208 174.526 4.88C174.99 5.536 175.222 6.344 175.222 7.304C175.222 8.152 175.062 8.872 174.742 9.464C174.422 10.056 174.014 10.544 173.518 10.928C173.022 11.312 172.502 11.616 171.958 11.84L174.814 16.76C175.022 17.112 175.222 17.416 175.414 17.672C175.606 17.912 175.79 18.112 175.966 18.272C176.158 18.432 176.358 18.552 176.566 18.632C176.774 18.696 176.99 18.728 177.214 18.728H177.31V20H176.518C175.798 20 175.166 19.976 174.622 19.928C174.094 19.864 173.63 19.76 173.23 19.616C172.846 19.456 172.502 19.232 172.198 18.944C171.894 18.656 171.622 18.288 171.382 17.84L168.526 12.56H166.942V17.288C166.942 17.704 166.998 18.016 167.11 18.224C167.222 18.432 167.374 18.568 167.566 18.632C167.758 18.696 167.958 18.728 168.166 18.728H169.198V20H160.918ZM168.286 11.168C169.022 11.168 169.598 11.04 170.014 10.784C170.446 10.512 170.75 10.12 170.926 9.608C171.102 9.08 171.19 8.424 171.19 7.64C171.19 6.824 171.094 6.176 170.902 5.696C170.71 5.2 170.398 4.84 169.966 4.616C169.534 4.392 168.958 4.28 168.238 4.28H166.942V11.168H168.286ZM177.311 20V18.728H177.599C177.887 18.728 178.143 18.68 178.367 18.584C178.591 18.488 178.791 18.32 178.967 18.08C179.159 17.824 179.343 17.456 179.519 16.976L184.727 2.864H188.015L193.031 17C193.191 17.448 193.359 17.8 193.535 18.056C193.727 18.296 193.927 18.472 194.135 18.584C194.359 18.68 194.599 18.728 194.855 18.728H195.287V20H187.367V18.728H188.303C188.543 18.728 188.775 18.656 188.999 18.512C189.223 18.368 189.335 18.128 189.335 17.792C189.335 17.664 189.319 17.536 189.287 17.408C189.271 17.28 189.247 17.16 189.215 17.048C189.183 16.936 189.151 16.84 189.119 16.76L188.279 14.36H182.447L181.751 16.424C181.719 16.552 181.679 16.696 181.631 16.856C181.583 17.016 181.543 17.184 181.511 17.36C181.479 17.52 181.463 17.664 181.463 17.792C181.463 18.096 181.575 18.328 181.799 18.488C182.023 18.648 182.271 18.728 182.543 18.728H183.551V20H177.311ZM182.951 12.896H187.799L186.527 8.96C186.415 8.592 186.295 8.2 186.167 7.784C186.039 7.352 185.919 6.92 185.807 6.488C185.695 6.056 185.591 5.656 185.495 5.288C185.431 5.544 185.351 5.824 185.255 6.128C185.159 6.416 185.063 6.72 184.967 7.04C184.871 7.344 184.767 7.656 184.655 7.976C184.559 8.28 184.463 8.568 184.367 8.84L182.951 12.896ZM197.551 20V18.728H198.559C198.799 18.728 199.007 18.696 199.183 18.632C199.375 18.552 199.519 18.4 199.615 18.176C199.727 17.952 199.783 17.616 199.783 17.168V4.328H197.863C197.383 4.328 197.007 4.4 196.735 4.544C196.463 4.672 196.263 4.864 196.135 5.12C196.007 5.376 195.919 5.68 195.871 6.032L195.703 7.52H194.095L194.215 2.864H209.167L209.287 7.52H207.679L207.511 6.032C207.479 5.68 207.391 5.376 207.247 5.12C207.119 4.864 206.919 4.672 206.647 4.544C206.375 4.4 205.999 4.328 205.519 4.328H203.599V17.168C203.599 17.616 203.647 17.952 203.743 18.176C203.855 18.4 204.007 18.552 204.199 18.632C204.391 18.696 204.599 18.728 204.823 18.728H205.831V20H197.551Z" fill="white"/>
<path d="M96.6718 35V34.417H97.1338C97.2364 34.417 97.3281 34.4023 97.4088 34.373C97.4968 34.3363 97.5664 34.2667 97.6178 34.164C97.6691 34.0613 97.6948 33.9073 97.6948 33.702V28.4C97.6948 28.202 97.6691 28.0553 97.6178 27.96C97.5664 27.8647 97.4968 27.8023 97.4088 27.773C97.3281 27.7437 97.2364 27.729 97.1338 27.729H96.6718V27.146H100.467V27.729H99.9938C99.8911 27.729 99.7958 27.7473 99.7078 27.784C99.6271 27.8133 99.5611 27.8793 99.5098 27.982C99.4584 28.0773 99.4328 28.2313 99.4328 28.444V30.567H102.304V28.444C102.304 28.2313 102.278 28.0773 102.227 27.982C102.175 27.8793 102.106 27.8133 102.018 27.784C101.937 27.7473 101.845 27.729 101.743 27.729H101.27V27.146H105.065V27.729H104.603C104.5 27.729 104.405 27.7473 104.317 27.784C104.236 27.8133 104.17 27.8793 104.119 27.982C104.067 28.0773 104.042 28.2313 104.042 28.444V33.757C104.042 33.9477 104.067 34.0907 104.119 34.186C104.17 34.2813 104.24 34.3437 104.328 34.373C104.416 34.4023 104.507 34.417 104.603 34.417H105.065V35H101.27V34.417H101.743C101.845 34.417 101.937 34.4023 102.018 34.373C102.106 34.3363 102.175 34.2667 102.227 34.164C102.278 34.0613 102.304 33.9073 102.304 33.702V31.238H99.4328V33.702C99.4328 33.9073 99.4584 34.0613 99.5098 34.164C99.5611 34.2667 99.6271 34.3363 99.7078 34.373C99.7958 34.4023 99.8911 34.417 99.9938 34.417H100.467V35H96.6718ZM109.633 35.11C108.995 35.11 108.449 35.0257 107.994 34.857C107.54 34.6883 107.191 34.4207 106.949 34.054C106.707 33.6873 106.586 33.2033 106.586 32.602V28.4C106.586 28.202 106.561 28.0553 106.509 27.96C106.458 27.8647 106.388 27.8023 106.3 27.773C106.22 27.7437 106.128 27.729 106.025 27.729H105.552V27.146H109.347V27.729H108.885C108.783 27.729 108.687 27.7473 108.599 27.784C108.519 27.8133 108.453 27.8793 108.401 27.982C108.35 28.0773 108.324 28.2313 108.324 28.444V32.69C108.324 33.1007 108.39 33.427 108.522 33.669C108.662 33.9037 108.852 34.0723 109.094 34.175C109.344 34.2777 109.633 34.329 109.963 34.329C110.293 34.329 110.576 34.274 110.81 34.164C111.052 34.0467 111.236 33.8707 111.36 33.636C111.492 33.394 111.558 33.086 111.558 32.712V28.4C111.558 28.202 111.533 28.0553 111.481 27.96C111.43 27.8647 111.36 27.8023 111.272 27.773C111.192 27.7437 111.1 27.729 110.997 27.729H110.535V27.146H113.417V27.729H112.944C112.842 27.729 112.746 27.7473 112.658 27.784C112.578 27.8133 112.512 27.8793 112.46 27.982C112.409 28.0773 112.383 28.2313 112.383 28.444V32.734C112.383 33.2253 112.288 33.6507 112.097 34.01C111.907 34.362 111.61 34.6333 111.206 34.824C110.803 35.0147 110.279 35.11 109.633 35.11ZM113.902 35V34.417H114.364C114.467 34.417 114.559 34.4023 114.639 34.373C114.727 34.3437 114.797 34.2813 114.848 34.186C114.9 34.0907 114.925 33.9477 114.925 33.757V28.4C114.925 28.202 114.9 28.0553 114.848 27.96C114.797 27.8647 114.727 27.8023 114.639 27.773C114.559 27.7437 114.467 27.729 114.364 27.729H113.902V27.146H117.697V27.729H117.235C117.133 27.729 117.037 27.7473 116.949 27.784C116.861 27.8133 116.792 27.8793 116.74 27.982C116.689 28.0773 116.663 28.2313 116.663 28.444V31.007L118.368 29.148C118.53 28.9793 118.654 28.8327 118.742 28.708C118.83 28.576 118.893 28.4587 118.929 28.356C118.973 28.246 118.995 28.1397 118.995 28.037C118.995 27.9563 118.973 27.894 118.929 27.85C118.893 27.7987 118.83 27.7657 118.742 27.751C118.654 27.729 118.533 27.718 118.379 27.718V27.146H121.36V27.718C121.162 27.718 120.975 27.7583 120.799 27.839C120.623 27.9197 120.451 28.0333 120.282 28.18C120.121 28.3267 119.952 28.4953 119.776 28.686L118.324 30.281L120.37 33.526C120.48 33.6947 120.583 33.8377 120.678 33.955C120.781 34.065 120.88 34.1567 120.975 34.23C121.078 34.296 121.181 34.3437 121.283 34.373C121.393 34.4023 121.507 34.417 121.624 34.417H121.668V35H121.074C120.656 35 120.312 34.9817 120.04 34.945C119.769 34.901 119.545 34.8387 119.369 34.758C119.201 34.67 119.061 34.5637 118.951 34.439C118.841 34.3143 118.735 34.164 118.632 33.988L117.147 31.458L116.663 31.843V33.702C116.663 33.9073 116.689 34.0613 116.74 34.164C116.792 34.2667 116.861 34.3363 116.949 34.373C117.037 34.4023 117.133 34.417 117.235 34.417H117.697V35H113.902ZM125.929 35.11C125.291 35.11 124.745 35.0257 124.29 34.857C123.836 34.6883 123.487 34.4207 123.245 34.054C123.003 33.6873 122.882 33.2033 122.882 32.602V28.4C122.882 28.202 122.857 28.0553 122.805 27.96C122.754 27.8647 122.684 27.8023 122.596 27.773C122.516 27.7437 122.424 27.729 122.321 27.729H121.848V27.146H125.643V27.729H125.181C125.079 27.729 124.983 27.7473 124.895 27.784C124.815 27.8133 124.749 27.8793 124.697 27.982C124.646 28.0773 124.62 28.2313 124.62 28.444V32.69C124.62 33.1007 124.686 33.427 124.818 33.669C124.958 33.9037 125.148 34.0723 125.39 34.175C125.64 34.2777 125.929 34.329 126.259 34.329C126.589 34.329 126.872 34.274 127.106 34.164C127.348 34.0467 127.532 33.8707 127.656 33.636C127.788 33.394 127.854 33.086 127.854 32.712V28.4C127.854 28.202 127.829 28.0553 127.777 27.96C127.726 27.8647 127.656 27.8023 127.568 27.773C127.488 27.7437 127.396 27.729 127.293 27.729H126.831V27.146H129.713V27.729H129.24C129.138 27.729 129.042 27.7473 128.954 27.784C128.874 27.8133 128.808 27.8793 128.756 27.982C128.705 28.0773 128.679 28.2313 128.679 28.444V32.734C128.679 33.2253 128.584 33.6507 128.393 34.01C128.203 34.362 127.906 34.6333 127.502 34.824C127.099 35.0147 126.575 35.11 125.929 35.11ZM130.198 35V34.417H130.66C130.763 34.417 130.854 34.4023 130.935 34.373C131.023 34.3437 131.093 34.2813 131.144 34.186C131.195 34.0907 131.221 33.9477 131.221 33.757V28.4C131.221 28.202 131.195 28.0553 131.144 27.96C131.093 27.8647 131.023 27.8023 130.935 27.773C130.854 27.7437 130.763 27.729 130.66 27.729H130.198V27.146H133.993V27.729H133.531C133.428 27.729 133.333 27.7473 133.245 27.784C133.157 27.8133 133.087 27.8793 133.036 27.982C132.985 28.0773 132.959 28.2313 132.959 28.444V31.007L134.664 29.148C134.825 28.9793 134.95 28.8327 135.038 28.708C135.126 28.576 135.188 28.4587 135.225 28.356C135.269 28.246 135.291 28.1397 135.291 28.037C135.291 27.9563 135.269 27.894 135.225 27.85C135.188 27.7987 135.126 27.7657 135.038 27.751C134.95 27.729 134.829 27.718 134.675 27.718V27.146H137.656V27.718C137.458 27.718 137.271 27.7583 137.095 27.839C136.919 27.9197 136.747 28.0333 136.578 28.18C136.417 28.3267 136.248 28.4953 136.072 28.686L134.62 30.281L136.666 33.526C136.776 33.6947 136.879 33.8377 136.974 33.955C137.077 34.065 137.176 34.1567 137.271 34.23C137.374 34.296 137.476 34.3437 137.579 34.373C137.689 34.4023 137.803 34.417 137.92 34.417H137.964V35H137.37C136.952 35 136.607 34.9817 136.336 34.945C136.065 34.901 135.841 34.8387 135.665 34.758C135.496 34.67 135.357 34.5637 135.247 34.439C135.137 34.3143 135.031 34.164 134.928 33.988L133.443 31.458L132.959 31.843V33.702C132.959 33.9073 132.985 34.0613 133.036 34.164C133.087 34.2667 133.157 34.3363 133.245 34.373C133.333 34.4023 133.428 34.417 133.531 34.417H133.993V35H130.198ZM144.137 35.11C143.535 35.11 143.026 35.0183 142.608 34.835C142.197 34.6443 141.882 34.3767 141.662 34.032C141.449 33.68 141.343 33.2583 141.343 32.767C141.343 32.3343 141.427 31.986 141.596 31.722C141.772 31.4507 142.003 31.2307 142.289 31.062C142.575 30.886 142.886 30.732 143.224 30.6C143.033 30.3653 142.875 30.149 142.751 29.951C142.626 29.7457 142.534 29.5403 142.476 29.335C142.417 29.1223 142.388 28.895 142.388 28.653C142.388 28.3303 142.468 28.048 142.63 27.806C142.798 27.564 143.048 27.377 143.378 27.245C143.708 27.1057 144.115 27.036 144.599 27.036C145.068 27.036 145.457 27.1093 145.765 27.256C146.08 27.3953 146.315 27.5823 146.469 27.817C146.623 28.0517 146.7 28.312 146.7 28.598C146.7 28.8913 146.637 29.1517 146.513 29.379C146.395 29.599 146.212 29.8007 145.963 29.984C145.721 30.1673 145.409 30.347 145.028 30.523L146.667 32.239C146.711 31.9823 146.74 31.7293 146.755 31.48C146.769 31.2307 146.777 31.0033 146.777 30.798V30.314H149.186V30.897H149.01C148.848 30.897 148.691 30.9153 148.537 30.952C148.39 30.9813 148.258 31.0473 148.141 31.15C148.031 31.2527 147.943 31.4177 147.877 31.645C147.825 31.8503 147.759 32.0703 147.679 32.305C147.598 32.5323 147.503 32.7633 147.393 32.998L148.493 34.142C148.566 34.2153 148.647 34.274 148.735 34.318C148.823 34.3547 148.922 34.3803 149.032 34.395C149.142 34.4097 149.263 34.417 149.395 34.417H149.494V35H147.316L146.557 34.197C146.373 34.373 146.164 34.5307 145.93 34.67C145.695 34.8093 145.427 34.9193 145.127 35C144.833 35.0733 144.503 35.11 144.137 35.11ZM144.412 34.373C144.8 34.373 145.13 34.3107 145.402 34.186C145.673 34.054 145.897 33.8817 146.073 33.669L143.719 31.161C143.513 31.3077 143.356 31.469 143.246 31.645C143.136 31.8137 143.059 31.997 143.015 32.195C142.978 32.3857 142.96 32.5947 142.96 32.822C142.96 33.042 142.993 33.2473 143.059 33.438C143.132 33.6213 143.231 33.7827 143.356 33.922C143.48 34.0613 143.631 34.1713 143.807 34.252C143.99 34.3327 144.192 34.373 144.412 34.373ZM144.566 30.028C144.874 29.852 145.083 29.6577 145.193 29.445C145.31 29.225 145.369 28.9463 145.369 28.609C145.369 28.433 145.347 28.279 145.303 28.147C145.259 28.0077 145.182 27.8977 145.072 27.817C144.962 27.7363 144.804 27.696 144.599 27.696C144.349 27.696 144.166 27.784 144.049 27.96C143.939 28.136 143.884 28.356 143.884 28.62C143.884 28.7887 143.909 28.95 143.961 29.104C144.012 29.2507 144.085 29.3973 144.181 29.544C144.283 29.6907 144.412 29.852 144.566 30.028ZM152.8 35V34.417H153.262C153.372 34.417 153.467 34.4023 153.548 34.373C153.636 34.3363 153.702 34.2667 153.746 34.164C153.797 34.0613 153.823 33.9073 153.823 33.702V28.4C153.823 28.202 153.797 28.0553 153.746 27.96C153.694 27.8647 153.625 27.8023 153.537 27.773C153.456 27.7437 153.364 27.729 153.262 27.729H152.8V27.146H156.43C157.244 27.146 157.94 27.289 158.52 27.575C159.099 27.8537 159.543 28.2753 159.851 28.84C160.166 29.3973 160.324 30.094 160.324 30.93C160.324 31.7293 160.177 32.437 159.884 33.053C159.59 33.6617 159.154 34.1383 158.575 34.483C158.003 34.8277 157.288 35 156.43 35H152.8ZM156.177 34.318C156.683 34.318 157.104 34.1823 157.442 33.911C157.779 33.6397 158.032 33.251 158.201 32.745C158.377 32.2317 158.465 31.623 158.465 30.919C158.465 30.2223 158.377 29.6467 158.201 29.192C158.032 28.73 157.779 28.3853 157.442 28.158C157.104 27.9307 156.686 27.817 156.188 27.817H155.561V34.318H156.177ZM160.753 35V34.417H160.885C161.017 34.417 161.135 34.395 161.237 34.351C161.34 34.307 161.432 34.23 161.512 34.12C161.6 34.0027 161.685 33.834 161.765 33.614L164.152 27.146H165.659L167.958 33.625C168.032 33.8303 168.109 33.9917 168.189 34.109C168.277 34.219 168.369 34.2997 168.464 34.351C168.567 34.395 168.677 34.417 168.794 34.417H168.992V35H165.362V34.417H165.791C165.901 34.417 166.008 34.384 166.11 34.318C166.213 34.252 166.264 34.142 166.264 33.988C166.264 33.9293 166.257 33.8707 166.242 33.812C166.235 33.7533 166.224 33.6983 166.209 33.647C166.195 33.5957 166.18 33.5517 166.165 33.515L165.78 32.415H163.107L162.788 33.361C162.774 33.4197 162.755 33.4857 162.733 33.559C162.711 33.6323 162.693 33.7093 162.678 33.79C162.664 33.8633 162.656 33.9293 162.656 33.988C162.656 34.1273 162.708 34.2337 162.81 34.307C162.913 34.3803 163.027 34.417 163.151 34.417H163.613V35H160.753ZM163.338 31.744H165.56L164.977 29.94C164.926 29.7713 164.871 29.5917 164.812 29.401C164.754 29.203 164.699 29.005 164.647 28.807C164.596 28.609 164.548 28.4257 164.504 28.257C164.475 28.3743 164.438 28.5027 164.394 28.642C164.35 28.774 164.306 28.9133 164.262 29.06C164.218 29.1993 164.171 29.3423 164.119 29.489C164.075 29.6283 164.031 29.7603 163.987 29.885L163.338 31.744ZM169.3 35V34.417H169.762C169.864 34.417 169.956 34.4023 170.037 34.373C170.125 34.3363 170.194 34.2667 170.246 34.164C170.297 34.0613 170.323 33.9073 170.323 33.702V28.4C170.323 28.202 170.297 28.0553 170.246 27.96C170.194 27.8647 170.125 27.8023 170.037 27.773C169.956 27.7437 169.864 27.729 169.762 27.729H169.3V27.146H171.742L175.625 32.635V28.4C175.625 28.202 175.599 28.0553 175.548 27.96C175.496 27.8647 175.427 27.8023 175.339 27.773C175.258 27.7437 175.166 27.729 175.064 27.729H174.602V27.146H177.473V27.729H177.011C176.908 27.729 176.813 27.7473 176.725 27.784C176.644 27.8133 176.578 27.8793 176.527 27.982C176.475 28.0773 176.45 28.2313 176.45 28.444V35H175.438L171.148 28.939V33.702C171.148 33.9073 171.173 34.0613 171.225 34.164C171.276 34.2667 171.342 34.3363 171.423 34.373C171.511 34.4023 171.606 34.417 171.709 34.417H172.171V35H169.3ZM177.969 35V34.417H178.431C178.541 34.417 178.636 34.4023 178.717 34.373C178.805 34.3363 178.871 34.2667 178.915 34.164C178.966 34.0613 178.992 33.9073 178.992 33.702V28.444C178.992 28.2313 178.966 28.0773 178.915 27.982C178.871 27.8793 178.805 27.8133 178.717 27.784C178.636 27.7473 178.541 27.729 178.431 27.729H177.969V27.146H181.764V27.729H181.302C181.199 27.729 181.104 27.7473 181.016 27.784C180.928 27.8133 180.858 27.8793 180.807 27.982C180.763 28.0773 180.741 28.2313 180.741 28.444V33.702C180.741 33.9073 180.763 34.0613 180.807 34.164C180.858 34.2667 180.928 34.3363 181.016 34.373C181.104 34.4023 181.199 34.417 181.302 34.417H181.764V35H177.969ZM184.98 35.11C184.488 35.11 184.078 35.066 183.748 34.978C183.418 34.8827 183.154 34.7617 182.956 34.615C182.758 34.461 182.615 34.2923 182.527 34.109C182.446 33.9257 182.406 33.746 182.406 33.57C182.406 33.3207 182.464 33.1227 182.582 32.976C182.699 32.822 182.853 32.712 183.044 32.646C183.234 32.58 183.436 32.547 183.649 32.547C183.649 32.965 183.711 33.317 183.836 33.603C183.968 33.8817 184.147 34.0943 184.375 34.241C184.602 34.3803 184.862 34.45 185.156 34.45C185.588 34.45 185.922 34.3363 186.157 34.109C186.399 33.8817 186.52 33.5993 186.52 33.262C186.52 33.0127 186.45 32.8 186.311 32.624C186.179 32.4407 185.977 32.2757 185.706 32.129C185.434 31.975 185.093 31.8137 184.683 31.645C184.301 31.491 183.979 31.3297 183.715 31.161C183.451 30.9923 183.238 30.8127 183.077 30.622C182.915 30.424 182.798 30.215 182.725 29.995C182.659 29.7677 182.626 29.5183 182.626 29.247C182.626 28.7997 182.743 28.411 182.978 28.081C183.212 27.751 183.531 27.4943 183.935 27.311C184.345 27.1277 184.807 27.036 185.321 27.036C185.863 27.036 186.307 27.0947 186.652 27.212C186.996 27.322 187.249 27.4723 187.411 27.663C187.579 27.8537 187.664 28.07 187.664 28.312C187.664 28.5687 187.55 28.785 187.323 28.961C187.103 29.137 186.765 29.225 186.311 29.225C186.311 29.0197 186.27 28.7997 186.19 28.565C186.116 28.3303 185.995 28.1287 185.827 27.96C185.658 27.7913 185.431 27.707 185.145 27.707C184.947 27.707 184.763 27.7473 184.595 27.828C184.433 27.9013 184.301 28.015 184.199 28.169C184.103 28.3157 184.056 28.499 184.056 28.719C184.056 28.9243 184.103 29.115 184.199 29.291C184.294 29.467 184.474 29.643 184.738 29.819C185.002 29.9877 185.379 30.171 185.871 30.369C186.377 30.5743 186.784 30.787 187.092 31.007C187.4 31.227 187.623 31.4763 187.763 31.755C187.902 32.0263 187.972 32.3417 187.972 32.701C187.972 33.1703 187.847 33.5883 187.598 33.955C187.356 34.3143 187.011 34.5967 186.564 34.802C186.116 35.0073 185.588 35.11 184.98 35.11ZM184.793 37.64C184.675 37.64 184.518 37.629 184.32 37.607C184.129 37.585 183.968 37.5557 183.836 37.519V36.848C183.968 36.8773 184.1 36.8993 184.232 36.914C184.371 36.9287 184.488 36.936 184.584 36.936C184.796 36.936 184.961 36.8957 185.079 36.815C185.196 36.7417 185.255 36.6133 185.255 36.43C185.255 36.2833 185.218 36.1697 185.145 36.089C185.071 36.0157 184.972 35.9607 184.848 35.924C184.73 35.8947 184.591 35.8763 184.43 35.869L184.661 34.901H185.288L185.178 35.374C185.42 35.3887 185.629 35.44 185.805 35.528C185.981 35.616 186.116 35.7297 186.212 35.869C186.307 36.0157 186.355 36.188 186.355 36.386C186.355 36.7747 186.212 37.079 185.926 37.299C185.64 37.5263 185.262 37.64 184.793 37.64ZM188.829 35V34.417H189.291C189.394 34.417 189.485 34.4023 189.566 34.373C189.654 34.3437 189.724 34.2813 189.775 34.186C189.826 34.0907 189.852 33.9477 189.852 33.757V28.4C189.852 28.202 189.826 28.0553 189.775 27.96C189.724 27.8647 189.654 27.8023 189.566 27.773C189.485 27.7437 189.394 27.729 189.291 27.729H188.829V27.146H191.997L193.823 32.459L195.572 27.146H198.685V27.729H198.223C198.12 27.729 198.025 27.7473 197.937 27.784C197.849 27.8133 197.779 27.8793 197.728 27.982C197.684 28.0773 197.662 28.2313 197.662 28.444V33.702C197.662 33.9073 197.684 34.0613 197.728 34.164C197.779 34.2667 197.849 34.3363 197.937 34.373C198.025 34.4023 198.12 34.417 198.223 34.417H198.685V35H195.165V34.417H195.275C195.429 34.417 195.557 34.4023 195.66 34.373C195.763 34.3437 195.84 34.285 195.891 34.197C195.942 34.109 195.968 33.977 195.968 33.801V28.235L193.746 35H192.998L190.677 28.235V33.702C190.677 33.9073 190.706 34.0613 190.765 34.164C190.831 34.2667 190.926 34.3363 191.051 34.373C191.176 34.4023 191.322 34.417 191.491 34.417H191.557V35H188.829ZM199.039 35V34.417H199.171C199.303 34.417 199.42 34.395 199.523 34.351C199.625 34.307 199.717 34.23 199.798 34.12C199.886 34.0027 199.97 33.834 200.051 33.614L202.438 27.146H203.945L206.244 33.625C206.317 33.8303 206.394 33.9917 206.475 34.109C206.563 34.219 206.654 34.2997 206.75 34.351C206.852 34.395 206.962 34.417 207.08 34.417H207.278V35H203.648V34.417H204.077C204.187 34.417 204.293 34.384 204.396 34.318C204.498 34.252 204.55 34.142 204.55 33.988C204.55 33.9293 204.542 33.8707 204.528 33.812C204.52 33.7533 204.509 33.6983 204.495 33.647C204.48 33.5957 204.465 33.5517 204.451 33.515L204.066 32.415H201.393L201.074 33.361C201.059 33.4197 201.041 33.4857 201.019 33.559C200.997 33.6323 200.978 33.7093 200.964 33.79C200.949 33.8633 200.942 33.9293 200.942 33.988C200.942 34.1273 200.993 34.2337 201.096 34.307C201.198 34.3803 201.312 34.417 201.437 34.417H201.899V35H199.039ZM201.624 31.744H203.846L203.263 29.94C203.211 29.7713 203.156 29.5917 203.098 29.401C203.039 29.203 202.984 29.005 202.933 28.807C202.881 28.609 202.834 28.4257 202.79 28.257C202.76 28.3743 202.724 28.5027 202.68 28.642C202.636 28.774 202.592 28.9133 202.548 29.06C202.504 29.1993 202.456 29.3423 202.405 29.489C202.361 29.6283 202.317 29.7603 202.273 29.885L201.624 31.744ZM207.585 35V34.417H208.047C208.15 34.417 208.241 34.4023 208.322 34.373C208.41 34.3363 208.48 34.2667 208.531 34.164C208.582 34.0613 208.608 33.9073 208.608 33.702V28.4C208.608 28.202 208.582 28.0553 208.531 27.96C208.48 27.8647 208.41 27.8023 208.322 27.773C208.241 27.7437 208.15 27.729 208.047 27.729H207.585V27.146H210.027L213.91 32.635V28.4C213.91 28.202 213.884 28.0553 213.833 27.96C213.782 27.8647 213.712 27.8023 213.624 27.773C213.543 27.7437 213.452 27.729 213.349 27.729H212.887V27.146H215.758V27.729H215.296C215.193 27.729 215.098 27.7473 215.01 27.784C214.929 27.8133 214.863 27.8793 214.812 27.982C214.761 28.0773 214.735 28.2313 214.735 28.444V35H213.723L209.433 28.939V33.702C209.433 33.9073 209.459 34.0613 209.51 34.164C209.561 34.2667 209.627 34.3363 209.708 34.373C209.796 34.4023 209.891 34.417 209.994 34.417H210.456V35H207.585ZM216.254 35V34.417H216.716C216.826 34.417 216.921 34.4023 217.002 34.373C217.09 34.3363 217.156 34.2667 217.2 34.164C217.251 34.0613 217.277 33.9073 217.277 33.702V28.444C217.277 28.2313 217.251 28.0773 217.2 27.982C217.156 27.8793 217.09 27.8133 217.002 27.784C216.921 27.7473 216.826 27.729 216.716 27.729H216.254V27.146H220.049V27.729H219.587C219.484 27.729 219.389 27.7437 219.301 27.773C219.22 27.8023 219.154 27.8647 219.103 27.96C219.051 28.0553 219.026 28.202 219.026 28.4V34.329H221.072C221.24 34.329 221.383 34.2923 221.501 34.219C221.625 34.1457 221.724 34.0393 221.798 33.9C221.878 33.7533 221.941 33.5773 221.985 33.372L222.161 32.547H222.777L222.7 35H216.254ZM223.451 35V34.417H223.913C224.023 34.417 224.118 34.4023 224.199 34.373C224.287 34.3363 224.353 34.2667 224.397 34.164C224.448 34.0613 224.474 33.9073 224.474 33.702V28.444C224.474 28.2313 224.448 28.0773 224.397 27.982C224.353 27.8793 224.287 27.8133 224.199 27.784C224.118 27.7473 224.023 27.729 223.913 27.729H223.451V27.146H227.246V27.729H226.784C226.681 27.729 226.586 27.7473 226.498 27.784C226.41 27.8133 226.34 27.8793 226.289 27.982C226.245 28.0773 226.223 28.2313 226.223 28.444V33.702C226.223 33.9073 226.245 34.0613 226.289 34.164C226.34 34.2667 226.41 34.3363 226.498 34.373C226.586 34.4023 226.681 34.417 226.784 34.417H227.246V35H223.451ZM227.866 35V34.417H228.328C228.431 34.417 228.522 34.4023 228.603 34.373C228.691 34.3437 228.761 34.2813 228.812 34.186C228.863 34.0907 228.889 33.9477 228.889 33.757V28.4C228.889 28.202 228.863 28.0553 228.812 27.96C228.761 27.8647 228.691 27.8023 228.603 27.773C228.522 27.7437 228.431 27.729 228.328 27.729H227.866V27.146H231.661V27.729H231.199C231.096 27.729 231.001 27.7473 230.913 27.784C230.825 27.8133 230.755 27.8793 230.704 27.982C230.653 28.0773 230.627 28.2313 230.627 28.444V31.007L232.332 29.148C232.493 28.9793 232.618 28.8327 232.706 28.708C232.794 28.576 232.856 28.4587 232.893 28.356C232.937 28.246 232.959 28.1397 232.959 28.037C232.959 27.9563 232.937 27.894 232.893 27.85C232.856 27.7987 232.794 27.7657 232.706 27.751C232.618 27.729 232.497 27.718 232.343 27.718V27.146H235.324V27.718C235.126 27.718 234.939 27.7583 234.763 27.839C234.587 27.9197 234.415 28.0333 234.246 28.18C234.085 28.3267 233.916 28.4953 233.74 28.686L232.288 30.281L234.334 33.526C234.444 33.6947 234.547 33.8377 234.642 33.955C234.745 34.065 234.844 34.1567 234.939 34.23C235.042 34.296 235.144 34.3437 235.247 34.373C235.357 34.4023 235.471 34.417 235.588 34.417H235.632V35H235.038C234.62 35 234.275 34.9817 234.004 34.945C233.733 34.901 233.509 34.8387 233.333 34.758C233.164 34.67 233.025 34.5637 232.915 34.439C232.805 34.3143 232.699 34.164 232.596 33.988L231.111 31.458L230.627 31.843V33.702C230.627 33.9073 230.653 34.0613 230.704 34.164C230.755 34.2667 230.825 34.3363 230.913 34.373C231.001 34.4023 231.096 34.417 231.199 34.417H231.661V35H227.866Z" fill="white"/>
<path d="M93.5065 59V58.314H93.7165C93.8938 58.314 94.0432 58.286 94.1645 58.23C94.2858 58.174 94.3978 58.0713 94.5005 57.922C94.6032 57.7727 94.7105 57.5533 94.8225 57.264L97.8885 49.004H99.4845L102.509 57.404C102.593 57.6467 102.681 57.8333 102.775 57.964C102.877 58.0947 102.989 58.188 103.111 58.244C103.241 58.2907 103.386 58.314 103.545 58.314H103.769V59H99.4425V58.314H99.9045C100.091 58.314 100.25 58.2673 100.381 58.174C100.521 58.0807 100.591 57.9313 100.591 57.726C100.591 57.6607 100.581 57.5953 100.563 57.53C100.553 57.4553 100.539 57.39 100.521 57.334C100.511 57.2687 100.493 57.208 100.465 57.152L99.9605 55.682H96.4465L95.9985 56.998C95.9705 57.0727 95.9425 57.152 95.9145 57.236C95.8958 57.32 95.8772 57.404 95.8585 57.488C95.8492 57.572 95.8445 57.6467 95.8445 57.712C95.8445 57.9173 95.9145 58.0713 96.0545 58.174C96.1945 58.2673 96.3718 58.314 96.5865 58.314H97.0625V59H93.5065ZM96.7265 54.898H99.6805L98.8965 52.532C98.8218 52.2987 98.7425 52.056 98.6585 51.804C98.5838 51.552 98.5092 51.3047 98.4345 51.062C98.3692 50.8193 98.3085 50.5907 98.2525 50.376C98.2152 50.5253 98.1685 50.684 98.1125 50.852C98.0658 51.02 98.0145 51.1927 97.9585 51.37C97.9118 51.5473 97.8558 51.7293 97.7905 51.916C97.7345 52.0933 97.6738 52.2707 97.6085 52.448L96.7265 54.898ZM104.045 52.882C103.98 52.6953 103.901 52.5507 103.807 52.448C103.723 52.3453 103.611 52.2753 103.471 52.238C103.331 52.2007 103.163 52.182 102.967 52.182V51.496H106.985V52.182H106.551C106.355 52.182 106.206 52.224 106.103 52.308C106.001 52.392 105.949 52.5273 105.949 52.714C105.949 52.8073 105.959 52.9053 105.977 53.008C106.005 53.1107 106.033 53.204 106.061 53.288L107.013 55.934C107.088 56.1393 107.158 56.3587 107.223 56.592C107.298 56.8253 107.363 57.0493 107.419 57.264C107.485 57.4693 107.536 57.656 107.573 57.824C107.601 57.6747 107.643 57.5067 107.699 57.32C107.755 57.124 107.816 56.928 107.881 56.732C107.956 56.5267 108.021 56.3447 108.077 56.186L109.057 53.4C109.104 53.2787 109.137 53.1573 109.155 53.036C109.183 52.9147 109.197 52.798 109.197 52.686C109.197 52.4993 109.137 52.3687 109.015 52.294C108.894 52.2193 108.726 52.182 108.511 52.182H108.217V51.496H111.269V52.182H111.031C110.882 52.182 110.756 52.21 110.653 52.266C110.551 52.3127 110.453 52.4107 110.359 52.56C110.266 52.7093 110.163 52.9333 110.051 53.232L107.965 59H106.327L104.045 52.882ZM112.227 59.112C111.947 59.112 111.704 59.0327 111.499 58.874C111.294 58.7153 111.191 58.44 111.191 58.048C111.191 57.6467 111.294 57.3713 111.499 57.222C111.704 57.0727 111.952 56.998 112.241 56.998C112.521 56.998 112.764 57.0727 112.969 57.222C113.174 57.3713 113.277 57.6467 113.277 58.048C113.277 58.4493 113.174 58.7293 112.969 58.888C112.764 59.0373 112.516 59.112 112.227 59.112ZM118.262 59V58.314H118.682C118.85 58.314 119 58.2953 119.13 58.258C119.27 58.2113 119.378 58.1227 119.452 57.992C119.536 57.852 119.578 57.6467 119.578 57.376V50.6C119.578 50.3387 119.536 50.1427 119.452 50.012C119.368 49.8813 119.256 49.7973 119.116 49.76C118.986 49.7133 118.841 49.69 118.682 49.69H118.262V49.004H122.224C123.512 49.004 124.474 49.2093 125.108 49.62C125.752 50.0307 126.074 50.67 126.074 51.538C126.074 51.9487 126 52.294 125.85 52.574C125.701 52.854 125.496 53.0827 125.234 53.26C124.973 53.4373 124.665 53.582 124.31 53.694V53.764C124.74 53.848 125.118 54.002 125.444 54.226C125.771 54.4407 126.028 54.7207 126.214 55.066C126.401 55.402 126.494 55.8033 126.494 56.27C126.494 57.1847 126.172 57.8707 125.528 58.328C124.884 58.776 123.923 59 122.644 59H118.262ZM122.574 58.202C123.265 58.202 123.75 58.0527 124.03 57.754C124.32 57.4553 124.464 56.9467 124.464 56.228C124.464 55.7613 124.404 55.3787 124.282 55.08C124.17 54.772 123.979 54.5433 123.708 54.394C123.447 54.2447 123.078 54.17 122.602 54.17H121.482V58.202H122.574ZM122.182 53.372C122.658 53.372 123.027 53.3113 123.288 53.19C123.559 53.0593 123.75 52.8587 123.862 52.588C123.984 52.3173 124.044 51.9673 124.044 51.538C124.044 50.8847 123.9 50.432 123.61 50.18C123.33 49.928 122.845 49.802 122.154 49.802H121.482V53.372H122.182ZM131.311 59.14C130.191 59.14 129.328 58.804 128.721 58.132C128.124 57.4507 127.825 56.5033 127.825 55.29C127.825 53.9833 128.114 52.9987 128.693 52.336C129.281 51.664 130.102 51.328 131.157 51.328C132.137 51.328 132.902 51.6127 133.453 52.182C134.013 52.742 134.293 53.5773 134.293 54.688V55.374H129.673C129.692 56.0273 129.776 56.5593 129.925 56.97C130.084 57.3713 130.303 57.67 130.583 57.866C130.872 58.062 131.222 58.16 131.633 58.16C131.96 58.16 132.249 58.1133 132.501 58.02C132.762 57.9173 132.986 57.7867 133.173 57.628C133.36 57.46 133.509 57.278 133.621 57.082C133.724 57.1287 133.803 57.208 133.859 57.32C133.924 57.4227 133.957 57.544 133.957 57.684C133.957 57.9173 133.859 58.146 133.663 58.37C133.476 58.594 133.187 58.7807 132.795 58.93C132.412 59.07 131.918 59.14 131.311 59.14ZM132.431 54.534C132.431 54.058 132.389 53.6427 132.305 53.288C132.221 52.9333 132.086 52.6627 131.899 52.476C131.722 52.28 131.479 52.182 131.171 52.182C130.872 52.182 130.616 52.2707 130.401 52.448C130.196 52.6253 130.032 52.8913 129.911 53.246C129.799 53.5913 129.729 54.0207 129.701 54.534H132.431ZM135.352 61.604C135.837 61.604 136.253 61.5387 136.598 61.408C136.943 61.2867 137.233 61.1093 137.466 60.876C137.709 60.652 137.909 60.3813 138.068 60.064C138.227 59.7467 138.362 59.4013 138.474 59.028L135.926 52.882C135.851 52.7047 135.767 52.5693 135.674 52.476C135.59 52.3827 135.492 52.322 135.38 52.294C135.268 52.2567 135.137 52.238 134.988 52.238H134.946V51.496H138.684V52.182H138.642C138.381 52.182 138.175 52.224 138.026 52.308C137.877 52.392 137.802 52.5413 137.802 52.756C137.802 52.8307 137.816 52.9193 137.844 53.022C137.872 53.1153 137.905 53.204 137.942 53.288L138.922 55.822C138.987 55.9993 139.048 56.1673 139.104 56.326C139.16 56.4847 139.207 56.634 139.244 56.774C139.291 56.914 139.328 57.0493 139.356 57.18C139.384 57.3013 139.407 57.4133 139.426 57.516C139.463 57.292 139.524 57.0493 139.608 56.788C139.701 56.5267 139.776 56.326 139.832 56.186L140.756 53.442C140.793 53.3393 140.826 53.2273 140.854 53.106C140.882 52.9753 140.896 52.868 140.896 52.784C140.896 52.5693 140.812 52.4153 140.644 52.322C140.485 52.2287 140.252 52.182 139.944 52.182H139.888V51.496H142.954V52.182H142.898C142.73 52.182 142.581 52.2147 142.45 52.28C142.329 52.336 142.221 52.4433 142.128 52.602C142.035 52.7513 141.937 52.9613 141.834 53.232L139.72 59.028C139.477 59.7093 139.244 60.2647 139.02 60.694C138.796 61.1233 138.539 61.4593 138.25 61.702C137.97 61.9447 137.615 62.1127 137.186 62.206C136.757 62.3087 136.211 62.36 135.548 62.36H135.352V61.604ZM146.345 59.14C145.682 59.14 145.174 58.9767 144.819 58.65C144.474 58.3233 144.301 57.754 144.301 56.942V52.392H143.237V51.734C143.489 51.734 143.727 51.6827 143.951 51.58C144.175 51.4773 144.362 51.3513 144.511 51.202C144.651 51.0433 144.777 50.8473 144.889 50.614C145.001 50.3807 145.09 50.096 145.155 49.76H146.121V51.496H147.927V52.392H146.121V56.872C146.121 57.3107 146.2 57.6373 146.359 57.852C146.527 58.0573 146.77 58.16 147.087 58.16C147.274 58.16 147.442 58.1507 147.591 58.132C147.75 58.104 147.904 58.0713 148.053 58.034V58.832C147.913 58.8973 147.689 58.9627 147.381 59.028C147.082 59.1027 146.737 59.14 146.345 59.14ZM152.04 59.14C151.302 59.14 150.738 58.9207 150.346 58.482C149.954 58.034 149.758 57.334 149.758 56.382V53.162C149.758 52.882 149.716 52.672 149.632 52.532C149.548 52.392 149.426 52.2987 149.268 52.252C149.118 52.2053 148.936 52.182 148.722 52.182H148.694V51.496H151.578V56.102C151.578 56.5127 151.61 56.8627 151.676 57.152C151.75 57.4413 151.876 57.6653 152.054 57.824C152.231 57.9827 152.474 58.062 152.782 58.062C153.127 58.062 153.407 57.9733 153.622 57.796C153.836 57.6093 153.995 57.3527 154.098 57.026C154.2 56.6993 154.252 56.3167 154.252 55.878V53.12C154.252 52.84 154.2 52.6347 154.098 52.504C154.004 52.3733 153.878 52.2893 153.72 52.252C153.561 52.2053 153.384 52.182 153.188 52.182H153.146V51.496H156.072V57.418C156.072 57.6887 156.114 57.8893 156.198 58.02C156.291 58.1413 156.417 58.2207 156.576 58.258C156.734 58.2953 156.907 58.314 157.094 58.314H157.178V59H154.602L154.336 57.95H154.266C154.126 58.202 153.972 58.4073 153.804 58.566C153.636 58.7153 153.458 58.832 153.272 58.916C153.085 59 152.889 59.056 152.684 59.084C152.478 59.1213 152.264 59.14 152.04 59.14ZM157.728 59V58.314H157.91C158.078 58.314 158.241 58.2953 158.4 58.258C158.558 58.2113 158.689 58.1227 158.792 57.992C158.904 57.852 158.96 57.6467 158.96 57.376V49.928C158.96 49.6667 158.904 49.4753 158.792 49.354C158.68 49.2233 158.544 49.1393 158.386 49.102C158.227 49.0647 158.068 49.046 157.91 49.046H157.728V48.36H160.78V57.376C160.78 57.6467 160.831 57.852 160.934 57.992C161.046 58.1227 161.181 58.2113 161.34 58.258C161.508 58.2953 161.671 58.314 161.83 58.314H162.012V59H157.728ZM162.431 59V58.314H162.613C162.781 58.314 162.944 58.2953 163.103 58.258C163.261 58.2113 163.392 58.1227 163.495 57.992C163.607 57.852 163.663 57.6467 163.663 57.376V49.928C163.663 49.6667 163.607 49.4753 163.495 49.354C163.383 49.2233 163.247 49.1393 163.089 49.102C162.93 49.0647 162.771 49.046 162.613 49.046H162.431V48.36H165.483V57.376C165.483 57.6467 165.534 57.852 165.637 57.992C165.749 58.1227 165.884 58.2113 166.043 58.258C166.211 58.2953 166.374 58.314 166.533 58.314H166.715V59H162.431ZM169.766 59.14C169.355 59.14 168.982 59.0607 168.646 58.902C168.319 58.734 168.058 58.482 167.862 58.146C167.675 57.81 167.582 57.3853 167.582 56.872C167.582 56.1253 167.843 55.57 168.366 55.206C168.888 54.842 169.677 54.6413 170.732 54.604L171.894 54.562V53.764C171.894 53.4467 171.87 53.1667 171.824 52.924C171.777 52.672 171.679 52.476 171.53 52.336C171.39 52.196 171.166 52.126 170.858 52.126C170.578 52.126 170.358 52.1913 170.2 52.322C170.041 52.4527 169.934 52.6347 169.878 52.868C169.822 53.092 169.794 53.3487 169.794 53.638C169.252 53.638 168.846 53.5727 168.576 53.442C168.305 53.302 168.17 53.064 168.17 52.728C168.17 52.392 168.291 52.1213 168.534 51.916C168.786 51.7107 169.122 51.5613 169.542 51.468C169.962 51.3747 170.419 51.328 170.914 51.328C171.847 51.328 172.547 51.51 173.014 51.874C173.48 52.2287 173.714 52.8447 173.714 53.722V57.32C173.714 57.572 173.737 57.7727 173.784 57.922C173.84 58.062 173.933 58.1647 174.064 58.23C174.194 58.286 174.362 58.314 174.568 58.314H174.61V59H172.286L172.006 57.95H171.894C171.688 58.202 171.492 58.4167 171.306 58.594C171.128 58.7713 170.918 58.9067 170.676 59C170.442 59.0933 170.139 59.14 169.766 59.14ZM170.368 58.174C170.685 58.174 170.956 58.0993 171.18 57.95C171.404 57.8007 171.576 57.586 171.698 57.306C171.828 57.026 171.894 56.6993 171.894 56.326V55.248L171.166 55.29C170.727 55.3087 170.382 55.3833 170.13 55.514C169.887 55.6447 169.71 55.8267 169.598 56.06C169.495 56.2933 169.444 56.5827 169.444 56.928C169.444 57.208 169.476 57.4413 169.542 57.628C169.607 57.8053 169.71 57.9407 169.85 58.034C169.99 58.1273 170.162 58.174 170.368 58.174ZM175.379 59V58.314H175.449C175.664 58.314 175.851 58.2907 176.009 58.244C176.177 58.1973 176.313 58.104 176.415 57.964C176.518 57.824 176.569 57.614 176.569 57.334L176.555 49.928C176.555 49.6667 176.499 49.4753 176.387 49.354C176.275 49.2233 176.14 49.1393 175.981 49.102C175.823 49.0647 175.664 49.046 175.505 49.046H175.351V48.36H178.375V50.964C178.375 51.1787 178.366 51.4073 178.347 51.65C178.338 51.8833 178.324 52.0887 178.305 52.266C178.296 52.434 178.291 52.518 178.291 52.518H178.389C178.557 52.1913 178.749 51.944 178.963 51.776C179.178 51.5987 179.411 51.482 179.663 51.426C179.925 51.3607 180.205 51.328 180.503 51.328C181.25 51.328 181.829 51.5427 182.239 51.972C182.659 52.4013 182.869 53.092 182.869 54.044V57.32C182.869 57.6093 182.907 57.824 182.981 57.964C183.065 58.104 183.182 58.1973 183.331 58.244C183.481 58.2907 183.658 58.314 183.863 58.314H183.905V59H181.049V54.31C181.049 53.7033 180.956 53.2367 180.769 52.91C180.583 52.574 180.251 52.406 179.775 52.406C179.439 52.406 179.169 52.504 178.963 52.7C178.758 52.896 178.609 53.162 178.515 53.498C178.422 53.834 178.375 54.2073 178.375 54.618L178.389 57.39C178.389 57.6607 178.431 57.8613 178.515 57.992C178.609 58.1227 178.735 58.2113 178.893 58.258C179.052 58.2953 179.234 58.314 179.439 58.314H179.481V59H175.379ZM188.372 59V58.314H188.806C188.964 58.314 189.109 58.2953 189.24 58.258C189.37 58.2207 189.478 58.1413 189.562 58.02C189.646 57.8893 189.688 57.698 189.688 57.446V50.572C189.688 50.3107 189.646 50.1193 189.562 49.998C189.478 49.8673 189.37 49.7833 189.24 49.746C189.109 49.7087 188.964 49.69 188.806 49.69H188.372V49.004H192.082L194.63 56.242L197.094 49.004H200.734V49.69H200.3C200.141 49.69 199.992 49.7133 199.852 49.76C199.721 49.7973 199.614 49.8813 199.53 50.012C199.455 50.1427 199.418 50.348 199.418 50.628V57.376C199.418 57.6467 199.455 57.852 199.53 57.992C199.614 58.1227 199.721 58.2113 199.852 58.258C199.992 58.2953 200.141 58.314 200.3 58.314H200.734V59H196.534V58.314H196.646C196.842 58.314 197.005 58.2953 197.136 58.258C197.276 58.2207 197.383 58.146 197.458 58.034C197.532 57.9127 197.57 57.7353 197.57 57.502V50.264L194.602 59H193.72L190.654 50.278V57.376C190.654 57.6467 190.696 57.852 190.78 57.992C190.864 58.1227 190.98 58.2113 191.13 58.258C191.288 58.2953 191.47 58.314 191.676 58.314H191.746V59H188.372ZM206.478 59.14C205.694 59.14 205.022 59.0327 204.462 58.818C203.902 58.6033 203.472 58.2627 203.174 57.796C202.875 57.3293 202.726 56.718 202.726 55.962V50.572C202.726 50.3107 202.684 50.1193 202.6 49.998C202.516 49.8673 202.408 49.7833 202.278 49.746C202.147 49.7087 202.002 49.69 201.844 49.69H201.41V49.004H205.946V49.69H205.512C205.353 49.69 205.204 49.7133 205.064 49.76C204.933 49.7973 204.826 49.8813 204.742 50.012C204.667 50.1427 204.63 50.348 204.63 50.628V56.06C204.63 56.592 204.723 57.0167 204.91 57.334C205.096 57.642 205.353 57.866 205.68 58.006C206.006 58.1367 206.384 58.202 206.814 58.202C207.28 58.202 207.672 58.1227 207.99 57.964C208.316 57.8053 208.559 57.5673 208.718 57.25C208.886 56.9327 208.97 56.55 208.97 56.102V50.572C208.97 50.3107 208.928 50.1193 208.844 49.998C208.76 49.8673 208.652 49.7833 208.522 49.746C208.391 49.7087 208.246 49.69 208.088 49.69H207.654V49.004H211.266V49.69H210.818C210.668 49.69 210.524 49.7133 210.384 49.76C210.244 49.7973 210.136 49.8813 210.062 50.012C209.987 50.1427 209.95 50.348 209.95 50.628V56.13C209.95 56.746 209.824 57.2827 209.572 57.74C209.32 58.188 208.937 58.5333 208.424 58.776C207.91 59.0187 207.262 59.14 206.478 59.14ZM211.942 59V58.314H212.376C212.535 58.314 212.679 58.2953 212.81 58.258C212.941 58.2207 213.048 58.1413 213.132 58.02C213.216 57.8893 213.258 57.698 213.258 57.446V50.572C213.258 50.3107 213.216 50.1193 213.132 49.998C213.048 49.8673 212.941 49.7833 212.81 49.746C212.679 49.7087 212.535 49.69 212.376 49.69H211.942V49.004H216.17C217.029 49.004 217.733 49.102 218.284 49.298C218.835 49.494 219.241 49.788 219.502 50.18C219.773 50.572 219.908 51.0573 219.908 51.636C219.908 52.1307 219.81 52.5507 219.614 52.896C219.427 53.2413 219.185 53.5213 218.886 53.736C218.587 53.9507 218.275 54.1187 217.948 54.24L219.712 57.18C219.833 57.376 219.95 57.5487 220.062 57.698C220.174 57.838 220.286 57.9547 220.398 58.048C220.51 58.1413 220.627 58.2113 220.748 58.258C220.869 58.2953 221 58.314 221.14 58.314H221.182V59H220.832C220.403 59 220.034 58.986 219.726 58.958C219.427 58.9207 219.171 58.86 218.956 58.776C218.751 58.6827 218.564 58.552 218.396 58.384C218.228 58.216 218.069 58.0013 217.92 57.74L216.17 54.632H215.162V57.446C215.162 57.698 215.199 57.8893 215.274 58.02C215.358 58.1413 215.465 58.2207 215.596 58.258C215.736 58.2953 215.885 58.314 216.044 58.314H216.478V59H211.942ZM216.016 53.876C216.492 53.876 216.865 53.8013 217.136 53.652C217.407 53.4933 217.598 53.26 217.71 52.952C217.822 52.6347 217.878 52.2427 217.878 51.776C217.878 51.2907 217.817 50.9033 217.696 50.614C217.575 50.3153 217.374 50.1007 217.094 49.97C216.823 49.8393 216.455 49.774 215.988 49.774H215.162V53.876H216.016ZM221.161 59V58.314H221.371C221.548 58.314 221.697 58.286 221.819 58.23C221.94 58.174 222.052 58.0713 222.155 57.922C222.257 57.7727 222.365 57.5533 222.477 57.264L225.543 49.004H227.139L230.163 57.404C230.247 57.6467 230.335 57.8333 230.429 57.964C230.531 58.0947 230.643 58.188 230.765 58.244C230.895 58.2907 231.04 58.314 231.199 58.314H231.423V59H227.097V58.314H227.559C227.745 58.314 227.904 58.2673 228.035 58.174C228.175 58.0807 228.245 57.9313 228.245 57.726C228.245 57.6607 228.235 57.5953 228.217 57.53C228.207 57.4553 228.193 57.39 228.175 57.334C228.165 57.2687 228.147 57.208 228.119 57.152L227.615 55.682H224.101L223.653 56.998C223.625 57.0727 223.597 57.152 223.569 57.236C223.55 57.32 223.531 57.404 223.513 57.488C223.503 57.572 223.499 57.6467 223.499 57.712C223.499 57.9173 223.569 58.0713 223.709 58.174C223.849 58.2673 224.026 58.314 224.241 58.314H224.717V59H221.161ZM224.381 54.898H227.335L226.551 52.532C226.476 52.2987 226.397 52.056 226.313 51.804C226.238 51.552 226.163 51.3047 226.089 51.062C226.023 50.8193 225.963 50.5907 225.907 50.376C225.869 50.5253 225.823 50.684 225.767 50.852C225.72 51.02 225.669 51.1927 225.613 51.37C225.566 51.5473 225.51 51.7293 225.445 51.916C225.389 52.0933 225.328 52.2707 225.263 52.448L224.381 54.898ZM232.722 59V58.314H233.212C233.38 58.314 233.529 58.2953 233.66 58.258C233.79 58.2113 233.893 58.1227 233.968 57.992C234.052 57.8613 234.094 57.6607 234.094 57.39V49.802H232.89C232.61 49.802 232.39 49.8487 232.232 49.942C232.073 50.026 231.956 50.1473 231.882 50.306C231.807 50.4647 231.756 50.6467 231.728 50.852L231.644 51.622H230.79L230.86 49.004H239.26L239.33 51.622H238.476L238.378 50.852C238.359 50.6467 238.308 50.4647 238.224 50.306C238.149 50.1473 238.032 50.026 237.874 49.942C237.715 49.8487 237.496 49.802 237.216 49.802H236.012V57.376C236.012 57.6467 236.049 57.852 236.124 57.992C236.198 58.1227 236.306 58.2113 236.446 58.258C236.586 58.2953 236.735 58.314 236.894 58.314H237.384V59H232.722Z" fill="#C8102E"/>
<g clip-path="url(#clip0_1_2)">
<path d="M31 29.6417V52.5667H35.3667V37.2833L48.8306 44.1972C48.8306 44.1972 55.0167 41.65 56.8361 39.4667C58.6556 37.2833 60.1111 35.4639 59.3834 29.6417C58.7417 24.5048 54.2889 22.3639 52.0085 22.0788C51.8327 22.057 41.1064 22 41.1064 22C40.8783 22 40.6524 22.0449 40.4417 22.1322C40.231 22.2195 40.0395 22.3475 39.8782 22.5087C39.7169 22.67 39.589 22.8615 39.5017 23.0723C39.4144 23.283 39.3694 23.5089 39.3694 23.737V27.8404C39.3694 28.2965 39.8328 28.869 40.1154 29.1747C40.2422 29.3124 40.3931 29.4258 40.5606 29.5095L43.7361 31.0972V26.5486H50.832C50.832 26.5486 54.4708 27.2764 55.1986 30.1875C55.8051 32.6134 54.6419 35.0394 54.238 35.7817C54.1591 35.926 54.6904 35.0624 53.9432 36.1735C52.8333 38.0111 50.8028 38.6625 49.8191 38.882C48.8354 39.1016 48.719 39.1246 48.2217 38.8602L31 29.6417Z" fill="#C8102E"/>
<path d="M67.3889 30.0056L63.0222 32.1889V52.5667H67.3889V30.0056Z" fill="#C8102E"/>
<path d="M39.3694 44.561V58.3889H51.0139C51.7417 58.3889 56.1084 57.6611 57.9278 54.3861C59.7473 51.1111 60.475 48.9277 57.5639 41.6499L53.7431 44.0152C53.7431 44.0152 55.5625 45.8346 55.1986 49.1097C54.8347 52.3847 52.8334 53.6583 51.9236 53.8403C51.0139 54.0222 43.5542 53.8403 43.5542 53.8403V47.2902L39.3694 44.561Z" fill="white"/>
<path d="M83.591 19H15.4094L15.0051 16.3385C14.9815 16.1829 15.0369 15.9788 15.2325 15.895C15.4327 15.8092 15.7031 15.9549 15.9399 15.9462C24.421 15.755 32.3424 11.9506 40.9262 12.9264C42.9734 13.1592 44.738 13.6649 46.2317 14.6324C46.4163 14.758 46.7875 15.0078 46.7875 15.0078C47.5628 15.5313 47.8661 14.7945 48.2023 14.1206C48.8598 12.659 49.3585 6 49.5 6C49.6415 6 50.1402 12.6589 50.7977 14.1206C51.1339 14.7945 51.4372 15.5313 52.2125 15.0078C52.2125 15.0078 52.5837 14.758 52.7683 14.6324C54.1653 13.5805 56.0699 13.1042 58.0738 12.9264C66.5441 12.1749 74.714 15.1658 83.0601 15.9462C83.2969 15.9549 83.5673 15.8092 83.7675 15.895C83.9631 15.9788 84.0185 16.1829 83.9949 16.3385L83.5907 19H83.591Z" fill="white" stroke="white"/>
<path d="M8.06242 40.4658L16.0624 18Z" fill="white"/>
<path d="M8.06242 40.4658L16.0624 18" stroke="white"/>
<path d="M23.7462 40.6469L15.4639 18.1812Z" fill="white"/>
<path d="M23.7462 40.6469L15.4639 18.1812" stroke="white"/>
<path fill-rule="evenodd" clip-rule="evenodd" d="M8 40C8.56022 43.6412 11.9285 46.4402 16 46.4402C20.0715 46.4402 23.4398 43.6412 24 40H8Z" fill="white"/>
<path d="M76.0624 40.4658L84.0624 18Z" fill="white"/>
<path d="M76.0624 40.4658L84.0624 18" stroke="white"/>
<path d="M91.7462 40.6469L83.4639 18.1812Z" fill="white"/>
<path d="M91.7462 40.6469L83.4639 18.1812" stroke="white"/>
<path fill-rule="evenodd" clip-rule="evenodd" d="M76 40C76.5602 43.6412 79.9285 46.4402 84 46.4402C88.0715 46.4402 91.4398 43.6412 92 40H76Z" fill="white"/>
<rect x="47" y="19" width="5" height="3" fill="white"/>
</g>
<defs>
<clipPath id="clip0_1_2">
<rect width="96" height="64" fill="white"/>
</clipPath>
</defs>
</svg>
