<svg width="240" height="60" viewBox="0 0 240 60" fill="none" xmlns="http://www.w3.org/2000/svg">
<g clip-path="url(#clip0_1_2)">
<rect width="240" height="60" rx="5" fill="#11172B"/>
<path d="M127.742 2.9375H130.719L135.102 15.4648L139.484 2.9375H142.461L136.297 20H133.906L127.742 2.9375ZM126.137 2.9375H129.102L129.641 15.1484V20H126.137V2.9375ZM141.102 2.9375H144.078V20H140.562V15.1484L141.102 2.9375ZM156.582 2.9375H160.086V14.2109C160.086 15.5234 159.805 16.6289 159.242 17.5273C158.688 18.4258 157.918 19.1016 156.934 19.5547C155.957 20.0078 154.832 20.2344 153.559 20.2344C152.285 20.2344 151.152 20.0078 150.16 19.5547C149.176 19.1016 148.402 18.4258 147.84 17.5273C147.285 16.6289 147.008 15.5234 147.008 14.2109V2.9375H150.523V14.2109C150.523 14.9766 150.645 15.6016 150.887 16.0859C151.129 16.5703 151.477 16.9258 151.93 17.1523C152.391 17.3789 152.934 17.4922 153.559 17.4922C154.199 17.4922 154.742 17.3789 155.188 17.1523C155.641 16.9258 155.984 16.5703 156.219 16.0859C156.461 15.6016 156.582 14.9766 156.582 14.2109V2.9375ZM162.98 2.9375H169.344C170.648 2.9375 171.77 3.13281 172.707 3.52344C173.652 3.91406 174.379 4.49219 174.887 5.25781C175.395 6.02344 175.648 6.96484 175.648 8.08203C175.648 8.99609 175.492 9.78125 175.18 10.4375C174.875 11.0859 174.441 11.6289 173.879 12.0664C173.324 12.4961 172.672 12.8398 171.922 13.0977L170.809 13.6836H165.277L165.254 10.9414H169.367C169.984 10.9414 170.496 10.832 170.902 10.6133C171.309 10.3945 171.613 10.0898 171.816 9.69922C172.027 9.30859 172.133 8.85547 172.133 8.33984C172.133 7.79297 172.031 7.32031 171.828 6.92188C171.625 6.52344 171.316 6.21875 170.902 6.00781C170.488 5.79688 169.969 5.69141 169.344 5.69141H166.496V20H162.98V2.9375ZM172.52 20L168.629 12.3945L172.344 12.3711L176.281 19.8359V20H172.52ZM185.293 5.85547L180.652 20H176.914L183.254 2.9375H185.633L185.293 5.85547ZM189.148 20L184.496 5.85547L184.121 2.9375H186.523L192.898 20H189.148ZM188.938 13.6484V16.4023H179.926V13.6484H188.938ZM200.656 2.9375V20H197.152V2.9375H200.656ZM205.906 2.9375V5.69141H191.984V2.9375H205.906Z" fill="white"/>
<path d="M110.801 30.3647V31.6216H106.719V30.3647H110.801ZM107.197 27.1797V35H105.586V27.1797H107.197ZM111.951 27.1797V35H110.345V27.1797H111.951ZM117.671 27.1797H119.277V32.3467C119.277 32.9482 119.148 33.4549 118.89 33.8667C118.636 34.2785 118.283 34.5882 117.832 34.7959C117.384 35.0036 116.869 35.1074 116.285 35.1074C115.701 35.1074 115.182 35.0036 114.728 34.7959C114.276 34.5882 113.922 34.2785 113.664 33.8667C113.41 33.4549 113.283 32.9482 113.283 32.3467V27.1797H114.894V32.3467C114.894 32.6976 114.95 32.984 115.061 33.2061C115.172 33.4281 115.331 33.591 115.539 33.6948C115.75 33.7987 115.999 33.8506 116.285 33.8506C116.579 33.8506 116.828 33.7987 117.032 33.6948C117.239 33.591 117.397 33.4281 117.504 33.2061C117.615 32.984 117.671 32.6976 117.671 32.3467V27.1797ZM122.215 27.1797V35H120.604V27.1797H122.215ZM126.898 27.1797L123.799 31.0415L122.011 32.9644L121.721 31.439L122.929 29.7847L124.922 27.1797H126.898ZM125.067 35L122.763 31.3853L123.955 30.3862L126.974 35H125.067ZM131.915 27.1797H133.521V32.3467C133.521 32.9482 133.392 33.4549 133.134 33.8667C132.88 34.2785 132.527 34.5882 132.076 34.7959C131.629 35.0036 131.113 35.1074 130.529 35.1074C129.946 35.1074 129.426 35.0036 128.972 34.7959C128.521 34.5882 128.166 34.2785 127.908 33.8667C127.654 33.4549 127.527 32.9482 127.527 32.3467V27.1797H129.138V32.3467C129.138 32.6976 129.194 32.984 129.305 33.2061C129.416 33.4281 129.575 33.591 129.783 33.6948C129.994 33.7987 130.243 33.8506 130.529 33.8506C130.823 33.8506 131.072 33.7987 131.276 33.6948C131.484 33.591 131.641 33.4281 131.749 33.2061C131.86 32.984 131.915 32.6976 131.915 32.3467V27.1797ZM136.459 27.1797V35H134.848V27.1797H136.459ZM141.143 27.1797L138.043 31.0415L136.255 32.9644L135.965 31.439L137.173 29.7847L139.166 27.1797H141.143ZM139.311 35L137.007 31.3853L138.199 30.3862L141.218 35H139.311ZM145.713 30.8159L147.217 29.8438C147.439 29.6969 147.588 29.5555 147.663 29.4194C147.738 29.2834 147.776 29.1312 147.776 28.9629C147.776 28.7946 147.713 28.6388 147.588 28.4956C147.463 28.3488 147.287 28.2754 147.062 28.2754C146.9 28.2754 146.764 28.313 146.653 28.3882C146.542 28.4598 146.458 28.5565 146.401 28.6782C146.347 28.8 146.32 28.936 146.32 29.0864C146.32 29.2476 146.363 29.4123 146.449 29.5806C146.535 29.7453 146.652 29.9207 146.798 30.1069C146.945 30.2896 147.108 30.4883 147.287 30.7031L150.977 35H149.221L146.213 31.5195C145.959 31.2044 145.737 30.9162 145.547 30.6548C145.357 30.3898 145.208 30.132 145.101 29.8813C144.994 29.6307 144.94 29.3729 144.94 29.1079C144.94 28.6997 145.028 28.3434 145.203 28.0391C145.379 27.7311 145.626 27.493 145.944 27.3247C146.263 27.1528 146.637 27.0669 147.067 27.0669C147.472 27.0669 147.822 27.151 148.12 27.3193C148.417 27.484 148.646 27.7025 148.807 27.9746C148.972 28.2467 149.054 28.5457 149.054 28.8716C149.054 29.1151 149.009 29.3407 148.92 29.5483C148.83 29.7524 148.707 29.9422 148.549 30.1177C148.392 30.2896 148.211 30.4489 148.007 30.5957L146.293 31.8149C146.161 31.9367 146.061 32.0566 145.993 32.1748C145.925 32.293 145.878 32.4058 145.853 32.5132C145.828 32.617 145.815 32.7173 145.815 32.814C145.815 33.0216 145.86 33.2078 145.95 33.3726C146.039 33.5373 146.165 33.6662 146.326 33.7593C146.487 33.8524 146.675 33.8989 146.89 33.8989C147.183 33.8989 147.468 33.8345 147.744 33.7056C148.019 33.5767 148.266 33.3923 148.485 33.1523C148.703 32.9089 148.877 32.6206 149.006 32.2876C149.135 31.9546 149.199 31.5876 149.199 31.1865H150.51C150.51 31.5876 150.47 31.9689 150.392 32.3306C150.313 32.6886 150.186 33.0216 150.01 33.3296C149.835 33.634 149.602 33.9043 149.312 34.1406C149.291 34.1585 149.26 34.1854 149.221 34.2212C149.185 34.2534 149.154 34.2785 149.129 34.2964C148.786 34.5721 148.428 34.778 148.055 34.9141C147.683 35.0465 147.267 35.1128 146.809 35.1128C146.286 35.1128 145.833 35.0179 145.45 34.8281C145.071 34.6383 144.777 34.377 144.569 34.0439C144.365 33.7109 144.263 33.3296 144.263 32.8999C144.263 32.5848 144.324 32.3109 144.446 32.0781C144.571 31.8418 144.743 31.6234 144.961 31.4229C145.18 31.2223 145.431 31.02 145.713 30.8159ZM156.96 35H155.258L155.269 33.7432H156.96C157.383 33.7432 157.739 33.6483 158.029 33.4585C158.319 33.2651 158.538 32.984 158.685 32.6152C158.835 32.2464 158.91 31.8006 158.91 31.2778V30.8965C158.91 30.4954 158.867 30.1427 158.781 29.8384C158.699 29.534 158.575 29.278 158.411 29.0703C158.246 28.8626 158.044 28.7069 157.804 28.603C157.564 28.4956 157.288 28.4419 156.977 28.4419H155.226V27.1797H156.977C157.499 27.1797 157.977 27.2692 158.411 27.4482C158.847 27.6237 159.225 27.8761 159.544 28.2056C159.863 28.535 160.108 28.9289 160.28 29.3872C160.455 29.842 160.543 30.3486 160.543 30.9072V31.2778C160.543 31.8328 160.455 32.3395 160.28 32.7979C160.108 33.2562 159.863 33.6501 159.544 33.9795C159.229 34.3053 158.851 34.5578 158.411 34.7368C157.974 34.9123 157.49 35 156.96 35ZM156.171 27.1797V35H154.56V27.1797H156.171ZM164.775 28.5171L162.648 35H160.935L163.841 27.1797H164.931L164.775 28.5171ZM166.542 35L164.41 28.5171L164.238 27.1797H165.339L168.261 35H166.542ZM166.446 32.0889V33.3511H162.315V32.0889H166.446ZM175.351 27.1797V35H173.74L170.598 29.7578V35H168.986V27.1797H170.598L173.745 32.4272V27.1797H175.351ZM178.466 27.1797V35H176.86V27.1797H178.466ZM184.047 32.9536C184.047 32.814 184.025 32.6886 183.982 32.5776C183.943 32.4631 183.868 32.3592 183.757 32.2661C183.646 32.1694 183.49 32.0745 183.29 31.9814C183.089 31.8883 182.829 31.7917 182.511 31.6914C182.156 31.5768 181.82 31.4479 181.501 31.3047C181.186 31.1615 180.907 30.995 180.663 30.8052C180.423 30.6118 180.233 30.388 180.094 30.1338C179.958 29.8796 179.89 29.5841 179.89 29.2476C179.89 28.9217 179.961 28.6263 180.104 28.3613C180.248 28.0928 180.448 27.8636 180.706 27.6738C180.964 27.4805 181.268 27.3319 181.619 27.228C181.974 27.1242 182.362 27.0723 182.785 27.0723C183.361 27.0723 183.864 27.1761 184.294 27.3838C184.724 27.5915 185.057 27.8761 185.293 28.2378C185.533 28.5994 185.653 29.013 185.653 29.4785H184.052C184.052 29.2493 184.004 29.0488 183.907 28.877C183.814 28.7015 183.671 28.5636 183.478 28.4634C183.288 28.3631 183.048 28.313 182.758 28.313C182.479 28.313 182.246 28.356 182.06 28.4419C181.873 28.5243 181.734 28.637 181.641 28.7803C181.548 28.9199 181.501 29.0775 181.501 29.2529C181.501 29.3854 181.533 29.5054 181.598 29.6128C181.666 29.7202 181.766 29.8205 181.898 29.9136C182.031 30.0067 182.194 30.0944 182.387 30.1768C182.581 30.2591 182.804 30.3397 183.059 30.4185C183.485 30.5474 183.859 30.6924 184.181 30.8535C184.507 31.0146 184.779 31.1955 184.998 31.396C185.216 31.5965 185.381 31.8239 185.492 32.0781C185.603 32.3324 185.658 32.6206 185.658 32.9429C185.658 33.283 185.592 33.5874 185.459 33.856C185.327 34.1245 185.135 34.3519 184.885 34.5381C184.634 34.7243 184.335 34.8657 183.988 34.9624C183.64 35.0591 183.252 35.1074 182.822 35.1074C182.436 35.1074 182.054 35.0573 181.678 34.957C181.302 34.8532 180.96 34.6974 180.652 34.4897C180.348 34.2821 180.104 34.0171 179.922 33.6948C179.739 33.3726 179.648 32.9912 179.648 32.5508H181.265C181.265 32.7943 181.302 33.0002 181.377 33.1685C181.453 33.3368 181.558 33.4728 181.694 33.5767C181.834 33.6805 181.999 33.7557 182.188 33.8022C182.382 33.8488 182.593 33.8721 182.822 33.8721C183.102 33.8721 183.331 33.8327 183.51 33.7539C183.692 33.6751 183.827 33.5659 183.913 33.4263C184.002 33.2866 184.047 33.1291 184.047 32.9536ZM182.21 34.9624H183.375L183.316 35.2793C183.521 35.3151 183.707 35.401 183.875 35.5371C184.043 35.6732 184.127 35.897 184.127 36.2085C184.127 36.3983 184.086 36.5701 184.004 36.7241C183.925 36.8781 183.807 37.0106 183.649 37.1216C183.492 37.2362 183.295 37.3221 183.059 37.3794C182.822 37.4403 182.55 37.4707 182.242 37.4707L182.205 36.6113C182.319 36.6113 182.423 36.5952 182.516 36.563C182.609 36.5308 182.683 36.4806 182.736 36.4126C182.79 36.3481 182.817 36.2622 182.817 36.1548C182.817 36.0545 182.79 35.9757 182.736 35.9185C182.683 35.8612 182.598 35.8182 182.484 35.7896C182.373 35.7609 182.226 35.7412 182.043 35.7305L182.21 34.9624ZM187.49 27.1797H188.854L190.863 32.9214L192.872 27.1797H194.236L191.411 35H190.315L187.49 27.1797ZM186.754 27.1797H188.113L188.36 32.7764V35H186.754V27.1797ZM193.613 27.1797H194.977V35H193.366V32.7764L193.613 27.1797ZM199.666 28.5171L197.539 35H195.826L198.731 27.1797H199.822L199.666 28.5171ZM201.433 35L199.301 28.5171L199.129 27.1797H200.23L203.152 35H201.433ZM201.336 32.0889V33.3511H197.206V32.0889H201.336ZM210.242 27.1797V35H208.63L205.488 29.7578V35H203.877V27.1797H205.488L208.636 32.4272V27.1797H210.242ZM216.671 33.7432V35H212.734V33.7432H216.671ZM213.255 27.1797V35H211.644V27.1797H213.255ZM219.308 27.1797V35H217.702V27.1797H219.308ZM222.429 27.1797V35H220.817V27.1797H222.429ZM227.112 27.1797L224.013 31.0415L222.225 32.9644L221.935 31.439L223.143 29.7847L225.136 27.1797H227.112ZM225.281 35L222.977 31.3853L224.169 30.3862L227.188 35H225.281Z" fill="white"/>
<path d="M104.293 45.1387L101.866 53H99.2891L102.946 43.0469H104.58L104.293 45.1387ZM106.303 53L103.869 45.1387L103.555 43.0469H105.209L108.887 53H106.303ZM106.207 49.2881V51.1406H101.101V49.2881H106.207ZM111.833 51.4209L113.289 45.6035H115.716L113.296 53H111.86L111.833 51.4209ZM110.972 45.6035L112.407 51.4209L112.394 53H110.951L108.538 45.6035H110.972ZM115.401 51.9199C115.401 51.5918 115.52 51.3184 115.757 51.0996C115.994 50.8763 116.299 50.7646 116.673 50.7646C117.051 50.7646 117.356 50.8763 117.589 51.0996C117.826 51.3184 117.944 51.5918 117.944 51.9199C117.944 52.248 117.826 52.5238 117.589 52.7471C117.356 52.9658 117.051 53.0752 116.673 53.0752C116.299 53.0752 115.994 52.9658 115.757 52.7471C115.52 52.5238 115.401 52.248 115.401 51.9199ZM127.146 48.7686H124.582L124.568 47.1963H126.646C127.02 47.1963 127.319 47.1553 127.542 47.0732C127.765 46.9867 127.927 46.8613 128.027 46.6973C128.132 46.5332 128.185 46.3281 128.185 46.082C128.185 45.7995 128.132 45.5716 128.027 45.3984C127.923 45.2253 127.756 45.0999 127.528 45.0225C127.305 44.9404 127.016 44.8994 126.66 44.8994H125.484V53H123.085V43.0469H126.66C127.275 43.0469 127.825 43.1038 128.308 43.2178C128.791 43.3271 129.201 43.4958 129.538 43.7236C129.88 43.9515 130.14 44.2386 130.317 44.585C130.495 44.9268 130.584 45.3301 130.584 45.7949C130.584 46.2005 130.497 46.5811 130.324 46.9365C130.151 47.292 129.862 47.5814 129.456 47.8047C129.055 48.0234 128.506 48.1374 127.809 48.1465L127.146 48.7686ZM127.05 53H124.001L124.821 51.1543H127.05C127.378 51.1543 127.64 51.1042 127.836 51.0039C128.036 50.8991 128.18 50.7624 128.267 50.5938C128.358 50.4206 128.403 50.2292 128.403 50.0195C128.403 49.7643 128.36 49.5433 128.273 49.3564C128.191 49.1696 128.059 49.026 127.877 48.9258C127.695 48.821 127.451 48.7686 127.146 48.7686H125.129L125.143 47.1963H127.556L128.116 47.8252C128.782 47.7979 129.308 47.8913 129.695 48.1055C130.087 48.3197 130.368 48.6022 130.536 48.9531C130.705 49.304 130.789 49.6709 130.789 50.0537C130.789 50.7054 130.648 51.25 130.365 51.6875C130.087 52.125 129.67 52.4531 129.114 52.6719C128.558 52.8906 127.87 53 127.05 53ZM135.595 53.1367C134.993 53.1367 134.455 53.0433 133.981 52.8564C133.507 52.665 133.106 52.403 132.778 52.0703C132.455 51.7376 132.206 51.3548 132.033 50.9219C131.865 50.4889 131.78 50.0309 131.78 49.5479V49.2881C131.78 48.7458 131.855 48.2445 132.006 47.7842C132.156 47.3193 132.38 46.9137 132.676 46.5674C132.972 46.221 133.343 45.9521 133.79 45.7607C134.237 45.5648 134.756 45.4668 135.349 45.4668C135.873 45.4668 136.342 45.5511 136.757 45.7197C137.172 45.8883 137.522 46.1299 137.81 46.4443C138.101 46.7588 138.322 47.1393 138.473 47.5859C138.628 48.0326 138.705 48.5339 138.705 49.0898V50.0264H132.662V48.584H136.456V48.4062C136.461 48.1602 136.417 47.9505 136.326 47.7773C136.24 47.6042 136.112 47.472 135.943 47.3809C135.775 47.2897 135.57 47.2441 135.328 47.2441C135.077 47.2441 134.87 47.2988 134.706 47.4082C134.547 47.5176 134.421 47.668 134.33 47.8594C134.243 48.0462 134.182 48.2627 134.146 48.5088C134.109 48.7549 134.091 49.0146 134.091 49.2881V49.5479C134.091 49.8213 134.127 50.0697 134.2 50.293C134.278 50.5163 134.387 50.7077 134.528 50.8672C134.674 51.0221 134.847 51.1429 135.048 51.2295C135.253 51.3161 135.485 51.3594 135.745 51.3594C136.06 51.3594 136.369 51.3001 136.675 51.1816C136.98 51.0632 137.242 50.8672 137.461 50.5938L138.507 51.8379C138.356 52.0521 138.142 52.2594 137.864 52.46C137.591 52.6605 137.263 52.8245 136.88 52.9521C136.497 53.0752 136.069 53.1367 135.595 53.1367ZM141.815 52.1318L143.729 45.6035H146.204L143.23 54.1006C143.167 54.2874 143.082 54.488 142.978 54.7021C142.873 54.9209 142.729 55.1283 142.547 55.3242C142.365 55.5202 142.13 55.6797 141.843 55.8027C141.56 55.9258 141.209 55.9873 140.79 55.9873C140.567 55.9873 140.403 55.9759 140.298 55.9531C140.198 55.9349 140.043 55.9007 139.833 55.8506V54.2031C139.892 54.2031 139.942 54.2031 139.983 54.2031C140.029 54.2031 140.079 54.2031 140.134 54.2031C140.38 54.2031 140.576 54.1781 140.722 54.1279C140.872 54.0778 140.986 54.0049 141.063 53.9092C141.146 53.8135 141.209 53.6973 141.255 53.5605L141.815 52.1318ZM141.33 45.6035L142.786 50.7783L143.039 53.2188H141.494L138.862 45.6035H141.33ZM150.702 45.6035V47.2031H146.245V45.6035H150.702ZM147.182 43.7646H149.485V50.5869C149.485 50.7829 149.508 50.9355 149.554 51.0449C149.599 51.1497 149.677 51.2249 149.786 51.2705C149.9 51.3115 150.05 51.332 150.237 51.332C150.369 51.332 150.479 51.3298 150.565 51.3252C150.652 51.3161 150.734 51.3047 150.812 51.291V52.9385C150.616 53.0023 150.41 53.0501 150.196 53.082C149.982 53.1185 149.754 53.1367 149.513 53.1367C149.021 53.1367 148.599 53.0592 148.248 52.9043C147.902 52.7493 147.637 52.5055 147.455 52.1729C147.273 51.8402 147.182 51.4072 147.182 50.874V43.7646ZM155.938 51.2021V45.6035H158.249V53H156.089L155.938 51.2021ZM156.157 49.6982L156.759 49.6846C156.759 50.1813 156.7 50.6416 156.581 51.0654C156.463 51.4847 156.287 51.8493 156.055 52.1592C155.827 52.4691 155.544 52.7106 155.207 52.8838C154.874 53.0524 154.489 53.1367 154.052 53.1367C153.687 53.1367 153.352 53.0866 153.047 52.9863C152.746 52.8815 152.486 52.7197 152.268 52.501C152.049 52.2777 151.878 51.9928 151.755 51.6465C151.636 51.2956 151.577 50.8763 151.577 50.3887V45.6035H153.881V50.4023C153.881 50.5664 153.901 50.7077 153.942 50.8262C153.983 50.9447 154.043 51.0449 154.12 51.127C154.198 51.2044 154.293 51.2637 154.407 51.3047C154.526 51.3411 154.66 51.3594 154.811 51.3594C155.157 51.3594 155.428 51.2865 155.624 51.1406C155.82 50.9948 155.957 50.7965 156.034 50.5459C156.116 50.2952 156.157 50.0127 156.157 49.6982ZM161.954 42.5V53H159.644V42.5H161.954ZM165.81 42.5V53H163.499V42.5H165.81ZM171.073 51.1406V48.0918C171.073 47.8822 171.044 47.7021 170.984 47.5518C170.925 47.4014 170.832 47.2852 170.704 47.2031C170.576 47.1165 170.406 47.0732 170.191 47.0732C170.018 47.0732 169.87 47.1029 169.747 47.1621C169.624 47.2214 169.531 47.3102 169.467 47.4287C169.403 47.5472 169.371 47.6976 169.371 47.8799H167.067C167.067 47.5381 167.143 47.2214 167.293 46.9297C167.448 46.6335 167.667 46.376 167.949 46.1572C168.236 45.9385 168.578 45.7699 168.975 45.6514C169.376 45.5283 169.822 45.4668 170.314 45.4668C170.902 45.4668 171.426 45.5648 171.887 45.7607C172.352 45.9567 172.718 46.2507 172.987 46.6426C173.256 47.0299 173.391 47.5176 173.391 48.1055V51.1338C173.391 51.6169 173.418 51.9837 173.473 52.2344C173.527 52.4805 173.605 52.6969 173.705 52.8838V53H171.395C171.285 52.7721 171.203 52.4941 171.148 52.166C171.098 51.8333 171.073 51.4915 171.073 51.1406ZM171.354 48.4814L171.367 49.7119H170.349C170.134 49.7119 169.952 49.7415 169.802 49.8008C169.656 49.86 169.537 49.9421 169.446 50.0469C169.36 50.1471 169.296 50.2611 169.255 50.3887C169.218 50.5163 169.2 50.6507 169.2 50.792C169.2 50.9287 169.232 51.0518 169.296 51.1611C169.364 51.266 169.455 51.348 169.569 51.4072C169.683 51.4665 169.811 51.4961 169.952 51.4961C170.207 51.4961 170.424 51.4482 170.602 51.3525C170.784 51.2523 170.923 51.1315 171.019 50.9902C171.114 50.849 171.162 50.7168 171.162 50.5938L171.668 51.5371C171.577 51.7194 171.472 51.904 171.354 52.0908C171.24 52.2777 171.096 52.4508 170.923 52.6104C170.754 52.7653 170.547 52.8929 170.301 52.9932C170.055 53.0889 169.756 53.1367 169.405 53.1367C168.95 53.1367 168.53 53.0433 168.147 52.8564C167.769 52.6696 167.466 52.4098 167.238 52.0771C167.01 51.7399 166.896 51.3525 166.896 50.915C166.896 50.5322 166.965 50.1904 167.102 49.8896C167.243 49.5889 167.455 49.3337 167.737 49.124C168.02 48.9144 168.38 48.7549 168.817 48.6455C169.255 48.5361 169.77 48.4814 170.362 48.4814H171.354ZM176.925 42.5V53H174.621V42.5H176.925ZM176.651 49.0488L176.111 49.0625C176.111 48.543 176.175 48.0645 176.303 47.627C176.43 47.1895 176.613 46.8089 176.85 46.4854C177.087 46.1618 177.371 45.9111 177.704 45.7334C178.037 45.5557 178.406 45.4668 178.812 45.4668C179.176 45.4668 179.509 45.5192 179.81 45.624C180.115 45.7288 180.377 45.8975 180.596 46.1299C180.819 46.3623 180.99 46.6654 181.108 47.0391C181.231 47.4128 181.293 47.8685 181.293 48.4062V53H178.976V48.3926C178.976 48.0918 178.932 47.8594 178.846 47.6953C178.764 47.5267 178.645 47.4105 178.49 47.3467C178.335 47.2783 178.146 47.2441 177.923 47.2441C177.654 47.2441 177.435 47.2897 177.267 47.3809C177.098 47.472 176.968 47.5996 176.877 47.7637C176.79 47.9232 176.731 48.1123 176.699 48.3311C176.667 48.5498 176.651 48.7891 176.651 49.0488ZM187.356 43.0469H189.312L191.533 49.9717L193.755 43.0469H195.71L192.326 53H190.74L187.356 43.0469ZM186.167 43.0469H188.19L188.566 50.6758V53H186.167V43.0469ZM194.876 43.0469H196.906V53H194.5V50.6758L194.876 43.0469ZM203.845 43.0469H206.244V49.5479C206.244 50.3226 206.082 50.9788 205.759 51.5166C205.435 52.0498 204.982 52.4531 204.398 52.7266C203.815 53 203.129 53.1367 202.341 53.1367C201.562 53.1367 200.876 53 200.283 52.7266C199.695 52.4531 199.235 52.0498 198.902 51.5166C198.574 50.9788 198.41 50.3226 198.41 49.5479V43.0469H200.816V49.5479C200.816 49.958 200.876 50.293 200.994 50.5527C201.113 50.8079 201.286 50.9948 201.514 51.1133C201.742 51.2318 202.017 51.291 202.341 51.291C202.669 51.291 202.945 51.2318 203.168 51.1133C203.391 50.9948 203.56 50.8079 203.674 50.5527C203.788 50.293 203.845 49.958 203.845 49.5479V43.0469ZM207.755 43.0469H211.672C212.438 43.0469 213.103 43.1608 213.668 43.3887C214.233 43.6165 214.668 43.9538 214.974 44.4004C215.284 44.847 215.438 45.3984 215.438 46.0547C215.438 46.6243 215.35 47.1006 215.172 47.4834C214.994 47.8662 214.746 48.1829 214.427 48.4336C214.112 48.6797 213.745 48.8825 213.326 49.042L212.54 49.4863H209.252L209.238 47.6338H211.672C211.977 47.6338 212.23 47.5791 212.431 47.4697C212.631 47.3604 212.782 47.2054 212.882 47.0049C212.987 46.7998 213.039 46.556 213.039 46.2734C213.039 45.9863 212.987 45.7402 212.882 45.5352C212.777 45.3301 212.622 45.1729 212.417 45.0635C212.216 44.9541 211.968 44.8994 211.672 44.8994H210.154V53H207.755V43.0469ZM213.203 53L211.002 48.5977L213.545 48.584L215.773 52.8975V53H213.203ZM221.105 45.1387L218.679 53H216.102L219.759 43.0469H221.393L221.105 45.1387ZM223.115 53L220.682 45.1387L220.367 43.0469H222.021L225.699 53H223.115ZM223.02 49.2881V51.1406H217.913V49.2881H223.02ZM230.43 43.0469V53H228.03V43.0469H230.43ZM233.424 43.0469V44.8994H225.104V43.0469H233.424Z" fill="#C8102E"/>
<g clip-path="url(#clip1_1_2)">
<path d="M83.591 19H15.4094L15.0051 16.3385C14.9815 16.1829 15.0369 15.9788 15.2325 15.895C15.4327 15.8092 15.7031 15.9549 15.9399 15.9462C24.421 15.755 32.3424 11.9506 40.9262 12.9264C42.9734 13.1592 44.738 13.6649 46.2317 14.6324C46.4163 14.758 46.7875 15.0078 46.7875 15.0078C47.5628 15.5313 47.8661 14.7945 48.2023 14.1206C48.8598 12.659 49.3585 6 49.5 6C49.6415 6 50.1402 12.6589 50.7977 14.1206C51.1339 14.7945 51.4372 15.5313 52.2125 15.0078C52.2125 15.0078 52.5837 14.758 52.7683 14.6324C54.1653 13.5805 56.0699 13.1042 58.0738 12.9264C66.5441 12.1749 74.714 15.1658 83.0601 15.9462C83.2969 15.9549 83.5673 15.8092 83.7675 15.895C83.9632 15.9788 84.0185 16.1829 83.9949 16.3385L83.5907 19H83.591Z" fill="white" stroke="white"/>
<path d="M8.06242 40.4658L16.0624 18L8.06242 40.4658Z" fill="white"/>
<path d="M8.06242 40.4658L16.0624 18" stroke="white"/>
<path d="M23.7462 40.6469L15.4639 18.1812L23.7462 40.6469Z" fill="white"/>
<path d="M23.7462 40.6469L15.4639 18.1812" stroke="white"/>
<path fill-rule="evenodd" clip-rule="evenodd" d="M8 40C8.56022 43.6412 11.9285 46.4402 16 46.4402C20.0715 46.4402 23.4398 43.6412 24 40H8Z" fill="white"/>
<path d="M76.0624 40.4658L84.0624 18L76.0624 40.4658Z" fill="white"/>
<path d="M76.0624 40.4658L84.0624 18" stroke="white"/>
<path d="M91.7462 40.6469L83.4639 18.1812L91.7462 40.6469Z" fill="white"/>
<path d="M91.7462 40.6469L83.4639 18.1812" stroke="white"/>
<path fill-rule="evenodd" clip-rule="evenodd" d="M76 40C76.5602 43.6412 79.9285 46.4402 84 46.4402C88.0715 46.4402 91.4398 43.6412 92 40H76Z" fill="white"/>
<rect x="47" y="19" width="5" height="3" fill="white"/>
<path fill-rule="evenodd" clip-rule="evenodd" d="M39.3959 58.5038V47.5527V44.6324V41.7121L43.5938 43.8246V45.7508L43.5938 47.3701V53.9408C43.5938 53.9408 51.0771 54.1234 51.9897 53.9408C52.9023 53.7583 54.91 52.4807 55.275 49.1953C55.6401 45.91 53.8149 44.0848 53.8149 44.0848L57.6478 41.7121C60.5681 49.0128 59.838 51.203 58.0128 54.4884C56.1876 57.7737 51.8072 58.5038 51.0771 58.5038H39.3959Z" fill="white"/>
<path fill-rule="evenodd" clip-rule="evenodd" d="M31 52.6632V29.6658L48.276 38.9134C48.7749 39.1787 48.8917 39.1556 49.8785 38.9353C50.8654 38.7151 52.9023 38.0617 54.0156 36.2182C54.2353 35.8915 54.3449 35.735 54.3919 35.6734C54.8501 34.7886 55.8469 32.501 55.275 30.2134C54.5449 27.2931 50.8946 26.563 50.8946 26.563H43.7763L43.7763 27.5972V33.4379L39.3959 31.3253V29.3991V27.8614C39.3959 27.8606 39.3959 27.8597 39.3959 27.8589V23.7424C39.3959 23.5136 39.4409 23.287 39.5285 23.0756C39.6161 22.8642 39.7444 22.6722 39.9062 22.5104C40.068 22.3486 40.2601 22.2202 40.4715 22.1326C40.6829 22.0451 40.9095 22 41.1383 22C41.1383 22 51.8984 22.0572 52.0749 22.0791C54.3624 22.365 58.8293 24.5127 59.473 29.6658C60.203 35.5064 58.7429 37.3316 56.9177 39.5218C55.0925 41.7121 48.8869 44.2673 48.8869 44.2673L35.3805 37.3316V52.6632H31Z" fill="#C8102E"/>
<path fill-rule="evenodd" clip-rule="evenodd" d="M63.6101 37.3365L63.6195 37.3316V52.6632H68V29.6658L63.6101 32.0157V37.3365Z" fill="#C8102E"/>
</g>
</g>
<defs>
<clipPath id="clip0_1_2">
<rect width="240" height="60" rx="5" fill="white"/>
</clipPath>
<clipPath id="clip1_1_2">
<rect width="96" height="64" fill="white"/>
</clipPath>
</defs>
</svg>
