<svg width="124" height="124" viewBox="0 0 124 124" fill="none" xmlns="http://www.w3.org/2000/svg">
<g clip-path="url(#clip0_4_15)">
<mask id="path-1-inside-1_4_15" fill="white">
<path fill-rule="evenodd" clip-rule="evenodd" d="M77.3569 0.595002C70.4402 1.85825 64.8843 4.41141 64.8843 6.32721C64.8843 8.15125 66.6492 8.59269 69.0656 7.37284C91.9439 -4.17621 119.854 14.2725 118.578 40.1005C117.336 65.2257 90.9048 80.7287 68.4503 69.5027C65.2966 67.9261 65.4405 67.9208 58.171 69.8766C54.6785 70.8162 51.6541 71.585 51.4502 71.585C50.859 71.585 50.9845 70.8649 52.6551 64.6825C54.5905 57.5194 54.5973 57.3262 53.0265 54.0843C46.3321 40.2682 48.9841 24.6405 59.8447 13.9018C62.9744 10.8073 63.357 9.99513 62.2202 8.85836C60.9861 7.62425 59.074 8.68879 55.5663 12.5613C44.9268 24.3084 42.5042 40.9384 49.3208 55.4306L50.4374 57.8039L48.9023 63.5439C46.7645 71.5379 46.7168 72.059 47.9608 73.8064C49.4414 75.8856 50.9957 75.8841 58.7073 73.7971L64.7609 72.1591L67.1839 73.2974C97.1352 87.3696 129.755 60.3487 121.203 28.5502C116.078 9.4951 96.6048 -2.92071 77.3569 0.595002ZM61.74 20.1889C59.9507 21.6381 61.4824 23.6317 64.3852 23.6317H66.2812L64.8846 26.8408C60.951 35.8795 60.7774 38.9457 64.0151 42.1781C67.8504 46.0072 73.9255 45.0149 76.3106 40.1696C77.7701 37.2054 77.315 34.6342 73.9524 26.8362C73.2274 25.1554 72.6343 23.7467 72.6343 23.7058C72.6343 23.6652 74.7594 23.6317 77.3569 23.6317H82.0797V36.71V49.788H78.2469C73.8607 49.788 73.361 49.9923 73.361 51.7841C73.361 53.6673 73.3359 53.663 84.0606 53.663H93.4843L94.0789 53.0687C94.8142 52.3331 94.8508 51.2899 94.1713 50.4263L93.6694 49.788H89.8121H85.9547V36.71V23.6317H90.703C94.4097 23.6317 95.4234 23.6984 95.322 23.9346C95.2507 24.1011 94.5978 25.5996 93.8709 27.2646C90.7789 34.3478 90.2442 37.3784 91.5986 40.1467C94.5569 46.1929 103.428 45.7735 105.805 39.4755C106.783 36.8839 106.148 33.8558 103.191 27.0225L101.777 23.7529L103.775 23.6268C106.627 23.447 107.855 21.7981 106.298 20.2412C105.581 19.5242 62.6235 19.4737 61.74 20.1889ZM71.3066 30.7552C73.0327 34.9972 73.4304 36.5212 73.1158 37.6896C72.2143 41.0376 68.1446 41.6089 66.1615 38.6664C65.1698 37.1948 65.4926 35.6393 68.0851 29.3943C69.5709 25.8147 69.2395 25.6746 71.3066 30.7552ZM100.11 29.868C102.637 35.9933 102.876 37.5423 101.537 39.1333C99.3815 41.6954 95.3998 40.6768 94.7941 37.4084C94.5721 36.2118 97.9415 26.5426 98.5813 26.5389C98.6663 26.5386 99.3539 28.0365 100.11 29.868ZM11.5897 41.9986C6.60523 45.1792 4.67734 50.5434 7.2305 54.1289L7.71162 54.8047L7.08821 55.3844C-2.2927 64.1025 1.34205 80.8751 16.3461 98.1045C36.8318 121.628 58.4369 130.301 70.1153 119.688L71.5276 118.404L72.6176 119.095C75.9349 121.199 78.5073 120.676 82.1454 117.157C86.1336 113.301 86.2781 111.718 82.9428 108.413L81.3921 106.876L82.5748 105.455C84.3979 103.264 84.8607 101.235 84.1161 98.6932C83.6784 97.1994 74.0002 87.0822 72.036 86.0654C69.628 84.8186 66.5084 85.3313 64.317 87.3342L63.0287 88.5116L61.3531 86.8116C57.8479 83.2556 56.2983 83.3513 52.3885 87.3658C49.0818 90.7613 48.4122 93.7246 50.2746 96.7207L51.0382 97.9489L49.6236 99.2984C47.5637 101.263 47.2342 101.212 44.4473 98.4958C41.6452 95.7647 40.2892 95.4007 39.486 97.1634C38.9559 98.3268 39.1621 98.7264 41.541 101.148C45.7527 105.435 48.6245 105.701 52.5305 102.166L54.0266 100.812L61.4064 108.177L68.7866 115.542L67.5013 116.711C58.3653 125.021 41.134 118.474 23.4463 99.9732C6.57392 82.3252 1.51968 67.3448 9.49568 58.6264L10.5131 57.5141L17.8802 64.8946L25.2474 72.2751L23.9563 73.6859C22.2993 75.4963 21.6917 76.8503 21.6874 78.7407C21.6818 81.1789 22.0801 81.7149 29.1044 88.7196C36.1188 95.7148 36.297 95.8347 37.6493 94.4825C38.9962 93.1356 38.8626 92.9347 32.0807 86.1268C24.6001 78.6173 24.5639 78.5448 27.0829 76.0849L28.0157 75.1742L29.0009 75.8878C32.1266 78.152 35.3732 77.559 39.0102 74.0594C42.8089 70.4039 42.9332 68.5817 39.6066 65.3078L38.0272 63.7535L39.2048 62.4648C41.2081 60.2731 41.7208 57.1539 40.4743 54.7458C39.4572 52.7813 29.34 43.1031 27.8461 42.6654C25.2173 41.8957 23.1118 42.4019 21.1235 44.2824L19.8171 45.518L17.9503 43.6698C15.3097 41.055 13.7219 40.638 11.5897 41.9986ZM36.5447 70.9941C32.8526 74.7454 33.7461 75.2427 20.771 62.2159C7.9528 49.3468 8.65248 50.5304 11.8966 47.2066L13.8856 45.169L26.0004 57.2838L38.1152 69.3986L36.5447 70.9941ZM26.6951 46.4232C27.9373 47.0522 37.0299 56.4288 37.1815 57.237C37.3693 58.2389 36.9741 59.2024 35.9805 60.1655L35.2031 60.9191L28.9203 54.6326L22.6375 48.3465L23.4776 47.4689C24.7021 46.1895 25.6352 45.8863 26.6951 46.4232ZM69.3139 100.355L81.3708 112.413L79.4683 114.265C76.0322 117.609 76.9694 118.145 64.4435 105.658C51.3708 92.6247 51.904 93.5079 55.1178 90.2054C56.1398 89.1552 57.0392 88.2958 57.1167 88.2958C57.1938 88.2958 62.6827 93.7224 69.3139 100.355ZM75.0006 94.1688C81.3168 100.444 81.5347 100.879 79.4085 102.955L78.4369 103.904L72.1517 97.6219L65.8664 91.34L66.4046 90.7545C68.737 88.2168 69.1912 88.3972 75.0006 94.1688Z"/>
</mask>
<path fill-rule="evenodd" clip-rule="evenodd" d="M77.3569 0.595002C70.4402 1.85825 64.8843 4.41141 64.8843 6.32721C64.8843 8.15125 66.6492 8.59269 69.0656 7.37284C91.9439 -4.17621 119.854 14.2725 118.578 40.1005C117.336 65.2257 90.9048 80.7287 68.4503 69.5027C65.2966 67.9261 65.4405 67.9208 58.171 69.8766C54.6785 70.8162 51.6541 71.585 51.4502 71.585C50.859 71.585 50.9845 70.8649 52.6551 64.6825C54.5905 57.5194 54.5973 57.3262 53.0265 54.0843C46.3321 40.2682 48.9841 24.6405 59.8447 13.9018C62.9744 10.8073 63.357 9.99513 62.2202 8.85836C60.9861 7.62425 59.074 8.68879 55.5663 12.5613C44.9268 24.3084 42.5042 40.9384 49.3208 55.4306L50.4374 57.8039L48.9023 63.5439C46.7645 71.5379 46.7168 72.059 47.9608 73.8064C49.4414 75.8856 50.9957 75.8841 58.7073 73.7971L64.7609 72.1591L67.1839 73.2974C97.1352 87.3696 129.755 60.3487 121.203 28.5502C116.078 9.4951 96.6048 -2.92071 77.3569 0.595002ZM61.74 20.1889C59.9507 21.6381 61.4824 23.6317 64.3852 23.6317H66.2812L64.8846 26.8408C60.951 35.8795 60.7774 38.9457 64.0151 42.1781C67.8504 46.0072 73.9255 45.0149 76.3106 40.1696C77.7701 37.2054 77.315 34.6342 73.9524 26.8362C73.2274 25.1554 72.6343 23.7467 72.6343 23.7058C72.6343 23.6652 74.7594 23.6317 77.3569 23.6317H82.0797V36.71V49.788H78.2469C73.8607 49.788 73.361 49.9923 73.361 51.7841C73.361 53.6673 73.3359 53.663 84.0606 53.663H93.4843L94.0789 53.0687C94.8142 52.3331 94.8508 51.2899 94.1713 50.4263L93.6694 49.788H89.8121H85.9547V36.71V23.6317H90.703C94.4097 23.6317 95.4234 23.6984 95.322 23.9346C95.2507 24.1011 94.5978 25.5996 93.8709 27.2646C90.7789 34.3478 90.2442 37.3784 91.5986 40.1467C94.5569 46.1929 103.428 45.7735 105.805 39.4755C106.783 36.8839 106.148 33.8558 103.191 27.0225L101.777 23.7529L103.775 23.6268C106.627 23.447 107.855 21.7981 106.298 20.2412C105.581 19.5242 62.6235 19.4737 61.74 20.1889ZM71.3066 30.7552C73.0327 34.9972 73.4304 36.5212 73.1158 37.6896C72.2143 41.0376 68.1446 41.6089 66.1615 38.6664C65.1698 37.1948 65.4926 35.6393 68.0851 29.3943C69.5709 25.8147 69.2395 25.6746 71.3066 30.7552ZM100.11 29.868C102.637 35.9933 102.876 37.5423 101.537 39.1333C99.3815 41.6954 95.3998 40.6768 94.7941 37.4084C94.5721 36.2118 97.9415 26.5426 98.5813 26.5389C98.6663 26.5386 99.3539 28.0365 100.11 29.868ZM11.5897 41.9986C6.60523 45.1792 4.67734 50.5434 7.2305 54.1289L7.71162 54.8047L7.08821 55.3844C-2.2927 64.1025 1.34205 80.8751 16.3461 98.1045C36.8318 121.628 58.4369 130.301 70.1153 119.688L71.5276 118.404L72.6176 119.095C75.9349 121.199 78.5073 120.676 82.1454 117.157C86.1336 113.301 86.2781 111.718 82.9428 108.413L81.3921 106.876L82.5748 105.455C84.3979 103.264 84.8607 101.235 84.1161 98.6932C83.6784 97.1994 74.0002 87.0822 72.036 86.0654C69.628 84.8186 66.5084 85.3313 64.317 87.3342L63.0287 88.5116L61.3531 86.8116C57.8479 83.2556 56.2983 83.3513 52.3885 87.3658C49.0818 90.7613 48.4122 93.7246 50.2746 96.7207L51.0382 97.9489L49.6236 99.2984C47.5637 101.263 47.2342 101.212 44.4473 98.4958C41.6452 95.7647 40.2892 95.4007 39.486 97.1634C38.9559 98.3268 39.1621 98.7264 41.541 101.148C45.7527 105.435 48.6245 105.701 52.5305 102.166L54.0266 100.812L61.4064 108.177L68.7866 115.542L67.5013 116.711C58.3653 125.021 41.134 118.474 23.4463 99.9732C6.57392 82.3252 1.51968 67.3448 9.49568 58.6264L10.5131 57.5141L17.8802 64.8946L25.2474 72.2751L23.9563 73.6859C22.2993 75.4963 21.6917 76.8503 21.6874 78.7407C21.6818 81.1789 22.0801 81.7149 29.1044 88.7196C36.1188 95.7148 36.297 95.8347 37.6493 94.4825C38.9962 93.1356 38.8626 92.9347 32.0807 86.1268C24.6001 78.6173 24.5639 78.5448 27.0829 76.0849L28.0157 75.1742L29.0009 75.8878C32.1266 78.152 35.3732 77.559 39.0102 74.0594C42.8089 70.4039 42.9332 68.5817 39.6066 65.3078L38.0272 63.7535L39.2048 62.4648C41.2081 60.2731 41.7208 57.1539 40.4743 54.7458C39.4572 52.7813 29.34 43.1031 27.8461 42.6654C25.2173 41.8957 23.1118 42.4019 21.1235 44.2824L19.8171 45.518L17.9503 43.6698C15.3097 41.055 13.7219 40.638 11.5897 41.9986ZM36.5447 70.9941C32.8526 74.7454 33.7461 75.2427 20.771 62.2159C7.9528 49.3468 8.65248 50.5304 11.8966 47.2066L13.8856 45.169L26.0004 57.2838L38.1152 69.3986L36.5447 70.9941ZM26.6951 46.4232C27.9373 47.0522 37.0299 56.4288 37.1815 57.237C37.3693 58.2389 36.9741 59.2024 35.9805 60.1655L35.2031 60.9191L28.9203 54.6326L22.6375 48.3465L23.4776 47.4689C24.7021 46.1895 25.6352 45.8863 26.6951 46.4232ZM69.3139 100.355L81.3708 112.413L79.4683 114.265C76.0322 117.609 76.9694 118.145 64.4435 105.658C51.3708 92.6247 51.904 93.5079 55.1178 90.2054C56.1398 89.1552 57.0392 88.2958 57.1167 88.2958C57.1938 88.2958 62.6827 93.7224 69.3139 100.355ZM75.0006 94.1688C81.3168 100.444 81.5347 100.879 79.4085 102.955L78.4369 103.904L72.1517 97.6219L65.8664 91.34L66.4046 90.7545C68.737 88.2168 69.1912 88.3972 75.0006 94.1688Z" fill="white" stroke="white" stroke-width="50" mask="url(#path-1-inside-1_4_15)"/>
</g>
<defs>
<clipPath id="clip0_4_15">
<rect width="124" height="124" fill="white"/>
</clipPath>
</defs>
</svg>
