<svg width="118" height="120" viewBox="0 0 118 120" fill="none" xmlns="http://www.w3.org/2000/svg">
<path d="M58.2969 0.210943C57.9688 0.304693 57.0313 0.750006 56.2109 1.17188L54.6875 1.96876L52.9063 1.33594C50.7734 0.585943 50.4453 0.562506 49.4375 1.17188C47.8672 2.13282 47.3047 5.01563 48.1016 8.08594C48.5234 9.70313 50.3281 13.5703 51.8984 16.2422C52.7656 17.7422 52.9063 18.1406 52.6484 18.3047C52.1328 18.6328 51.9688 18.5625 50.9141 17.6016C48.6406 15.5156 46.1797 14.7656 41.6562 14.7891C37.8828 14.8125 36.6641 14.5547 34.2734 13.3359C32.1641 12.2578 31.7656 12.2344 30.9922 13.0078C29.75 14.25 30.4766 15.4453 33.2891 16.7578C35.9375 18.0234 37.4375 18.3047 41.7031 18.3516C45.2422 18.3984 45.6172 18.4453 46.6953 18.9844C47.7969 19.5234 50.0938 21.4219 50.0938 21.7969C50.0938 21.8906 49.2266 22.0313 48.1719 22.1016C42.4766 22.5 37.7187 24.4688 34.7891 27.6328C33.125 29.4375 32.6094 30.5156 32.9844 31.4063C33.2891 32.1563 34.3437 32.6953 35.0703 32.4609C35.3281 32.3906 36.0781 31.6406 36.7109 30.8203C38.5391 28.5234 40.7891 27.1641 44.3516 26.25C45.3828 25.9922 47.0937 25.7109 48.1953 25.6406L50.2109 25.5234L49.6016 26.0625C49.2734 26.3672 47.7969 27.6094 46.3437 28.8281C36.0781 37.4766 28.4844 48.5625 25.6016 59.1563C24.6172 62.7656 24.2891 65.0625 24.1484 69.1875L24.0078 73.1016L22.3438 72.9844C19.3906 72.7734 19.1563 72.7031 19.1563 72.0469C19.1563 69.7734 17.4219 67.3359 15.4297 66.7969C14.7734 66.6328 12.7109 66.5625 9.45313 66.6094C4.50781 66.6797 4.50781 66.6797 3.38281 67.3359C2.77344 67.6875 1.97656 68.4375 1.625 68.9531L0.992188 69.9375L0.921875 91.6172C0.875 106.828 0.921875 113.578 1.10938 114.211C1.4375 115.359 2.63281 116.695 3.80469 117.211C4.625 117.586 5.42188 117.656 10.0391 117.656C15.125 117.656 15.3828 117.633 16.3672 117.117C17.6563 116.437 18.8281 114.75 19.0625 113.297C19.1797 112.453 19.2969 112.242 19.6016 112.336C19.8125 112.383 24.125 113.977 29.1875 115.875C35.8203 118.336 38.9844 119.414 40.4844 119.672C42.2656 119.977 44.9609 120 58.1094 119.953C73.3438 119.859 73.6953 119.859 75.5234 119.344C76.5547 119.062 78.2422 118.406 79.2734 117.914C80.3047 117.422 86.8438 113.414 93.8047 108.984C100.766 104.578 108.148 99.8906 110.211 98.6016C114.453 95.9297 115.508 95.0625 116.375 93.3984C116.914 92.3906 117.008 91.9453 117.008 90.1172C117.008 88.2891 116.914 87.8437 116.375 86.8359C115.648 85.4297 114.312 84.0469 113.023 83.3672C112.273 82.9453 111.687 82.8516 109.977 82.8516C108.125 82.8516 107.633 82.9453 105.992 83.6484C104.961 84.0703 103.977 84.4687 103.836 84.5391C103.648 84.6094 103.766 84.1406 104.117 83.3672C104.961 81.4453 105.805 78.375 106.25 75.5391C106.766 72.2109 106.602 65.8828 105.898 62.4609C104.234 54.375 100.273 46.3359 94.3438 39.0703C92.0234 36.2344 91.0859 35.3906 90.2422 35.3906C89.2813 35.3906 88.5313 36.0938 88.5313 37.0078C88.5313 37.5234 88.9531 38.1797 90.1953 39.6328C96.5469 46.9922 100.672 54.7969 102.359 62.7188C103.062 66.0234 103.25 72.1875 102.734 75.3516C102.102 79.1953 100.039 84.5625 98.4219 86.6484C98.1875 86.9531 93.8516 88.9687 87.3125 91.8516C81.4063 94.4531 76.5313 96.5625 76.4609 96.5625C76.3906 96.5625 76.3438 95.9531 76.3203 95.2031C76.2734 90 72.5469 85.3828 67.5781 84.3984C66.9219 84.2578 61.8594 83.625 56.3047 82.9922C43.9063 81.5625 43.8594 81.5391 37.6953 77.9766C34.6484 76.2422 33.2656 75.6094 30.2891 74.625C28.0625 73.8984 27.9453 73.8281 27.7578 73.0781C27.4062 71.8359 27.7578 65.5547 28.2969 62.9297C30.7812 51.0938 38.3984 39.7969 50.6797 29.7656C52.3438 28.4063 52.4609 28.3594 52.9531 28.6875C55.1797 30.0938 64.4844 30.9375 70.25 30.2344C72.8281 29.9063 75.5703 29.1797 76.6953 28.4766L77.6094 27.9375L79.9297 29.8594C83.4922 32.7656 83.8906 33.0469 84.4531 33.0469C85.2031 33.0469 85.9297 32.3438 86.0938 31.4531C86.2344 30.7266 86.1406 30.5859 84.8984 29.4375C84.1484 28.7344 82.625 27.4453 81.4766 26.5781L79.4141 24.9609L79.3906 23.4375C79.3672 21.7734 78.9219 20.5078 77.9141 19.3125L77.2813 18.5625L78.5469 16.5469C81.0078 12.6328 82.6953 8.67188 83.0234 6.04688C83.3047 3.79688 82.3438 1.57032 80.8203 0.937506C80.0469 0.632818 79.3906 0.750006 77.2578 1.54688L76.1797 1.96876L74.3281 1.05469C72.7109 0.257818 72.2656 0.140631 70.8359 0.140631C69.4063 0.117193 68.9609 0.234381 67.4609 1.00782C66.5 1.47657 65.5625 1.87501 65.3516 1.87501C65.1641 1.87501 64.2266 1.47657 63.2656 1.00782C61.4375 0.117193 59.5391 -0.187494 58.2969 0.210943ZM62.1172 4.38282C63.5234 5.10938 64.0625 5.25001 65.3516 5.25001C66.7109 5.27344 67.1094 5.15626 68.5859 4.38282C69.5234 3.91407 70.5313 3.51563 70.8594 3.51563C71.1641 3.51563 72.1719 3.91407 73.0859 4.38282C74.4688 5.10938 74.9609 5.25001 76.1797 5.22657C77 5.22657 78.0313 5.06251 78.5469 4.82813C79.0625 4.61719 79.5078 4.50001 79.5781 4.57032C79.8594 4.85157 79.1094 7.66407 78.2188 9.67969C77.3984 11.5313 75.0781 15.6563 74.1406 16.9219C73.9297 17.2031 72.8516 17.5078 70.4609 17.9531C67.4375 18.5156 66.7344 18.5625 63.8047 18.4219C60.3125 18.2813 57.2188 17.7656 56.7266 17.2969C56.0703 16.6172 52.8594 10.7813 52.1797 9.04688C51.4766 7.19532 51.0313 5.27344 51.1953 4.75782C51.2656 4.57032 51.5469 4.59376 52.1563 4.85157C52.625 5.06251 53.6563 5.22657 54.4297 5.25001C55.625 5.27344 56.1172 5.13282 57.5938 4.40626C58.5547 3.91407 59.5859 3.51563 59.8906 3.51563C60.1719 3.51563 61.1797 3.91407 62.1172 4.38282ZM57.8281 21.3281C62.1875 22.2422 67.9063 22.1953 72.2891 21.1875C73.1094 21 74.0469 20.9297 74.375 21C75.6406 21.3281 76.3203 23.6953 75.5 24.9609C75.0313 25.6641 73.7656 26.0859 70.3203 26.625C65.5156 27.375 56.3516 26.7188 54.4531 25.4766C53.1641 24.6328 53.1875 22.3594 54.4766 21.3281C55.2031 20.7656 55.0859 20.7656 57.8281 21.3281ZM15.0547 70.6641L15.6406 71.2266V76.5469C15.6406 81.7031 15.6641 81.8906 16.1563 82.4297C16.7656 83.0859 17.7266 83.1328 18.4766 82.5234C19.0156 82.1016 19.0391 81.8906 19.1094 79.125L19.2031 76.1719L20.0469 76.2891C20.5156 76.3359 21.7344 76.4531 22.7422 76.5234C26.8203 76.8281 30.6406 78.1641 36.3594 81.3047C40.7891 83.7187 43.1328 84.7031 45.5937 85.1953C46.6016 85.3828 51.6641 86.0156 56.8906 86.6016C62.1172 87.1875 66.9219 87.8203 67.5547 88.0078C69.3828 88.5469 70.9297 89.8594 71.8906 91.7344C72.6406 93.2109 72.7109 93.4922 72.7109 95.4844V97.6172L63.1484 97.7344C54.0078 97.8516 53.5625 97.875 53.2344 98.2969C52.7656 98.9531 52.8359 99.9141 53.3516 100.57L53.7969 101.133L64.1094 101.203C73.7656 101.25 74.4922 101.227 75.5703 100.828C76.1797 100.57 80.2813 98.7891 84.6641 96.8672C108.523 86.3437 108.289 86.4375 109.625 86.3203C110.703 86.2266 111.031 86.2969 111.711 86.7656C112.883 87.5625 113.422 88.4297 113.539 89.6953C113.68 91.1484 113.211 92.3203 112.18 93.1172C110.398 94.4297 78.5703 114.445 77.3984 114.961C74.1641 116.414 74.6797 116.367 57.0078 116.367C40.9297 116.367 40.8359 116.367 39.3125 115.852C38.4687 115.57 33.5937 113.766 28.4844 111.867L19.1563 108.398V98.8359C19.1563 88.2422 19.1328 88.0781 17.7266 87.7734C17.1875 87.6562 16.8359 87.7266 16.3672 88.0781L15.7578 88.5234L15.6406 100.922C15.5703 107.742 15.5 113.344 15.4531 113.367C15.4297 113.391 15.2422 113.578 15.0313 113.766C14.7266 114.094 13.9297 114.141 9.89844 114.141C5.23438 114.141 5.11719 114.141 4.76563 113.625C4.4375 113.156 4.39063 110.719 4.39063 92.0625V71.0391L4.90625 70.5469C5.375 70.1016 5.70313 70.0781 9.94531 70.0781C14.4688 70.0781 14.4922 70.0781 15.0547 70.6641Z" fill="white"/>
<path d="M64.4609 36.5625C63.7109 36.8672 63.4531 37.5234 63.4531 39.2344V40.7812L62.375 41.0391C61.7891 41.2031 60.6875 41.7187 59.9375 42.2344C57.4297 43.8984 56.0234 46.8516 56.2344 50.0156C56.4453 53.1094 58.0156 55.1016 61.625 56.8828L63.4297 57.7734L63.4531 64.7578V71.7422L62.3516 71.6016C61.7187 71.5313 60.3828 71.0391 59.3516 70.5234C58.3203 70.0313 57.1953 69.6094 56.8203 69.6094C55.3672 69.6094 54.7109 71.4844 55.8359 72.5156C56.8437 73.4531 59.4453 74.5781 61.4844 74.9531L63.4531 75.3281V76.9922C63.4531 78.4453 63.5234 78.7266 63.9922 79.1719C64.7187 79.8516 65.6797 79.8281 66.3828 79.1016C66.8984 78.6094 66.9687 78.3281 66.9687 76.8047V75.0938L68.1406 74.7891C69.5469 74.4375 71.7266 73.0547 72.7578 71.8828C74.6563 69.7266 75.5 67.2891 75.3594 64.3828C75.1719 60.2578 72.875 57.5156 68.2109 55.875L66.9687 55.4531V49.875C66.9687 45.2813 67.0156 44.2969 67.2969 44.2969C67.7891 44.2969 69.2891 44.9766 70.2266 45.6094C71.2813 46.3359 72.0078 46.3125 72.7109 45.5859C73.4141 44.9063 73.4609 44.0859 72.8281 43.2891C72.2188 42.5156 69.3828 41.0859 68.0234 40.875L66.9687 40.7344V39.3516C66.9687 37.7344 66.6641 36.9375 65.8672 36.5859C65.2109 36.2812 65.1641 36.2812 64.4609 36.5625ZM63.4531 49.2188V53.9297L62.9375 53.6484C60.5234 52.3828 59.7031 51.2813 59.7031 49.3359C59.7031 47.5078 60.5937 45.9375 62.1641 44.9766C63.4531 44.1563 63.4531 44.1328 63.4531 49.2188ZM68.7266 59.9063C70.9063 60.9375 71.8906 62.5078 71.8906 65.0156C71.8906 67.6172 70.2266 70.1484 67.8594 71.1328L66.9687 71.4844V65.3906C66.9687 61.2422 67.0391 59.2969 67.2266 59.2969C67.3437 59.2969 68.0469 59.5547 68.7266 59.9063Z" fill="white"/>
</svg>
