<svg width="120" height="120" viewBox="0 0 120 120" fill="none" xmlns="http://www.w3.org/2000/svg">
<path d="M42.3047 0.140617C40.1719 0.656242 39.5625 0.86718 38.3438 1.45312C34.2891 3.42187 31.6406 6.84374 30.6094 11.4141C29.625 15.8437 30.8906 20.9531 33.8203 24.2812C35.0156 25.6406 54.375 42.3281 55.1719 42.6797C55.9453 43.0547 56.8594 42.7734 57.3281 42.0469C57.7031 41.4844 57.7031 41.2734 57.3047 38.6484C57.0703 37.125 56.9063 35.8359 56.9766 35.7891C57.0234 35.7422 57.5625 35.3672 58.1719 34.9687C59.7891 33.8672 59.8125 33.375 58.3594 30.4922L57.1875 28.125L57.8906 26.6953C58.8984 24.7266 58.7578 24.3047 56.5781 22.5C55.6172 21.7031 54.8438 21 54.8438 20.9297C54.8438 20.8594 55.3125 20.2734 55.8984 19.6641C57.4453 18 57.375 17.5312 55.2188 15.2812L53.4844 13.4766L55.3359 9.8203C56.3438 7.80468 57.1875 5.97655 57.1875 5.78905C57.1875 4.5703 53.625 2.06249 50.25 0.96093C48.3516 0.328117 47.5078 0.187492 45.3516 0.11718C43.9453 0.0703049 42.5625 0.0703049 42.3047 0.140617ZM49.2422 4.49999C50.1094 4.82812 51.2813 5.36718 51.8672 5.71874L52.9688 6.35155L51.0703 9.98437C49.5469 12.8906 49.1953 13.7344 49.3359 14.25C49.4063 14.6016 50.1563 15.5625 51 16.4062L52.5 17.9531L51.3281 19.1016C49.9688 20.4375 49.7813 21.375 50.6953 22.3359C51.0938 22.7812 53.9766 25.2422 54.3281 25.4531C54.375 25.4766 54.1406 26.0391 53.8125 26.6953C53.4844 27.3516 53.2031 28.0312 53.2031 28.2422C53.2031 28.4297 53.6484 29.4609 54.1641 30.5156L55.125 32.4375L54.5859 32.8594C53.0625 34.0312 52.9688 34.1719 52.9688 35.1562V36.1172L44.7656 29.0625C38.2969 23.4609 36.3984 21.7266 35.7422 20.6719C32.8594 16.0547 33.5859 10.125 37.4766 6.49218C39.6563 4.42968 41.8594 3.70312 45.3516 3.84374C47.0625 3.91405 48.1172 4.10155 49.2422 4.49999Z" fill="white"/>
<path d="M73.0078 0.164068C70.3359 0.539068 67.3359 1.75782 65.039 3.39844C62.8359 4.96876 62.7187 5.74219 64.3125 7.94532C64.7343 8.53126 65.1562 9.14063 65.2265 9.28126C65.3203 9.42188 64.5703 10.125 63.4687 10.9219C61.0781 12.6328 60.7031 13.0547 60.7031 13.8984C60.7031 14.625 61.4297 15.4453 63.5156 17.1563L64.5703 18.0234L63.4687 19.1484C62.5781 20.0625 62.3437 20.4609 62.3437 21.0703C62.3437 21.8672 62.5078 22.0547 64.8047 23.9766L65.4843 24.5391L64.5234 25.6875C63.0234 27.5156 63 27.5859 63.1875 30.7266L63.3515 33.5391L62.3672 35.625L61.3593 37.7109L61.9687 39.7734C62.8359 42.75 63.9843 43.5703 65.5312 42.375C65.9062 42.0703 70.6406 38.0391 76.0312 33.4219C86.6953 24.2578 87.5625 23.3438 88.8047 20.1563C90.4687 15.8906 90.2109 11.6484 88.0781 7.38282C87.0234 5.32032 84.2578 2.64844 82.0312 1.54688C79.3594 0.234381 76.0781 -0.257807 73.0078 0.164068ZM79.4531 4.42969C82.9687 5.78907 85.3828 8.92969 86.0859 13.0781C86.5781 16.0547 85.4765 19.6875 83.3906 21.9375C82.3828 23.0156 66.2343 37.0313 65.9765 37.0313C65.9062 37.0313 66.1406 36.4688 66.4687 35.8125C67.0781 34.6172 67.1015 34.4766 66.9609 31.6406L66.8203 28.7109L68.3203 26.8359C70.4765 24.1641 70.4062 23.5781 67.7343 21.5156L66.9375 20.8828L68.039 19.7109C69.7265 17.9063 69.5859 17.3203 66.9609 15.1172L65.6015 13.9922L67.1953 12.8438C70.3593 10.5469 70.5 10.0781 68.789 7.75782C68.2031 6.96094 67.7343 6.23438 67.7343 6.11719C67.7343 5.83594 70.7109 4.52344 72.3047 4.12501C74.2734 3.60938 77.7656 3.77344 79.4531 4.42969Z" fill="white"/>
<path d="M1.45312 24.4922C0.18749 25.0313 0.18749 25.2891 1.42968 31.9688C2.46093 37.5938 3.04687 39.6328 4.26562 41.6719C4.99218 42.9375 7.99218 46.1953 9.04687 46.8984L9.53905 47.2266L8.01562 60.2344C6.65624 71.9063 6.53905 73.4297 6.74999 74.9531C7.07812 77.3203 8.3203 79.8047 10.0781 81.5625C12.3281 83.8125 16.0547 85.3125 18.6562 85.0078L19.6406 84.9141L20.6719 88.3359L21.7266 91.7578L20.1797 92.9063C18.0469 94.5 14.8828 97.7578 13.4297 99.8672C10.2422 104.508 8.43749 109.57 7.96874 115.289C7.7578 117.938 7.89843 118.641 8.6953 119.063C9.28124 119.391 10.8984 119.438 38.6016 119.789C59.4609 120.047 58.7344 120.07 59.2734 118.898C59.6016 118.195 59.6016 112.43 59.2969 109.5C58.3828 100.875 54.7969 92.8594 49.2187 86.8828L47.2734 84.8203L46.0078 79.3828C45.3281 76.3828 44.7422 73.7344 44.7187 73.4766C44.6953 73.2188 46.0547 70.5234 47.7187 67.5C49.3828 64.4766 51 61.4063 51.2812 60.7031C52.9922 56.4141 52.9453 50.8359 51.1641 46.5234C49.6875 43.0078 47.1797 40.2656 42.9844 37.6172C33.8437 31.8516 27.1172 30.375 20.625 32.6953C19.0078 33.2813 16.1016 33.3984 14.2266 32.9531C11.0625 32.2031 9.23437 30.9375 5.55468 26.9297C4.21874 25.4766 3.02343 24.375 2.6953 24.3281C2.39062 24.2578 1.82812 24.3516 1.45312 24.4922ZM8.95312 34.875C9.6328 35.2734 11.0391 35.8828 12.0703 36.2344C13.7109 36.8203 14.2969 36.8906 16.7578 36.8906C19.2187 36.8906 19.8516 36.8203 21.7969 36.2109C24.75 35.2969 28.3828 35.2266 31.2891 36.0469C33.6797 36.7266 37.1484 38.3906 40.4297 40.4297C43.8516 42.5391 45 43.5234 46.3594 45.5859C48.0469 48.0938 48.5391 49.7109 48.6797 53.1094C48.8672 57.2109 48.4922 58.3828 44.9297 64.8281L42.0703 70.0313L39.8203 68.8828L37.5469 67.7578L37.875 66.6563C38.5781 64.3125 38.0625 62.0859 36.4219 60.2344C35.1562 58.8516 33.9844 58.1719 32.4375 57.9609C31.4297 57.8203 31.3125 57.75 30.9141 56.8359C30.1172 55.0547 29.2969 51.4922 29.0391 48.75C28.8984 47.2734 28.7578 45.8203 28.6875 45.5156C28.4531 44.4141 27.6094 44.2969 19.3828 44.2969H11.7891L10.6172 43.3594C7.82812 41.1563 6.09374 37.8281 5.5078 33.5391L5.34374 32.2969L6.53905 33.2344C7.1953 33.75 8.27343 34.5 8.95312 34.875ZM25.2656 48.9844C25.5234 52.2891 26.8594 57.2344 28.1719 59.8359C28.9219 61.3594 29.4141 61.6406 31.1484 61.6406C33.9141 61.6406 35.3672 64.5469 33.7031 66.6797C33.0703 67.5 31.9453 67.9688 30.6094 67.9688C28.6641 67.9688 28.4297 68.25 28.125 71.0391C27.7266 74.4375 26.1094 77.0625 23.0625 79.2656C20.7891 80.8828 19.2187 81.4453 17.4141 81.2578C13.8984 80.8828 10.7344 77.7188 10.3828 74.2266C10.2891 73.1484 12.9375 49.1719 13.2422 48.3281C13.3125 48.0938 14.6484 48.0469 19.2656 48.0938L25.1953 48.1641L25.2656 48.9844ZM37.9453 72.1641C39.4687 72.9375 40.7812 73.7344 40.875 73.9453C41.0859 74.5547 43.125 83.3203 43.125 83.7188C43.125 84 42.7031 84.1172 41.3203 84.2344C37.1016 84.5859 31.7812 86.2266 27.4922 88.5C26.1797 89.2031 25.0547 89.6719 25.0078 89.5781C24.9141 89.4375 23.7422 85.6641 23.2969 84.1172C23.2266 83.8594 23.7656 83.3438 24.9844 82.4766C28.4531 80.0156 30.6094 77.0156 31.5703 73.2656L31.9922 71.6484L33.1172 71.3672C33.7266 71.2031 34.2891 71.0156 34.3828 70.9453C34.6875 70.6172 35.2266 70.8047 37.9453 72.1641ZM46.4766 89.3438C52.6406 96.2813 55.7812 104.578 55.7812 114.047V116.32L48.4687 116.18C44.4375 116.086 34.5234 115.945 26.4141 115.852L11.7187 115.711V115.078C11.7187 113.039 13.1719 107.953 14.4844 105.352C16.3125 101.742 20.1797 97.3594 23.6719 94.9922C25.9219 93.4688 30.7266 90.9375 33.1641 90C36.4453 88.7578 40.9219 87.7969 44.1094 87.6797C44.8828 87.6563 45.0937 87.7969 46.4766 89.3438Z" fill="white"/>
<path d="M91.1718 32.1328C86.6484 32.4609 82.0078 34.0547 78.164 36.6328C76.0312 38.0625 72.4922 41.7891 71.1562 44.0156C69.7968 46.2891 68.5547 49.5234 68.039 52.0078C67.2422 55.9453 67.6875 61.2422 69.1172 64.875C69.7265 66.4219 69.7265 66.4219 69.0234 66.75C68.4609 67.0078 68.3906 66.9375 67.0078 64.8516C65.0625 61.9687 64.7578 61.6406 63.8437 61.6406C62.7656 61.6406 62.0156 62.3437 62.0156 63.3047C62.0156 63.9141 62.4609 64.7578 63.7968 66.75L65.5781 69.3984L64.8047 70.8984C63.375 73.6172 63.5625 76.5469 65.2734 79.125C67.0781 81.8906 70.9922 83.8828 74.5781 83.9062H75.6797L77.5547 86.6016C79.5937 89.4609 80.0625 89.8125 81.3047 89.2969C81.9375 89.0391 82.5 88.2187 82.5 87.5391C82.5 87.375 81.8672 86.2969 81.0937 85.1484L79.6875 83.0859L80.9765 82.4297C81.7031 82.0781 82.8281 81.2578 83.4609 80.6484L84.6562 79.5L86.2031 79.9453C87.0703 80.1797 87.7734 80.3906 87.7968 80.3906C87.8203 80.3906 87.9609 81.3984 88.125 82.6641L88.4297 84.9141L87.164 85.9922C82.0312 90.3047 78.6093 96.1875 77.4375 102.656C77.2031 103.992 77.039 106.922 76.9453 111.469C76.8047 118.219 76.8047 118.289 77.3203 118.805L77.8125 119.297L92.7656 119.25L107.695 119.18L108.867 117.539C110.625 115.078 112.852 112.969 114.984 111.75C118.312 109.828 119.648 107.695 119.648 104.297C119.648 102.586 119.555 102.117 118.992 100.969C117.961 98.8594 116.93 98.0156 111.68 95.0391C109.008 93.5156 106.781 92.1094 106.711 91.9219C106.641 91.7578 106.711 89.3203 106.875 86.5547L107.156 81.4922L108.492 80.25C109.219 79.5703 110.109 78.5156 110.437 77.8828C111.164 76.5234 116.25 60.4922 116.25 59.5547C116.25 59.1797 116.766 57.8906 117.398 56.6719C118.922 53.7656 119.391 51.5625 119.25 48.4219C119.039 44.2969 117.656 41.2734 114.609 38.2031C111.586 35.1562 109.594 34.3828 100.547 32.8359C96 32.0625 94.125 31.9219 91.1718 32.1328ZM100.312 36.5859C106.477 37.6875 107.602 37.9687 109.266 38.8359C114.352 41.4844 116.789 47.6016 114.961 53.1328C114.914 53.2969 114.281 52.8281 113.555 52.0547C112.383 50.8125 111.82 50.4844 107.953 48.6562C105.586 47.5547 103.43 46.6406 103.148 46.6406C101.836 46.6406 101.109 47.7891 100.078 51.4453C99.539 53.4141 98.7187 55.3594 98.1562 56.0859C97.8515 56.5078 97.7343 56.4844 95.9297 55.6875C91.9922 53.9531 88.8281 54.8906 87.164 58.2656C86.5078 59.6016 86.4375 59.9297 86.5312 61.2422C86.6953 63.0703 87.3281 64.3594 88.6875 65.5547C89.7187 66.4453 89.7187 66.4922 89.5312 67.4062C88.9687 69.75 89.3906 72.9141 90.5625 75.3281L91.3125 76.875L90.1406 76.8516C89.4843 76.8516 88.3359 76.6641 87.5625 76.4531L86.2031 76.0547L86.1328 74.4141C85.9922 69.375 81.164 65.3906 75.2109 65.3906H73.4062L72.9375 64.2656C69.7734 56.9297 71.3437 48.4453 76.9687 42.4453C80.1093 39.1172 85.5937 36.4922 90.7031 35.8828C93.1406 35.5781 95.789 35.7656 100.312 36.5859ZM107.086 52.3594C108.562 53.0391 110.109 53.8828 110.508 54.2109C111.609 55.1016 112.5 57 112.5 58.5C112.5 60.1641 107.812 75.1406 106.852 76.5469C105.539 78.4687 102.867 79.6641 100.5 79.3828C98.1797 79.1016 96.2343 77.6719 94.7109 75.1172C92.9765 72.2578 92.6484 69.8906 93.539 66.8437C94.1953 64.6875 94.0078 64.2187 92.2265 63.375C90.6797 62.625 90.2343 62.0859 90.2343 60.8672C90.2343 60.1875 90.3984 59.7891 90.914 59.2734C91.8984 58.2891 92.8593 58.3594 95.6484 59.6484C96.914 60.2344 98.1562 60.7031 98.414 60.7031C99.0937 60.7031 100.359 59.5078 101.437 57.8203C102.422 56.3437 103.055 54.8203 103.711 52.4297C103.898 51.7031 104.156 51.0937 104.25 51.0937C104.344 51.1172 105.609 51.6797 107.086 52.3594ZM77.9062 69.5156C80.1562 70.2187 81.6562 71.5781 82.2656 73.4531C83.3437 76.8047 79.7109 80.1562 75 80.1562C70.289 80.1562 66.7734 76.9219 67.7109 73.4531C68.625 70.0547 73.5 68.1797 77.9062 69.5156ZM95.5078 81.4453C97.5703 82.6641 98.9765 83.0625 101.344 83.0859H103.406L103.289 84.2109C103.242 84.8203 103.148 85.3594 103.102 85.4297C103.031 85.4766 100.617 85.2187 97.7343 84.8203C94.8281 84.4453 92.3906 84.1406 92.3203 84.1406C92.1797 84.1406 91.6406 81.5625 91.6406 80.9062C91.6406 80.7187 92.0859 80.625 92.9062 80.625C93.914 80.625 94.4062 80.7891 95.5078 81.4453ZM96.6328 91.0781C104.836 95.3672 112.805 99.7969 114.352 100.969C115.734 102 116.391 104.227 115.758 105.867C115.383 106.875 114.445 107.742 112.406 108.937C110.367 110.156 107.602 112.734 106.523 114.445L105.82 115.547H93.2343H80.625V111.844C80.625 102.68 81.8672 97.9687 85.5468 93.0703C87.0468 91.1016 90.1172 88.125 90.6562 88.125C90.8203 88.125 93.5156 89.4609 96.6328 91.0781ZM102.375 89.2031C102.656 89.2969 102.891 89.5078 102.891 89.6719C102.891 90.0937 102.703 90.0703 101.719 89.5312C101.109 89.2031 101.016 89.0859 101.367 89.0859C101.625 89.0625 102.07 89.1328 102.375 89.2031Z" fill="white"/>
</svg>
