<svg width="120" height="120" viewBox="0 0 120 120" fill="none" xmlns="http://www.w3.org/2000/svg">
<path d="M21.2109 0.585938L20.625 1.14844V28.125V55.1016L21.2109 55.6641L21.7734 56.25H39.9609H58.125V58.125V60H52.8047C46.7578 60 45.3984 60.2109 42.9141 61.5234C40.4531 62.8359 39.3516 63.9844 35.9531 68.6953L32.7891 73.125H21.6562H10.5234L9.96094 73.7109L9.375 74.2734V91.875V109.477L9.96094 110.039L10.5234 110.625H21.8906H33.2578L36.9609 112.852C42.4219 116.133 42.2344 116.086 50.9297 116.203L58.125 116.273V117.562C58.125 118.617 58.2188 118.945 58.7109 119.414L59.2734 120H65.625H71.9766L72.5391 119.414C73.0312 118.945 73.125 118.617 73.125 117.562V116.297L78.8203 116.203L84.4922 116.133L85.9688 115.336C87.6094 114.445 88.3359 113.695 89.25 111.938C89.7422 110.953 89.8594 110.414 89.8594 108.867C89.8828 107.203 89.7891 106.805 89.1328 105.469L88.3828 103.945L89.4141 102.961C89.9766 102.422 90.7266 101.414 91.1016 100.734C91.6406 99.6797 91.7344 99.2109 91.7344 97.5C91.7578 95.8828 91.6641 95.3203 91.2188 94.5234C90.9375 93.9844 90.7031 93.4688 90.7031 93.4219C90.7031 93.3516 91.125 93.0703 91.6406 92.8125C92.9062 92.1562 94.1016 90.9375 94.8516 89.4609C95.3906 88.4297 95.4844 87.9375 95.4844 86.25C95.5078 84.5156 95.4141 84.0938 94.8516 83.0391C94.0781 81.5625 92.9062 80.3203 91.6406 79.6875C91.125 79.4297 90.7031 79.1484 90.7031 79.0781C90.7031 79.0312 90.9141 78.5391 91.1719 78.0469C92.6484 75.1406 91.4297 70.6641 88.6641 68.8828C86.8125 67.6875 86.5781 67.6406 81.8672 67.5469C79.3828 67.5 77.3438 67.3828 77.3438 67.2656C77.3438 66.8672 75.1172 64.6406 74.1562 64.0781L73.125 63.4688V59.8594V56.25H91.2891H109.477L110.039 55.6641L110.625 55.1016V28.125V1.14844L110.039 0.585938L109.477 0H65.625H21.7734L21.2109 0.585938ZM106.875 28.125V52.5H65.625H24.375V28.125V3.75H65.625H106.875V28.125ZM69.375 58.9453V61.6406L68.4375 61.1719C67.0781 60.4688 65.0156 60 63.3516 60H61.875V58.125V56.25H65.625H69.375V58.9453ZM69.0703 65.6719C71.25 66.7734 72.9375 67.8047 73.4531 68.3438C74.9766 69.9141 75 70.0547 75 82.5703V93.7969L73.8984 93.6328C72.6562 93.4453 70.9688 92.6719 69.9141 91.7812C69.5391 91.4531 68.8594 90.5391 68.4375 89.7188L67.6406 88.2422L67.5 83.4375C67.3594 78.8438 67.3359 78.5859 66.7266 77.4375C66.3984 76.7812 65.8594 75.9141 65.5312 75.5391C64.6406 74.4844 62.3906 73.3828 60.75 73.2188C59.4609 73.0781 59.2969 73.125 58.7812 73.6406C58.3125 74.0859 58.1719 74.5312 58.0547 75.8203C57.75 79.1719 55.6875 82.0312 52.5469 83.5078C51.0703 84.1875 50.7656 84.2344 47.5078 84.375C44.2031 84.4922 43.9922 84.5156 43.5703 85.0547C42.9375 85.8281 43.0078 86.8594 43.7344 87.5859L44.3203 88.1719L47.8828 88.0547C52.3594 87.9141 54.5156 87.2344 56.9297 85.2188C57.4922 84.75 57.9844 84.375 58.0312 84.375C58.0781 84.375 58.125 90.7031 58.125 98.4609V112.523L51.1641 112.43C46.5703 112.383 43.8984 112.266 43.3359 112.078C42.8672 111.914 40.6406 110.695 38.3672 109.336L34.2422 106.875H23.6953H13.125V91.875V76.875H23.7656C33.5625 76.875 34.4297 76.8516 34.875 76.4531C35.1328 76.2422 36.75 74.0391 38.5078 71.6016C40.2422 69.1406 42.0703 66.75 42.5859 66.2812C43.5703 65.3203 45.3984 64.3359 46.7812 64.0078C47.2969 63.8906 51.7031 63.7969 56.6016 63.8203L65.5078 63.8672L69.0703 65.6719ZM86.3906 71.8594C87.6328 72.7734 88.0078 73.5234 88.0078 75C88.0078 76.4766 87.6328 77.2266 86.3906 78.1406C85.8281 78.5859 85.3594 78.6328 82.2422 78.7031L78.75 78.7734V75V71.2266L82.2422 71.2969C85.3594 71.3672 85.8281 71.4141 86.3906 71.8594ZM62.9766 78.4453C63.6328 79.2891 63.6328 79.3125 63.7734 84C63.9141 88.875 64.0078 89.3906 65.1562 91.6172C65.6016 92.5078 65.625 92.6719 65.3203 93C63.75 94.8047 63.375 98.2031 64.4766 100.547C64.8047 101.25 65.3672 102.117 65.6953 102.492L66.3047 103.125L65.6953 103.781C65.3672 104.133 64.8281 104.93 64.5 105.586C63.9844 106.57 63.8906 107.062 63.8906 108.75C63.8672 110.484 63.9609 110.906 64.5234 111.961C65.3672 113.578 66.5859 114.773 68.1328 115.477C68.8125 115.781 69.375 116.086 69.375 116.156C69.375 116.203 67.6875 116.25 65.625 116.25H61.875V96.9141C61.875 84.8672 61.9688 77.5781 62.0859 77.5781C62.2266 77.5781 62.625 77.9766 62.9766 78.4453ZM89.625 82.8281C90.0469 83.0156 90.7031 83.5547 91.0781 84.0469C91.6406 84.7734 91.7578 85.1484 91.7578 86.2734C91.7578 87.7266 91.3594 88.4766 90.1406 89.3906C89.5547 89.8594 89.1328 89.8828 84.1172 89.9531L78.75 90.0234V86.2734V82.5H83.7891C87.5859 82.5 89.0391 82.5703 89.625 82.8281ZM86.3906 94.3594C87.6328 95.2734 88.0078 96.0234 88.0078 97.5C88.0078 98.9766 87.6328 99.7266 86.3906 100.641C85.7812 101.109 85.4531 101.133 77.8359 101.133H69.9141L69.0469 100.453C68.0625 99.7266 67.5 98.625 67.5 97.5C67.5 96.7266 68.1094 95.2969 68.3906 95.4375C68.4844 95.4844 69.1172 95.8125 69.7734 96.1641C72.1406 97.4062 74.9531 97.8281 76.4766 97.1719C77.4844 96.75 78.4688 95.5781 78.6562 94.5469L78.7969 93.7266L82.2891 93.7969C85.3594 93.8672 85.8281 93.9141 86.3906 94.3594ZM84.5156 105.609C85.7578 106.523 86.1328 107.273 86.1328 108.75C86.1328 110.227 85.7578 110.977 84.5156 111.891C83.9062 112.359 83.5078 112.383 77.3906 112.453C73.2188 112.5 70.5938 112.43 70.0312 112.289C67.6641 111.586 66.75 108.328 68.3672 106.383C69.5156 105.047 69.7734 105 77.1562 105.07C83.5312 105.117 83.9062 105.141 84.5156 105.609Z" fill="white"/>
<path d="M29.6484 8.08594L29.0625 8.64844V16.875V25.1016L29.6484 25.6641C30 26.0391 30.4922 26.25 30.9375 26.25C31.3828 26.25 31.875 26.0391 32.2266 25.6641C32.7891 25.125 32.8125 24.9844 32.8125 21.9141V18.75H34.6875H36.5625V21.9141C36.5625 24.9844 36.5859 25.125 37.1484 25.6641C37.5 26.0391 37.9922 26.25 38.4375 26.25C38.8828 26.25 39.375 26.0391 39.7266 25.6641L40.3125 25.1016V16.875V8.64844L39.7266 8.08594C39.375 7.71094 38.8828 7.5 38.4375 7.5C37.9922 7.5 37.5 7.71094 37.1484 8.08594C36.5859 8.625 36.5625 8.76562 36.5625 11.8359V15H34.6875H32.8125V11.8359C32.8125 8.76562 32.7891 8.625 32.2266 8.08594C31.875 7.71094 31.3828 7.5 30.9375 7.5C30.4922 7.5 30 7.71094 29.6484 8.08594Z" fill="white"/>
<path d="M43.6875 8.08594L43.1016 8.67187L43.1719 15.3047C43.2422 21.2109 43.2891 22.0078 43.6875 22.7344C44.2969 23.8828 45.4219 25.0312 46.5234 25.6172C47.7656 26.2969 50.5781 26.3203 51.7969 25.6875C52.9453 25.1016 54.0938 23.9531 54.6797 22.8516C55.1719 21.9609 55.1953 21.5625 55.2656 15.3047L55.3359 8.67187L54.75 8.08594C53.9766 7.3125 52.8984 7.3125 52.1484 8.08594L51.5625 8.64844V14.6484C51.5625 21.1641 51.4688 21.6797 50.2734 22.2187C49.5 22.5703 48.9375 22.5703 48.1641 22.2187C46.9688 21.6797 46.875 21.1641 46.875 14.6484V8.64844L46.2891 8.08594C45.5391 7.3125 44.4609 7.3125 43.6875 8.08594Z" fill="white"/>
<path d="M58.7109 8.08593L58.125 8.64843V16.875V25.1016L58.7109 25.6641C59.3906 26.3672 60.4453 26.4141 61.1953 25.8047C61.7578 25.3594 61.7578 25.2656 61.875 20.25L61.9922 15.1172L63.1406 16.6875C64.4531 18.4687 65.2734 18.9609 66.3047 18.5391C66.6562 18.375 67.4766 17.5547 68.1094 16.6875L69.2578 15.1172L69.375 20.25C69.4922 25.2656 69.4922 25.3594 70.0547 25.8047C70.8047 26.4141 71.8594 26.3672 72.5391 25.6641L73.125 25.1016V16.875V8.64843L72.5391 8.08593C71.9297 7.45312 70.875 7.31249 70.2422 7.78124C70.0312 7.9453 68.9531 9.30468 67.8516 10.7812C66.7266 12.2578 65.7422 13.4766 65.625 13.4766C65.5078 13.4766 64.5234 12.2578 63.3984 10.7812C62.2969 9.30468 61.2188 7.9453 61.0078 7.78124C60.375 7.31249 59.3203 7.45312 58.7109 8.08593Z" fill="white"/>
<path d="M80.4141 7.89844C80.0625 8.20312 79.2422 10.4766 77.4609 16.1953C76.1016 20.5547 75 24.3281 75 24.5859C75 25.3359 76.0312 26.25 76.8281 26.25C77.8594 26.25 78.4922 25.5938 78.9375 24.0234L79.3594 22.6172H81.5625H83.7656L84.1875 24.0234C84.6328 25.5938 85.2656 26.25 86.2969 26.25C87.0938 26.25 88.125 25.3359 88.125 24.5859C88.125 24.3281 87.0234 20.5547 85.6641 16.1953C83.0859 7.89844 82.875 7.5 81.5625 7.5C81.2109 7.5 80.6953 7.6875 80.4141 7.89844ZM81.9609 16.9219C82.125 17.4844 82.3125 18.1172 82.3828 18.3281C82.5234 18.6797 82.4062 18.75 81.5625 18.75C80.7188 18.75 80.6016 18.6797 80.7422 18.3281C80.8125 18.1172 81 17.4844 81.1641 16.9219C81.3047 16.3828 81.4922 15.9375 81.5625 15.9375C81.6328 15.9375 81.8203 16.3828 81.9609 16.9219Z" fill="white"/>
<path d="M90.5859 8.08594L90 8.64844V16.875V25.1016L90.5859 25.6641C90.9375 26.0391 91.4297 26.25 91.875 26.25C92.3203 26.25 92.8125 26.0391 93.1641 25.6641C93.75 25.1016 93.75 25.0547 93.75 20.8125V16.5234L96.2344 20.9766C97.5938 23.4375 98.9297 25.6172 99.1875 25.8281C99.8672 26.4375 100.922 26.3672 101.602 25.6641L102.188 25.1016V16.875V8.64844L101.602 8.08594C101.25 7.71094 100.758 7.5 100.312 7.5C99.8672 7.5 99.375 7.71094 99.0234 8.08594C98.4375 8.64844 98.4375 8.69531 98.4375 12.9375V17.2266L95.9531 12.7734C94.5938 10.3125 93.2578 8.13281 93 7.89844C92.3203 7.3125 91.2656 7.38281 90.5859 8.08594Z" fill="white"/>
<path d="M29.6484 30.5859L29.0625 31.1484V39.375V47.6016L29.6484 48.1641C30 48.5391 30.4922 48.75 30.9375 48.75C31.3828 48.75 31.875 48.5391 32.2266 48.1641C32.7891 47.625 32.8125 47.4609 32.8125 44.6484C32.8125 43.0312 32.8594 41.7188 32.9297 41.7188C33.375 41.7188 34.5234 42.5391 35.2031 43.3594C36.0703 44.3438 36.5625 45.6328 36.5625 46.8516C36.5625 48.5391 38.5781 49.3359 39.7734 48.1406C40.3359 47.5781 40.3594 47.4375 40.2422 46.0078C40.0781 44.4141 39.1875 42.1406 38.2734 41.0156L37.7813 40.4531L38.7656 39.3516C40.8516 37.0312 40.8281 34.1953 38.7422 31.875C37.3594 30.3516 36.2813 30 32.8828 30C30.3516 30 30.1875 30.0234 29.6484 30.5859ZM35.9766 34.3359C36.3516 34.6875 36.5625 35.1797 36.5625 35.625C36.5625 36.8203 35.6719 37.5 34.1016 37.5H32.8125V35.625V33.75H34.1016C35.1797 33.75 35.5078 33.8438 35.9766 34.3359Z" fill="white"/>
<path d="M43.5 30.4922L42.8906 30.9609V39.2812V47.6016L43.4766 48.1641C44.2031 48.9141 45.0234 48.9141 45.8672 48.1875L46.5234 47.625V39.375V31.125L45.8672 30.5625C45.0703 29.8828 44.3203 29.8359 43.5 30.4922Z" fill="white"/>
<path d="M52.9219 30.3281C51.6328 30.7969 50.9297 31.3125 50.1562 32.3672C49.1484 33.7734 48.9141 35.2031 49.0078 39.7266C49.1016 43.5234 49.125 43.7812 49.7578 45.0469C52.1719 49.9922 59.2266 49.8984 61.5469 44.8828C62.0156 43.875 62.1094 43.3359 62.1094 41.1797C62.1094 38.8125 62.0625 38.625 61.5234 38.0859C60.9844 37.5469 60.7969 37.5 58.4766 37.5C56.0156 37.5 55.9687 37.5 55.2656 38.2031C54.7031 38.7656 54.5859 39.0469 54.7031 39.5625C54.9609 40.6406 55.875 41.25 57.2109 41.25H58.3594V42.0703C58.3594 44.4141 56.1328 45.7031 54.1875 44.5312C52.8984 43.7344 52.6875 42.8906 52.7812 38.625L52.8516 34.875L53.5078 34.3125C54.1172 33.7969 54.375 33.75 56.625 33.75C58.9219 33.75 59.1328 33.7031 59.6484 33.1641C60.0234 32.8125 60.2344 32.3203 60.2344 31.875C60.2344 31.4297 60.0234 30.9375 59.6484 30.5859C59.1094 30.0234 58.9453 30 56.4375 30C54.8437 30.0234 53.4375 30.1406 52.9219 30.3281Z" fill="white"/>
<path d="M65.2734 30.5859L64.6875 31.1484V39.375V47.6016L65.2734 48.1641C65.625 48.5391 66.1172 48.75 66.5625 48.75C67.0078 48.75 67.5 48.5391 67.8516 48.1641C68.4141 47.625 68.4375 47.4844 68.4375 44.4141V41.25H70.3125H72.1875V44.4141C72.1875 47.4844 72.2109 47.625 72.7734 48.1641C73.125 48.5391 73.6172 48.75 74.0625 48.75C74.5078 48.75 75 48.5391 75.3516 48.1641L75.9375 47.6016V39.375V31.1484L75.3516 30.5859C75 30.2109 74.5078 30 74.0625 30C73.6172 30 73.125 30.2109 72.7734 30.5859C72.2109 31.125 72.1875 31.2656 72.1875 34.3359V37.5H70.3125H68.4375V34.3359C68.4375 31.2656 68.4141 31.125 67.8516 30.5859C67.5 30.2109 67.0078 30 66.5625 30C66.1172 30 65.625 30.2109 65.2734 30.5859Z" fill="white"/>
<path d="M78.8672 30.5859C78.4922 30.9375 78.2812 31.4297 78.2812 31.875C78.2812 33.0703 79.1719 33.75 80.7422 33.75H82.0312V40.6641V47.6016L82.6172 48.1641C82.9688 48.5391 83.4609 48.75 83.9062 48.75C84.3516 48.75 84.8438 48.5391 85.1953 48.1641L85.7812 47.6016V40.6641V33.75H87.0703C88.6406 33.75 89.5312 33.0703 89.5312 31.875C89.5312 31.4297 89.3203 30.9375 88.9453 30.5859C88.3828 30 88.3359 30 83.9062 30C79.4766 30 79.4297 30 78.8672 30.5859Z" fill="white"/>
<path d="M94.6875 30.3047C93.539 30.6797 91.5703 32.6953 91.2187 33.8906C90.5625 36.0938 91.0312 37.8516 92.6953 39.4922C93.8906 40.7109 95.0859 41.25 96.539 41.25C97.5234 41.25 98.4375 42.1406 98.4375 43.125C98.4375 43.5703 98.2265 44.0625 97.8515 44.4141C97.3125 44.9766 97.125 45 94.6875 45C92.25 45 92.0625 45.0234 91.5234 45.5859C90.75 46.3359 90.75 47.4141 91.5234 48.1641C92.0625 48.7266 92.25 48.75 94.7109 48.75C98.0859 48.75 98.9531 48.4922 100.43 46.9922C101.648 45.7969 102.187 44.6016 102.187 43.125C102.187 40.2422 99.4687 37.5 96.5859 37.5C95.6015 37.5 94.6875 36.6094 94.6875 35.625C94.6875 35.1797 94.8984 34.6875 95.2734 34.3359C95.8125 33.7734 96 33.75 98.4375 33.75C100.875 33.75 101.062 33.7266 101.602 33.1641C101.977 32.8125 102.187 32.3203 102.187 31.875C102.187 31.4297 101.977 30.9375 101.602 30.5859C101.062 30.0234 100.922 30 98.2734 30.0234C96.75 30.0469 95.1328 30.1641 94.6875 30.3047Z" fill="white"/>
</svg>
