<svg width="120" height="120" viewBox="0 0 120 120" fill="none" xmlns="http://www.w3.org/2000/svg">
<g clip-path="url(#clip0_9_2)">
<path d="M47.9766 14.3906C46.3828 14.8359 45 15.8672 44.1563 17.2969C43.2656 18.7734 43.125 19.5 43.125 22.8984V25.5469H42.4688C42.0938 25.5469 41.2734 25.7109 40.6406 25.8984C39.7031 26.1797 37.7109 26.25 29.8359 26.25H20.2031L19.5 25.5469C18.4922 24.5625 16.9922 24.5391 15.8906 25.5234L15.1172 26.2031L10.0781 26.2969C4.47657 26.4141 4.00782 26.5312 2.32032 28.0547C-0.351553 30.4687 -0.445303 34.4766 2.08595 37.0312C3.65626 38.6016 4.73439 38.9062 8.71876 38.9062C10.5 38.9062 11.9531 38.9766 11.9531 39.0703C11.9297 39.1875 9.91407 47.3672 7.4297 57.3047L2.90626 75.3516L2.22657 75.4219C1.21876 75.5156 0.56251 75.9141 0.257822 76.5703C-0.140615 77.4141 -0.0703026 84.375 0.351572 86.3672C1.47657 91.7578 5.90626 96.3281 11.3906 97.7344C14.0156 98.4141 21.6094 98.4141 24.2344 97.7344C29.6016 96.375 33.7969 92.1797 35.1563 86.8125C35.5313 85.3359 35.625 84.2109 35.625 80.8125C35.625 76.6641 35.625 76.6172 35.0391 76.0547C34.6172 75.6094 34.2188 75.4687 33.4453 75.4687H32.3906L27.9141 57.3516C25.4531 47.4141 23.4375 39.1875 23.4375 39.0703C23.4375 38.9766 25.1719 38.9062 27.2813 38.9062H31.1484L30.6797 40.2422C29.7188 43.0547 29.7188 47.0625 30.6563 50.0859C31.6406 53.25 31.875 53.5312 43.5469 66.7734L46.875 70.5469V74.6484C46.875 78.4453 46.9219 78.7969 47.3438 79.2187C47.9297 79.8047 49.0078 79.8281 49.7109 79.2422C50.25 78.7969 50.2734 78.6797 50.3438 74.625C50.3906 72.3516 50.3672 70.125 50.2734 69.7031C50.1797 69.1172 48.9844 67.5937 45.6328 63.8203C43.1484 61.0078 39.8672 57.3047 38.3672 55.5703C34.4766 51.1406 33.4453 48.9375 33.4688 45C33.4688 42.4687 33.9141 41.1562 36.5391 35.7422C38.9063 30.8437 39.4688 30.0937 41.25 29.3437C41.7656 29.1328 42.5859 29.0391 43.5938 29.1094C45.0703 29.1797 45.4219 29.3437 53.1563 33.4922C57.6797 35.9297 61.3828 38.0625 61.6406 38.3906C62.6953 39.7031 62.0156 40.7812 59.3438 42.0234C55.3828 43.8984 53.4609 43.7812 48.4453 41.3203C45.6797 39.9609 45.1406 39.7734 44.6016 39.9844C43.7109 40.2891 43.1953 41.2734 43.4766 42.1172C43.6641 42.6562 44.3203 43.0781 47.3438 44.6016C50.2969 46.0781 51.3047 46.4531 52.7109 46.6641C55.1953 47.0391 57.3047 46.7344 60.2344 45.5859C60.6563 45.4453 62.8828 48 63.7734 49.6875C64.2891 50.6719 64.3359 51.0469 64.4531 55.6875C64.5469 60.1406 64.6172 60.7031 65.0156 61.1484C65.6016 61.8047 66.8672 61.8047 67.5234 61.1484C67.9922 60.6797 68.0156 60.4922 67.9219 55.4766C67.8047 48.8437 67.7813 48.7734 64.125 44.1797C63.6563 43.5937 63.6563 43.5937 64.1484 43.0781C64.8984 42.2344 65.4141 41.0859 65.5547 39.8672L65.6953 38.7187L66.5391 39.0703C67.0078 39.2812 68.0391 39.4219 68.8594 39.4219C70.0547 39.4219 70.6172 39.3047 71.7188 38.7187L73.0781 38.0156L73.5469 38.6484C73.7813 38.9766 74.5547 39.5859 75.2578 39.9609C76.3828 40.5937 76.7344 40.6641 78.5859 40.6641H80.625V44.6719C80.625 48.3984 80.6484 48.7031 81.0938 49.1016C81.75 49.6875 82.875 49.6406 83.5078 49.0078C84 48.5156 84.0234 48.2812 84.0938 43.7109L84.1641 38.9062H90.375C93.7734 38.9062 96.5625 38.9766 96.5625 39.0703C96.5625 39.1875 94.5469 47.4141 92.0625 57.3516L87.5625 75.4687H86.7656C86.1563 75.4687 85.7578 75.6797 85.1484 76.2891L84.3281 77.1094L84.4219 81.75C84.5391 86.8125 84.7031 87.4922 86.2969 90.5391C87.375 92.5781 90.1406 95.2734 92.2734 96.3984C95.1328 97.875 96.8672 98.2031 102.188 98.2031C106.008 98.2031 107.109 98.1328 108.609 97.7344C111.305 97.0547 113.508 95.7891 115.43 93.8672C117.305 91.9687 118.359 90.3281 119.25 87.8437C119.836 86.2031 119.883 85.9219 119.883 81.5156V76.8984L119.273 76.2656C118.922 75.9375 118.313 75.5859 117.867 75.4922L117.094 75.3281L112.57 57.3047C110.086 47.3672 108.047 39.1875 108.047 39.0703C108.047 38.9766 109.547 38.9062 111.398 38.9062C115.219 38.9062 116.367 38.6484 117.797 37.4062C121.195 34.5 120.398 28.9219 116.297 26.9297C115.266 26.4375 114.82 26.3906 110.039 26.2969L104.883 26.2031L104.109 25.5234C103.008 24.5391 101.508 24.5625 100.5 25.5469L99.7969 26.25H92.3203H84.8438V25.125C84.8438 20.3672 79.7344 17.1562 75.5156 19.2891L74.2734 19.9219L73.5703 19.1016C71.7891 17.0859 68.3906 16.4766 65.8828 17.7187L64.6406 18.3516L63.7969 17.5078C61.8281 15.6094 58.7813 15.0937 56.3438 16.2891L55.1016 16.8984L54.2344 16.0312C52.6406 14.4375 50.1328 13.7812 47.9766 14.3906ZM51.2578 18.1875C51.5625 18.375 52.0313 18.8672 52.2656 19.2891C52.6875 19.9687 52.7344 20.4844 52.7344 24.6562V29.2969L50.3438 27.9844C49.0078 27.2578 47.625 26.5547 47.2734 26.4141L46.6172 26.1328L46.6875 22.8047C46.7578 19.6406 46.7813 19.4531 47.3438 18.8672C48.5156 17.6016 49.9922 17.3437 51.2578 18.1875ZM61.4531 20.1328C61.8281 20.5547 62.1328 21.2344 62.2266 21.8437C62.4141 23.1094 62.2734 33.8906 62.0625 34.1016C61.9922 34.1953 60.6797 33.5625 59.1328 32.7422L56.3672 31.2187L56.2969 26.6953C56.2266 21.4219 56.2734 20.8828 57.1172 20.0625C58.3359 18.8437 60.3281 18.8672 61.4531 20.1328ZM70.3125 20.9766C71.625 21.6562 71.7188 22.1484 71.7188 28.2422C71.7188 34.2422 71.6484 34.6875 70.4297 35.4844C69.6328 36.0234 67.9453 36.0234 67.1484 35.4844C65.9297 34.6875 65.8594 34.2422 65.8594 28.2422C65.8594 22.1953 65.9531 21.6797 67.2188 21C68.0391 20.5312 69.4453 20.5312 70.3125 20.9766ZM80.0859 22.6641C81.2344 23.4141 81.3281 23.9531 81.3281 29.6484C81.3281 35.5312 81.2344 35.9531 79.8516 36.7969C78.4688 37.6406 76.6641 37.1953 75.8203 35.7891C75.3984 35.1094 75.3516 34.5937 75.3516 29.6016C75.3516 24.4922 75.375 24.1406 75.8438 23.5078C76.875 22.0781 78.6563 21.7266 80.0859 22.6641ZM18.0938 32.4609C18.4453 33.8672 18.75 35.1094 18.75 35.2031C18.75 35.3203 15.8438 35.3906 12.3047 35.3906C5.20313 35.3906 4.8047 35.3203 4.10157 33.9844C3.60938 33.0234 3.65626 32.0625 4.28907 31.1484C5.13282 29.8828 5.78907 29.7891 11.9297 29.8359L17.4375 29.8828L18.0938 32.4609ZM35.3906 29.8594C35.3906 29.9297 34.8047 31.1953 34.1016 32.6719L32.8359 35.3906L27.6328 35.3437L22.4063 35.2734L21.75 32.6953C21.3984 31.2656 21.0938 30.0469 21.0938 29.9297C21.0938 29.8359 24.3047 29.7656 28.2422 29.7656C32.1797 29.7656 35.3906 29.8125 35.3906 29.8594ZM102.094 30.0234C102.188 30.1875 102.539 31.4531 102.891 32.8359L103.547 35.3906H94.1953H84.8438V32.7422C84.8438 31.2656 84.9141 30 85.0078 29.9297C85.2891 29.625 101.906 29.7422 102.094 30.0234ZM114.609 30.0703C115.57 30.3984 116.484 31.6641 116.484 32.625C116.484 33 116.32 33.6094 116.133 33.9844C115.5 35.2031 114.797 35.3906 110.789 35.3906H107.156L106.547 32.9297C106.219 31.5937 105.938 30.3281 105.938 30.1172C105.938 29.8125 106.5 29.7656 109.875 29.7891C112.266 29.7891 114.094 29.9062 114.609 30.0703ZM19.8984 39.7734C20.0391 40.2656 22.0313 48.3047 24.375 57.6562C26.6953 67.0078 28.6641 74.8359 28.7344 75.0469C28.8516 75.4453 28.2188 75.4687 17.6953 75.4687C6.96095 75.4687 6.51564 75.4453 6.60939 75.0469C6.6797 74.7891 8.71876 66.5625 11.1563 56.7656L15.5625 38.9062H17.625H19.6641L19.8984 39.7734ZM108.914 57.0703C111.398 66.9844 113.414 75.1875 113.438 75.2812C113.438 75.3984 112.453 75.4687 111.234 75.4687C108.797 75.4687 108.188 75.7266 107.906 76.9219C107.789 77.4375 107.906 77.6953 108.469 78.2812L109.172 78.9844H112.828H116.484V81.5391C116.484 84.7266 116.203 86.1562 115.219 88.2891C113.836 91.1953 111.023 93.4922 107.789 94.3359C105.938 94.8281 98.4141 94.8047 96.4688 94.3125C94.5235 93.8203 92.7188 92.7422 91.1719 91.1719C88.6875 88.6641 87.8906 86.3672 87.8906 81.8672V78.9844H95.25C102.328 78.9844 102.609 78.9609 103.219 78.4922C103.992 77.8828 104.063 76.6406 103.359 75.9375C102.914 75.4922 102.586 75.4687 97.0078 75.4687C91.5235 75.4687 91.1484 75.4453 91.2656 75.0469C91.3359 74.8359 93.3047 67.0078 95.625 57.6562C97.9688 48.3047 99.961 40.2656 100.102 39.7734L100.336 38.8828L102.375 38.9531L104.414 39.0234L108.914 57.0703ZM32.1094 81.8672C32.1094 86.4375 31.2188 88.8281 28.5938 91.4062C27.0703 92.9062 25.4766 93.8203 23.5547 94.3359C21.7266 94.8047 14.0156 94.8281 12.3047 94.3594C8.08595 93.2344 4.96876 90.1172 3.8672 85.8516C3.65626 85.0312 3.51563 83.4375 3.51563 81.75V78.9844H17.8125H32.1094V81.8672Z" fill="white"/>
<path d="M81.0938 54.1406C80.6719 54.5625 80.625 54.9141 80.625 57.8203C80.625 62.3203 80.2969 63.6562 78.3516 67.125L76.7578 69.9609V87.375V104.812L77.4375 105.398C78.1641 106.031 78.9844 105.984 79.7578 105.305C80.1328 104.953 80.1562 103.828 80.1562 87.9609V70.9922L81.5391 68.6016C83.6484 64.9922 84 63.5625 84.0234 58.6875C84.0234 55.0547 83.9766 54.6094 83.5781 54.1641C82.9922 53.5312 81.7266 53.5078 81.0938 54.1406Z" fill="white"/>
<path d="M47.4844 84.1641L46.875 84.6328V94.1953C46.875 103.008 46.8984 103.781 47.2969 104.133C48.0469 104.812 48.8672 104.859 49.5938 104.227L50.2734 103.641V94.2187V84.7969L49.6172 84.2344C48.8203 83.5547 48.3047 83.5312 47.4844 84.1641Z" fill="white"/>
</g>
<defs>
<clipPath id="clip0_9_2">
<rect width="120" height="120" fill="white"/>
</clipPath>
</defs>
</svg>
