<svg width="120" height="120" viewBox="0 0 120 120" fill="none" xmlns="http://www.w3.org/2000/svg">
<path d="M55.1719 2.10938C51.7969 2.71875 48.9141 4.28906 46.2891 6.91406C44.1563 9.04688 42.9141 11.0156 42.0234 13.7109C41.4844 15.375 41.4141 15.9609 41.4141 18.75C41.4141 21.5391 41.4844 22.125 42.0234 23.7891C42.9141 26.4844 44.1563 28.4531 46.2891 30.5859C48.4219 32.7188 50.3906 33.9609 53.0859 34.8516C54.75 35.3906 55.3359 35.4609 58.125 35.4609C60.9141 35.4609 61.5 35.3906 63.1641 34.8516C65.8594 33.9609 67.8281 32.7188 69.961 30.5859C72.0938 28.4531 73.336 26.4844 74.2266 23.7891C74.7656 22.125 74.836 21.5391 74.836 18.75C74.836 15.9609 74.7656 15.375 74.2266 13.7109C73.336 11.0156 72.0938 9.04688 69.961 6.91406C66.7031 3.63282 63.3047 2.15625 58.8281 1.99219C57.4688 1.94532 55.8281 1.99219 55.1719 2.10938ZM60.6094 5.88281C62.9063 6.28125 65.5313 7.71094 67.3594 9.51563C72.4922 14.6719 72.4922 22.8516 67.3359 28.0078C62.2031 33.1406 54.0234 33.1172 48.8672 27.9375C42.5391 21.6328 44.3203 11.0156 52.3359 7.05469C55.1016 5.69531 57.6094 5.34375 60.6094 5.88281Z" fill="white"/>
<path d="M56.25 8.64844C56.25 9.70312 56.2031 9.82031 55.5469 10.0781C53.9531 10.7344 52.5 13.1016 52.5 15C52.5 17.8828 55.2188 20.625 58.1016 20.625C59.0859 20.625 60 21.5156 60 22.5C60 23.4609 59.0859 24.375 58.125 24.375C57.3516 24.375 56.25 23.4844 56.25 22.8516C56.25 22.5703 55.8984 22.5 54.375 22.5C52.2891 22.5 52.2656 22.5 52.7812 24.1875C53.1094 25.3125 54.5625 27.0234 55.5469 27.4219C56.2031 27.6797 56.25 27.7969 56.25 28.8516V30H58.125H60V28.8516C60 27.7969 60.0469 27.6797 60.7031 27.4219C62.2969 26.7656 63.75 24.3984 63.75 22.5C63.75 19.6172 61.0312 16.875 58.1484 16.875C57.1641 16.875 56.25 15.9844 56.25 15C56.25 14.0391 57.1641 13.125 58.125 13.125C58.8984 13.125 60 14.0156 60 14.6484C60 14.9297 60.3516 15 61.875 15C63.9609 15 63.9844 15 63.4688 13.3125C63.1406 12.1875 61.6875 10.4766 60.7031 10.0781C60.0469 9.82031 60 9.70312 60 8.64844V7.5H58.125H56.25V8.64844Z" fill="white"/>
<path d="M20.625 17.1797C19.4766 17.5547 17.5078 19.5703 17.1562 20.7656C16.9453 21.4688 16.875 24.7266 16.875 32.4375V43.125H14.6484C12.5859 43.125 12.3516 43.1719 11.8359 43.711C10.7578 44.7656 10.9687 45.2578 14.4375 49.875C17.6953 54.2344 18.0937 54.5859 19.3125 54.2813C19.6875 54.1875 20.9062 52.7578 23.0625 49.875C26.5312 45.2578 26.7422 44.7656 25.664 43.711C25.1484 43.1719 24.914 43.125 22.8516 43.125H20.625V32.461V21.7735L21.2109 21.211L21.7734 20.625H29.6484H37.5V18.75V16.875L29.4844 16.8985C24.3281 16.9219 21.1406 17.0156 20.625 17.1797ZM19.7578 48.0469C19.2891 48.6797 18.8203 49.2188 18.75 49.2188C18.6797 49.2188 18.2109 48.6797 17.7422 48.0469L16.875 46.875H18.75H20.625L19.7578 48.0469Z" fill="white"/>
<path d="M78.75 18.75V20.625H86.6016H94.4766L95.0391 21.211L95.625 21.7735V32.461V43.125H93.3984C91.3359 43.125 91.1016 43.1719 90.5859 43.711C89.5078 44.7656 89.7187 45.2578 93.1875 49.875C95.3437 52.7578 96.5625 54.1875 96.9375 54.2813C98.1562 54.5859 98.5547 54.2344 101.812 49.875C105.281 45.2578 105.492 44.7656 104.414 43.711C103.898 43.1719 103.664 43.125 101.602 43.125H99.375V32.4375C99.375 24.8438 99.3047 21.4688 99.0937 20.8125C98.9531 20.2969 98.3672 19.3594 97.8047 18.75C96.1641 16.9219 95.9062 16.875 86.6719 16.875H78.75V18.75ZM98.5078 48.0469C98.0391 48.6797 97.5703 49.2188 97.5 49.2188C97.4297 49.2188 96.9609 48.6797 96.4922 48.0469L95.625 46.875H97.5H99.375L98.5078 48.0469Z" fill="white"/>
<path d="M56.25 44.0625V48.75H54.0234C51.9609 48.75 51.7266 48.7969 51.2109 49.3359C50.1328 50.3906 50.3437 50.8828 53.8125 55.5C57.0703 59.8594 57.4687 60.2109 58.6875 59.9063C59.0625 59.8125 60.2812 58.3828 62.4375 55.5C65.9062 50.8828 66.1172 50.3906 65.0391 49.3359C64.5234 48.7969 64.2891 48.75 62.2266 48.75H60V44.0625V39.375H58.125H56.25V44.0625ZM59.1328 53.6719C58.6641 54.3047 58.1953 54.8438 58.125 54.8438C58.0547 54.8438 57.5859 54.3047 57.1172 53.6719L56.25 52.5H58.125H60L59.1328 53.6719Z" fill="white"/>
<path d="M95.2734 58.4531C92.7656 59.25 90.9141 60.8438 89.8359 63.1641C89.2734 64.3594 89.1797 64.875 89.1797 66.5625C89.1797 68.25 89.2734 68.7656 89.8359 69.9375C90.1875 70.6875 90.4453 71.3438 90.4219 71.3672C90.375 71.3906 89.8359 71.6484 89.2031 71.9531C87.0703 72.9609 85.4766 75.1172 84.7266 77.9766C84.4453 79.0078 84.375 80.7891 84.375 85.5938V91.875H83.5547C82.4297 91.875 81.4219 92.4375 80.9766 93.2812C80.4609 94.2656 80.4609 100.734 80.9766 101.719C81.4219 102.562 82.4297 103.125 83.5547 103.125H84.375V105V106.875H83.5547C83.0859 106.875 82.4062 107.039 82.0312 107.227C80.8125 107.859 80.625 108.562 80.625 112.5C80.625 116.438 80.8125 117.141 82.0312 117.773C83.0625 118.312 110.062 118.312 111.094 117.773C112.242 117.188 112.5 116.367 112.5 113.32V110.625H113.32C113.789 110.625 114.469 110.461 114.844 110.273C116.062 109.641 116.25 108.938 116.25 105C116.25 101.062 116.062 100.359 114.844 99.7266C114.469 99.5391 113.789 99.375 113.32 99.375H112.5V96.6094C112.5 93.6562 112.148 92.5547 111.117 92.2266C110.625 92.0859 110.625 91.9453 110.625 85.6875C110.625 78.8438 110.484 77.7422 109.359 75.4922C108.586 73.9688 106.875 72.3281 105.586 71.8125C105 71.6016 104.531 71.3906 104.531 71.3672C104.531 71.3438 104.812 70.6875 105.188 69.9375C105.727 68.7656 105.82 68.25 105.82 66.5625C105.82 64.875 105.727 64.3594 105.164 63.1641C104.461 61.6406 103.266 60.2578 101.93 59.4141C100.102 58.2422 97.2656 57.8203 95.2734 58.4531ZM100.078 62.6719C101.461 63.5859 102.07 64.7578 102.07 66.5625C102.07 68.3906 101.461 69.5391 100.008 70.5C98.6953 71.3672 96.4219 71.4141 95.0859 70.5703C93.3047 69.4688 92.4844 67.2891 93.0234 65.2031C93.3516 64.0078 94.7812 62.4609 95.9062 62.1328C97.1484 61.7578 99.0703 61.9922 100.078 62.6719ZM93.375 79.5C92.5547 81.9844 91.875 84.2812 91.875 84.5859C91.875 85.0078 92.5312 85.8281 94.2891 87.5859C97.5234 90.8203 97.4766 90.8203 100.711 87.5859C102.469 85.8281 103.125 85.0078 103.125 84.5859C103.125 84.2812 102.445 81.9844 101.625 79.5L100.102 75H101.859C103.875 75 104.695 75.3281 105.586 76.5234C106.734 78.0234 106.875 78.9844 106.875 85.7109V91.875H97.5H88.125V85.7109C88.125 79.125 88.2656 78.0938 89.2969 76.6406C90.1875 75.375 91.0547 75 93.0938 75H94.8984L93.375 79.5ZM98.3672 81.6562L99.0938 83.8594L98.2969 84.6328L97.5 85.4062L96.7031 84.6328L95.9062 83.8594L96.6328 81.6562C97.0312 80.4375 97.4297 79.4531 97.5 79.4531C97.5703 79.4531 97.9688 80.4375 98.3672 81.6562ZM90 97.5V99.375H87.1875H84.375V97.5V95.625H87.1875H90V97.5ZM99.375 97.5V99.375H96.5625H93.75V97.5V95.625H96.5625H99.375V97.5ZM108.75 97.5V99.375H105.938H103.125V97.5V95.625H105.938H108.75V97.5ZM93.75 105V106.875H90.9375H88.125V105V103.125H90.9375H93.75V105ZM103.125 105V106.875H100.312H97.5V105V103.125H100.312H103.125V105ZM112.5 105V106.875H109.688H106.875V105V103.125H109.688H112.5V105ZM90 112.5V114.375H87.1875H84.375V112.5V110.625H87.1875H90V112.5ZM99.375 112.5V114.375H96.5625H93.75V112.5V110.625H96.5625H99.375V112.5ZM108.75 112.5V114.375H105.938H103.125V112.5V110.625H105.938H108.75V112.5Z" fill="white"/>
<path d="M55.8984 65.9531C53.3906 66.75 51.5391 68.3438 50.4609 70.6641C49.8984 71.8594 49.8047 72.375 49.8047 74.0625C49.8047 75.75 49.8984 76.2656 50.4609 77.4375C50.8125 78.1875 51.0703 78.8438 51.0469 78.8672C51 78.8906 50.4609 79.1484 49.8281 79.4531C47.6953 80.4609 46.1016 82.6172 45.3516 85.4766C45.0703 86.5078 45 88.2891 45 93.0938V99.375H44.1797C43.0547 99.375 42.0469 99.9375 41.6016 100.781C41.0859 101.766 41.0859 108.234 41.6016 109.219C42.0469 110.062 43.0547 110.625 44.1797 110.625H45V113.32C45 116.367 45.2578 117.188 46.4062 117.773C47.4375 118.312 74.4375 118.312 75.4688 117.773C76.6875 117.141 76.875 116.438 76.875 112.5C76.875 108.562 76.6875 107.859 75.4688 107.227C75.0938 107.039 74.4141 106.875 73.9453 106.875H73.125V104.109C73.125 101.156 72.7734 100.055 71.7422 99.7266C71.25 99.5859 71.25 99.4453 71.25 93.1875C71.25 86.3438 71.1094 85.2422 69.9844 82.9922C69.2109 81.4688 67.5 79.8281 66.2109 79.3125C65.625 79.1016 65.1562 78.8906 65.1562 78.8672C65.1562 78.8438 65.4375 78.1875 65.8125 77.4375C66.3516 76.2656 66.4453 75.75 66.4453 74.0625C66.4453 72.375 66.3516 71.8594 65.7891 70.6641C65.0859 69.1406 63.8906 67.7578 62.5547 66.9141C60.7266 65.7422 57.8906 65.3203 55.8984 65.9531ZM60.7031 70.1719C62.0859 71.0859 62.6953 72.2578 62.6953 74.0625C62.6953 75.8906 62.0859 77.0391 60.6328 78C59.3203 78.8672 57.0469 78.9141 55.7109 78.0703C53.9297 76.9688 53.1094 74.7891 53.6484 72.7031C53.9766 71.5078 55.4062 69.9609 56.5312 69.6328C57.7734 69.2578 59.6953 69.4922 60.7031 70.1719ZM64.9219 82.8516C65.2969 83.0391 65.8828 83.5781 66.2109 84.0234C67.3594 85.5234 67.5 86.4844 67.5 93.2109V99.375H58.125H48.75V93.2109C48.75 86.625 48.8906 85.5938 49.9219 84.1406C51.0703 82.5469 51.2344 82.5 58.0781 82.5C63.0938 82.5 64.3594 82.5703 64.9219 82.8516ZM50.625 105V106.875H47.8125H45V105V103.125H47.8125H50.625V105ZM60 105V106.875H57.1875H54.375V105V103.125H57.1875H60V105ZM69.375 105V106.875H66.5625H63.75V105V103.125H66.5625H69.375V105ZM54.375 112.5V114.375H51.5625H48.75V112.5V110.625H51.5625H54.375V112.5ZM63.75 112.5V114.375H60.9375H58.125V112.5V110.625H60.9375H63.75V112.5ZM73.125 112.5V114.375H70.3125H67.5V112.5V110.625H70.3125H73.125V112.5Z" fill="white"/>
<path d="M16.5234 73.4531C14.0156 74.25 12.1641 75.8438 11.0859 78.1641C10.5234 79.3594 10.4297 79.875 10.4297 81.5625C10.4297 83.25 10.5234 83.7656 11.0859 84.9375C11.4375 85.6875 11.6953 86.3438 11.6719 86.3672C11.625 86.3906 11.0859 86.6484 10.4531 86.9531C8.32031 87.9609 6.72656 90.1172 5.97656 92.9766C5.69531 94.0078 5.625 95.7891 5.625 100.688C5.625 106.945 5.625 107.086 5.13281 107.227C4.875 107.32 4.45312 107.719 4.19531 108.117C3.82031 108.773 3.75 109.336 3.75 112.453C3.75 116.438 3.9375 117.141 5.15625 117.773C6.1875 118.312 33.1875 118.312 34.2188 117.773C35.4375 117.141 35.625 116.438 35.625 112.5C35.625 108.562 35.4375 107.859 34.2188 107.227C33.8438 107.039 33.1641 106.875 32.6953 106.875H31.875V100.594C31.875 93.8438 31.7344 92.7422 30.6094 90.4922C29.8359 88.9688 28.125 87.3281 26.8359 86.8125C26.25 86.6016 25.7812 86.3906 25.7812 86.3672C25.7812 86.3438 26.0625 85.6875 26.4375 84.9375C26.9766 83.7656 27.0703 83.25 27.0703 81.5625C27.0703 79.875 26.9766 79.3594 26.4141 78.1641C25.7109 76.6406 24.5156 75.2578 23.1797 74.4141C21.3516 73.2422 18.5156 72.8203 16.5234 73.4531ZM21.3281 77.6719C22.7109 78.5859 23.3203 79.7578 23.3203 81.5625C23.3203 83.3906 22.7109 84.5391 21.2578 85.5C19.9453 86.3672 17.6719 86.4141 16.3359 85.5703C14.5547 84.4688 13.7344 82.2891 14.2734 80.2031C14.6016 79.0078 16.0312 77.4609 17.1562 77.1328C18.3984 76.7578 20.3203 76.9922 21.3281 77.6719ZM25.5469 90.3516C25.9219 90.5391 26.5078 91.0781 26.8359 91.5234C27.9844 93.0234 28.125 93.9844 28.125 100.711V106.875H18.75H9.375V100.711C9.375 94.125 9.51562 93.0938 10.5469 91.6406C11.6953 90.0469 11.8594 90 18.7031 90C23.7188 90 24.9844 90.0703 25.5469 90.3516ZM13.125 112.5V114.375H10.3125H7.5V112.5V110.625H10.3125H13.125V112.5ZM22.5 112.5V114.375H19.6875H16.875V112.5V110.625H19.6875H22.5V112.5ZM31.875 112.5V114.375H29.0625H26.25V112.5V110.625H29.0625H31.875V112.5Z" fill="white"/>
</svg>
