<svg width="120" height="120" viewBox="0 0 120 120" fill="none" xmlns="http://www.w3.org/2000/svg">
<path d="M50.7188 3.09375C50.0859 5.03906 49.5703 5.92969 48.4688 6.96094C46.1484 9.09375 43.0313 9.44531 40.0078 7.94531L38.4375 7.14844L32.1797 13.4297L25.8984 19.6875L26.6953 21.2578C28.1953 24.2812 27.8438 27.3984 25.7109 29.7188C24.6797 30.8203 23.7891 31.3359 21.8672 31.9688L20.625 32.3906V41.25V50.1094L21.8672 50.5312C23.8359 51.1641 24.7266 51.7031 25.7578 52.875C26.2734 53.4844 26.7188 54.0703 26.7188 54.1641C26.7188 54.2812 21.6563 54.3984 15.4922 54.4219C4.54688 54.4922 4.24219 54.5156 3.60938 54.9844C2.10938 56.0859 1.99219 56.4609 1.99219 60C1.99219 63.5391 2.10938 63.9141 3.60938 65.0156C4.21875 65.4844 4.61719 65.5078 10.5703 65.5781L16.875 65.6484V68.1328V70.5938L9.35156 80.0156L1.82812 89.4141L1.96875 91.3359C2.27344 95.3906 3.89063 98.8125 6.91406 101.836C9.04688 103.969 11.0156 105.211 13.7109 106.102C15.375 106.641 15.9609 106.711 18.75 106.711C21.5391 106.711 22.125 106.641 23.7891 106.102C26.4844 105.211 28.4531 103.969 30.5859 101.836C33.6094 98.8125 35.2266 95.3906 35.5313 91.3359L35.6719 89.4141L28.1484 80.0156L20.625 70.5938V68.1094V65.625H26.6016C32.5078 65.625 32.5781 65.625 32.5781 66.1172C32.5781 66.3984 32.9063 67.5703 33.2813 68.7422C35.2734 74.6719 39.2578 79.8984 44.4375 83.3438C46.0547 84.4219 48.75 85.8047 50.2266 86.3203C50.6016 86.4609 50.625 87.3281 50.625 99.8672C50.625 109.711 50.6953 113.531 50.9063 114.234C51.2813 115.523 53.2266 117.469 54.5156 117.844C55.8281 118.219 64.1719 118.219 65.4844 117.844C66.7734 117.469 68.7188 115.523 69.0938 114.234C69.3047 113.531 69.375 109.711 69.375 99.8672C69.375 87.3281 69.3984 86.4609 69.7969 86.3203C71.25 85.8047 73.9453 84.4219 75.5625 83.3438C80.7656 79.875 84.7969 74.5781 86.7188 68.6719C87.0938 67.5 87.4219 66.3281 87.4219 66.0703C87.4219 65.6484 87.6797 65.625 93.3984 65.625H99.375V68.1094V70.5938L91.8516 80.0156L84.3281 89.4141L84.4688 91.3359C84.7734 95.3906 86.3906 98.8125 89.4141 101.836C91.5469 103.969 93.5156 105.211 96.2109 106.102C97.875 106.641 98.4609 106.711 101.25 106.711C104.039 106.711 104.625 106.641 106.289 106.102C108.984 105.211 110.953 103.969 113.086 101.836C116.109 98.8125 117.727 95.3906 118.031 91.3359L118.172 89.4141L110.648 80.0156L103.125 70.5938V68.1328V65.6484L109.43 65.5781C115.383 65.5078 115.781 65.4844 116.391 65.0156C117.891 63.9141 118.008 63.5391 118.008 60C118.008 56.4609 117.891 56.0859 116.391 54.9844C115.758 54.5156 115.453 54.4922 104.508 54.4219C98.3438 54.3984 93.2813 54.2812 93.2813 54.1641C93.2813 54.0703 93.7266 53.4844 94.2422 52.875C95.2734 51.7031 96.1641 51.1641 98.1563 50.5312L99.375 50.1094V41.25V32.3906L98.1563 31.9688C96.2109 31.3359 95.3203 30.8203 94.2891 29.7188C92.1563 27.3984 91.8047 24.2812 93.3047 21.2578L94.1016 19.6875L87.8203 13.4297L81.5625 7.14844L79.9922 7.94531C77.7656 9.04688 75.8672 9.1875 73.8984 8.39062C71.4375 7.38281 70.2891 6.11719 69.3516 3.35156L68.8594 1.875H60H51.1406L50.7188 3.09375ZM66.7031 6.84375C68.0156 9.44531 71.2031 11.8125 74.25 12.4453C75.7969 12.75 78.4453 12.6094 79.8281 12.1172L80.7891 11.7656L85.1484 16.125L89.4844 20.5078L89.1328 21.4453C88.6406 22.8047 88.5 25.4531 88.8047 27C89.4375 30.0469 91.8047 33.2344 94.4063 34.5469L95.625 35.1562V41.25V47.3438L94.4063 47.9531C92.6953 48.8203 90.7031 50.9062 89.7656 52.7812C89.0391 54.2812 88.9453 54.375 88.2188 54.375C87.6094 54.375 87.4219 54.2812 87.4219 53.9531C87.4219 53.7422 87.2109 52.9219 86.9766 52.1484L86.5313 50.7422L87.2578 48.0469C87.9141 45.5625 87.9609 45.0469 87.9609 41.3672C87.9844 38.4375 87.8672 36.9141 87.5859 35.6719C86.25 29.8359 83.7891 25.3594 79.7109 21.3281C75.7266 17.3672 71.1328 14.8594 65.625 13.6875C63.1406 13.1484 57.375 13.0781 54.9609 13.5703C46.1953 15.3047 38.7891 20.8828 34.875 28.7109C32.7188 33 31.9922 36.2344 32.0156 41.4844C32.0391 45 32.1094 45.5859 32.7422 48.0469L33.4688 50.7422L33.0234 52.1484C32.7891 52.9219 32.5781 53.7422 32.5781 53.9531C32.5781 54.2812 32.3906 54.375 31.7813 54.375C31.0547 54.375 30.9609 54.2812 30.2578 52.8516C29.2734 50.8594 27.5391 49.0078 25.8047 48.0703L24.375 47.3203V41.25V35.1797L25.8047 34.4297C28.3594 33.0703 30.5625 30.0234 31.1953 27C31.5 25.4531 31.3594 22.8047 30.8672 21.4219L30.5156 20.4609L34.875 16.1016L39.2578 11.7656L40.1953 12.1172C42.6328 13.0078 46.125 12.7031 48.7969 11.3438C50.3672 10.5469 52.5 8.41406 53.2969 6.84375L53.9063 5.625H60H66.0938L66.7031 6.84375ZM63.4219 17.1328C66.7969 17.6016 71.0156 19.2422 73.8047 21.1641C75.3281 22.2188 78.375 25.1719 79.6172 26.8125C80.8828 28.5 82.3594 31.3594 83.1328 33.6328C84.1875 36.7266 84.6328 41.3203 84.1875 44.25L84.0234 45.2812L82.3594 43.0781C80.8125 41.0156 80.6719 40.7578 80.5313 39.3516C79.4766 30 72.6328 22.5469 63.6328 20.9766C51.7031 18.9141 40.7813 27.2109 39.4688 39.3516C39.3281 40.7578 39.1875 41.0156 37.6406 43.0781L35.9766 45.2812L35.8125 44.25C34.9688 38.8125 36.7266 31.9219 40.1953 27.0703C41.3672 25.4297 44.625 22.2188 46.1953 21.1641C48.9141 19.3125 53.2969 17.5781 56.3672 17.1328C58.4063 16.8516 61.3359 16.8281 63.4219 17.1328ZM65.0391 25.1719C67.6875 26.0156 69.6797 27.2578 71.8359 29.4141C73.9688 31.5469 75.2109 33.5156 76.1016 36.2109C76.6406 37.875 76.7109 38.4609 76.7109 41.25C76.7109 44.0391 76.6406 44.625 76.1016 46.2891C75.2109 48.9844 73.9688 50.9531 71.8359 53.0859C69.7031 55.2188 67.7344 56.4609 65.0391 57.3516C63.375 57.8906 62.7891 57.9609 60 57.9609C57.2109 57.9609 56.625 57.8906 54.9609 57.3516C52.2656 56.4609 50.2969 55.2188 48.1641 53.0859C46.0313 50.9531 44.7891 48.9844 43.8984 46.2891C43.3594 44.625 43.2891 44.0391 43.2891 41.25C43.2891 38.4609 43.3594 37.875 43.8984 36.2109C44.7891 33.5391 46.0078 31.5703 48.1641 29.3906C50.7188 26.8125 53.6484 25.2422 57.0703 24.6094C59.1328 24.2344 62.9297 24.5156 65.0391 25.1719ZM41.3203 49.9219C41.6484 50.6719 41.6484 50.8125 41.2266 51.6094C40.3828 53.2734 39.5859 56.5312 39.4453 58.9453C38.7656 71.0625 48.9609 81.2344 61.0547 80.5547C70.1953 80.0156 77.5547 73.9922 79.9922 65.0391C80.4141 63.5156 80.4844 62.5547 80.4844 59.8828C80.4609 57.0234 80.3906 56.3438 79.8281 54.5391C79.5 53.3906 79.0078 52.0781 78.7734 51.6094C78.3516 50.8125 78.3516 50.6719 78.6797 49.9219C78.8672 49.4766 79.2656 48.4219 79.5469 47.6016L80.0625 46.1016L80.6719 47.1328C85.2422 54.9844 85.5938 63.2344 81.6797 71.0156C77.6719 79.0312 69 84.375 60 84.375C55.0547 84.375 49.4531 82.5234 45.5625 79.6172C43.9219 78.375 40.9688 75.3281 39.9141 73.8047C37.9922 71.0156 36.3516 66.7969 35.8828 63.4219C35.0859 57.75 36.1875 52.5234 39.3281 47.1328L39.9375 46.1016L40.4531 47.6016C40.7344 48.4219 41.1328 49.4766 41.3203 49.9219ZM49.0078 58.6641C57.1875 63.7266 67.4297 62.6719 74.3203 56.0391L75.9375 54.4688L76.1719 55.3125C77.4141 59.7656 76.8516 64.5703 74.6016 68.4375C73.4531 70.3828 70.3828 73.4531 68.4375 74.6016C67.5938 75.0938 66.0703 75.75 65.0391 76.1016C63.375 76.6406 62.7891 76.7109 60 76.7109C57.2109 76.7109 56.625 76.6406 54.9609 76.1016C53.9297 75.75 52.4063 75.0938 51.5625 74.6016C49.5938 73.4531 46.5234 70.3828 45.3984 68.4375C43.1484 64.5703 42.5859 59.7656 43.8281 55.3125L44.0625 54.4688L45.6797 56.0391C46.5703 56.8828 48.0703 58.0781 49.0078 58.6641ZM31.875 60V61.875H18.75H5.625V60V58.125H18.75H31.875V60ZM114.375 60V61.875H101.25H88.125V60V58.125H101.25H114.375V60ZM24.3047 81.1641L29.7656 88.0078L24.2578 88.0781C21.2344 88.1016 16.2656 88.1016 13.2422 88.0781L7.73438 88.0078L13.1953 81.1641C16.1719 77.3906 18.6797 74.3203 18.75 74.3203C18.8203 74.3203 21.3281 77.3906 24.3047 81.1641ZM106.805 81.1641L112.266 88.0078L106.758 88.0781C103.734 88.1016 98.7656 88.1016 95.7422 88.0781L90.2344 88.0078L95.6953 81.1641C98.6719 77.3906 101.18 74.3203 101.25 74.3203C101.32 74.3203 103.828 77.3906 106.805 81.1641ZM60 88.0078C61.4766 88.0078 63.3516 87.9141 64.1719 87.8203L65.625 87.6328V100.43V113.227L65.0391 113.789C64.4766 114.375 64.4297 114.375 60 114.375C55.5703 114.375 55.5234 114.375 54.9609 113.789L54.375 113.227V100.43V87.6328L55.8516 87.8203C56.6484 87.9141 58.5234 88.0078 60 88.0078ZM31.6406 92.3438C31.6406 93 30.6563 95.625 29.9297 96.8438C29.1328 98.2266 27 100.359 25.6406 101.156C20.3672 104.25 13.8516 103.523 9.63281 99.3516C7.99219 97.7109 7.19531 96.4688 6.39844 94.2891C5.41406 91.5938 3.96094 91.875 18.75 91.875C31.3828 91.875 31.6406 91.875 31.6406 92.3438ZM114.141 92.3438C114.141 93 113.156 95.625 112.43 96.8438C111.633 98.2266 109.5 100.359 108.141 101.156C102.867 104.25 96.3516 103.523 92.1328 99.3516C90.4922 97.7109 89.6953 96.4688 88.8984 94.2891C87.9141 91.5938 86.4609 91.875 101.25 91.875C113.883 91.875 114.141 91.875 114.141 92.3438Z" fill="white"/>
<path d="M58.125 30V31.875H56.25H54.375V35.0625C54.375 39.0469 54.5859 39.8438 56.1328 41.3672C57.3281 42.5859 58.5234 43.125 59.9766 43.125C61.1953 43.125 61.875 43.9922 61.875 45.5859V46.875H60.5859C58.7578 46.875 58.125 46.2422 58.125 44.4141V43.125H56.25H54.375V44.4375C54.375 45.1641 54.4922 46.1719 54.6563 46.6875C54.9844 47.8125 56.4375 49.5234 57.4219 49.9219L58.125 50.2031V52.2891V54.375H60H61.875V52.5V50.625H63.75H65.625V47.4375C65.625 43.4531 65.4141 42.6562 63.8672 41.1328C62.6719 39.9141 61.4766 39.375 60.0234 39.375C58.8047 39.375 58.125 38.5078 58.125 36.9141V35.625H59.4141C60.4922 35.625 60.8203 35.7188 61.2891 36.2109C61.7813 36.6797 61.875 37.0078 61.875 38.0859V39.375H63.75H65.625V38.0625C65.625 37.3359 65.5078 36.3281 65.3438 35.8125C65.0156 34.6875 63.5625 32.9766 62.5781 32.5781L61.875 32.2969V30.2109V28.125H60H58.125V30Z" fill="white"/>
</svg>
